G04 #@! TF.GenerationSoftware,KiCad,Pcbnew,(5.99.0-176-g31e38f2fd)*
G04 #@! TF.CreationDate,2020-02-05T01:48:41+01:00*
G04 #@! TF.ProjectId,5x14_ortho_keyboard_elite-c,35783134-5f6f-4727-9468-6f5f6b657962,rev?*
G04 #@! TF.SameCoordinates,Original*
G04 #@! TF.FileFunction,Legend,Bot*
G04 #@! TF.FilePolarity,Positive*
%FSLAX46Y46*%
G04 Gerber Fmt 4.6, Leading zero omitted, Abs format (unit mm)*
G04 Created by KiCad (PCBNEW (5.99.0-176-g31e38f2fd)) date 2020-02-05 01:48:41*
%MOMM*%
%LPD*%
G04 APERTURE LIST*
%ADD10C,0.150000*%
%ADD11C,1.000000*%
%ADD12C,0.200000*%
%ADD13C,0.010000*%
%ADD14C,2.250000*%
%ADD15C,2.250000*%
%ADD16C,3.987800*%
%ADD17C,1.750000*%
%ADD18C,2.000000*%
%ADD19C,1.700000*%
%ADD20C,1.200000*%
%ADD21C,3.048000*%
%ADD22O,1.700000X1.700000*%
%ADD23R,1.700000X1.700000*%
%ADD24R,1.752600X1.752600*%
%ADD25C,1.752600*%
%ADD26C,1.400000*%
%ADD27R,1.400000X1.400000*%
%ADD28C,4.400000*%
%ADD29R,1.800000X1.800000*%
%ADD30C,1.800000*%
%ADD31O,1.400000X1.400000*%
%ADD32R,2.000000X3.200000*%
%ADD33R,2.000000X2.000000*%
G04 APERTURE END LIST*
D10*
X37780654Y-84500000D02*
X37875892Y-84452380D01*
X38018750Y-84452380D01*
X38161607Y-84500000D01*
X38256845Y-84595238D01*
X38304464Y-84690476D01*
X38352083Y-84880952D01*
X38352083Y-85023809D01*
X38304464Y-85214285D01*
X38256845Y-85309523D01*
X38161607Y-85404761D01*
X38018750Y-85452380D01*
X37923511Y-85452380D01*
X37780654Y-85404761D01*
X37733035Y-85357142D01*
X37733035Y-85023809D01*
X37923511Y-85023809D01*
X37304464Y-85452380D02*
X37304464Y-84452380D01*
X36733035Y-85452380D01*
X36733035Y-84452380D01*
X36256845Y-85452380D02*
X36256845Y-84452380D01*
X36018750Y-84452380D01*
X35875892Y-84500000D01*
X35780654Y-84595238D01*
X35733035Y-84690476D01*
X35685416Y-84880952D01*
X35685416Y-85023809D01*
X35733035Y-85214285D01*
X35780654Y-85309523D01*
X35875892Y-85404761D01*
X36018750Y-85452380D01*
X36256845Y-85452380D01*
X38194940Y-82952380D02*
X38194940Y-81952380D01*
X38194940Y-82904761D02*
X38290178Y-82952380D01*
X38480654Y-82952380D01*
X38575892Y-82904761D01*
X38623511Y-82857142D01*
X38671130Y-82761904D01*
X38671130Y-82476190D01*
X38623511Y-82380952D01*
X38575892Y-82333333D01*
X38480654Y-82285714D01*
X38290178Y-82285714D01*
X38194940Y-82333333D01*
X37290178Y-82952380D02*
X37290178Y-82428571D01*
X37337797Y-82333333D01*
X37433035Y-82285714D01*
X37623511Y-82285714D01*
X37718750Y-82333333D01*
X37290178Y-82904761D02*
X37385416Y-82952380D01*
X37623511Y-82952380D01*
X37718750Y-82904761D01*
X37766369Y-82809523D01*
X37766369Y-82714285D01*
X37718750Y-82619047D01*
X37623511Y-82571428D01*
X37385416Y-82571428D01*
X37290178Y-82523809D01*
X36956845Y-82285714D02*
X36575892Y-82285714D01*
X36813988Y-81952380D02*
X36813988Y-82809523D01*
X36766369Y-82904761D01*
X36671130Y-82952380D01*
X36575892Y-82952380D01*
X35813988Y-82952380D02*
X35813988Y-82428571D01*
X35861607Y-82333333D01*
X35956845Y-82285714D01*
X36147321Y-82285714D01*
X36242559Y-82333333D01*
X35813988Y-82904761D02*
X35909226Y-82952380D01*
X36147321Y-82952380D01*
X36242559Y-82904761D01*
X36290178Y-82809523D01*
X36290178Y-82714285D01*
X36242559Y-82619047D01*
X36147321Y-82571428D01*
X35909226Y-82571428D01*
X35813988Y-82523809D01*
X38252083Y-79352380D02*
X37918750Y-80352380D01*
X37585416Y-79352380D01*
X36680654Y-80257142D02*
X36728273Y-80304761D01*
X36871130Y-80352380D01*
X36966369Y-80352380D01*
X37109226Y-80304761D01*
X37204464Y-80209523D01*
X37252083Y-80114285D01*
X37299702Y-79923809D01*
X37299702Y-79780952D01*
X37252083Y-79590476D01*
X37204464Y-79495238D01*
X37109226Y-79400000D01*
X36966369Y-79352380D01*
X36871130Y-79352380D01*
X36728273Y-79400000D01*
X36680654Y-79447619D01*
X35680654Y-80257142D02*
X35728273Y-80304761D01*
X35871130Y-80352380D01*
X35966369Y-80352380D01*
X36109226Y-80304761D01*
X36204464Y-80209523D01*
X36252083Y-80114285D01*
X36299702Y-79923809D01*
X36299702Y-79780952D01*
X36252083Y-79590476D01*
X36204464Y-79495238D01*
X36109226Y-79400000D01*
X35966369Y-79352380D01*
X35871130Y-79352380D01*
X35728273Y-79400000D01*
X35680654Y-79447619D01*
D11*
X234631250Y-154750000D02*
G75*
G03X234631250Y-154750000I-100000J0D01*
G01*
X251031250Y-154750000D02*
G75*
G03X251031250Y-154750000I-100000J0D01*
G01*
X242131250Y-156750000D02*
G75*
G03X242131250Y-156750000I-100000J0D01*
G01*
D12*
X274686964Y-154526857D02*
X274229821Y-154526857D01*
X274515535Y-154126857D02*
X274515535Y-155155428D01*
X274458392Y-155269714D01*
X274344107Y-155326857D01*
X274229821Y-155326857D01*
X273829821Y-155326857D02*
X273829821Y-154526857D01*
X273829821Y-154126857D02*
X273886964Y-154184000D01*
X273829821Y-154241142D01*
X273772678Y-154184000D01*
X273829821Y-154126857D01*
X273829821Y-154241142D01*
X273429821Y-154526857D02*
X272972678Y-154526857D01*
X273258392Y-154126857D02*
X273258392Y-155155428D01*
X273201250Y-155269714D01*
X273086964Y-155326857D01*
X272972678Y-155326857D01*
X272401250Y-155326857D02*
X272515535Y-155269714D01*
X272572678Y-155155428D01*
X272572678Y-154126857D01*
X271486964Y-155269714D02*
X271601250Y-155326857D01*
X271829821Y-155326857D01*
X271944107Y-155269714D01*
X272001250Y-155155428D01*
X272001250Y-154698285D01*
X271944107Y-154584000D01*
X271829821Y-154526857D01*
X271601250Y-154526857D01*
X271486964Y-154584000D01*
X271429821Y-154698285D01*
X271429821Y-154812571D01*
X272001250Y-154926857D01*
X270915535Y-155212571D02*
X270858392Y-155269714D01*
X270915535Y-155326857D01*
X270972678Y-155269714D01*
X270915535Y-155212571D01*
X270915535Y-155326857D01*
X270915535Y-154584000D02*
X270858392Y-154641142D01*
X270915535Y-154698285D01*
X270972678Y-154641142D01*
X270915535Y-154584000D01*
X270915535Y-154698285D01*
X268629821Y-155441142D02*
X268744107Y-155384000D01*
X268858392Y-155269714D01*
X269029821Y-155098285D01*
X269144107Y-155041142D01*
X269258392Y-155041142D01*
X269201250Y-155326857D02*
X269315535Y-155269714D01*
X269429821Y-155155428D01*
X269486964Y-154926857D01*
X269486964Y-154526857D01*
X269429821Y-154298285D01*
X269315535Y-154184000D01*
X269201250Y-154126857D01*
X268972678Y-154126857D01*
X268858392Y-154184000D01*
X268744107Y-154298285D01*
X268686964Y-154526857D01*
X268686964Y-154926857D01*
X268744107Y-155155428D01*
X268858392Y-155269714D01*
X268972678Y-155326857D01*
X269201250Y-155326857D01*
X267658392Y-154526857D02*
X267658392Y-155326857D01*
X268172678Y-154526857D02*
X268172678Y-155155428D01*
X268115535Y-155269714D01*
X268001250Y-155326857D01*
X267829821Y-155326857D01*
X267715535Y-155269714D01*
X267658392Y-155212571D01*
X266572678Y-155326857D02*
X266572678Y-154698285D01*
X266629821Y-154584000D01*
X266744107Y-154526857D01*
X266972678Y-154526857D01*
X267086964Y-154584000D01*
X266572678Y-155269714D02*
X266686964Y-155326857D01*
X266972678Y-155326857D01*
X267086964Y-155269714D01*
X267144107Y-155155428D01*
X267144107Y-155041142D01*
X267086964Y-154926857D01*
X266972678Y-154869714D01*
X266686964Y-154869714D01*
X266572678Y-154812571D01*
X265486964Y-155326857D02*
X265486964Y-154126857D01*
X265486964Y-155269714D02*
X265601250Y-155326857D01*
X265829821Y-155326857D01*
X265944107Y-155269714D01*
X266001250Y-155212571D01*
X266058392Y-155098285D01*
X266058392Y-154755428D01*
X266001250Y-154641142D01*
X265944107Y-154584000D01*
X265829821Y-154526857D01*
X265601250Y-154526857D01*
X265486964Y-154584000D01*
X264915535Y-155326857D02*
X264915535Y-154526857D01*
X264915535Y-154755428D02*
X264858392Y-154641142D01*
X264801250Y-154584000D01*
X264686964Y-154526857D01*
X264572678Y-154526857D01*
X263658392Y-155326857D02*
X263658392Y-154698285D01*
X263715535Y-154584000D01*
X263829821Y-154526857D01*
X264058392Y-154526857D01*
X264172678Y-154584000D01*
X263658392Y-155269714D02*
X263772678Y-155326857D01*
X264058392Y-155326857D01*
X264172678Y-155269714D01*
X264229821Y-155155428D01*
X264229821Y-155041142D01*
X264172678Y-154926857D01*
X264058392Y-154869714D01*
X263772678Y-154869714D01*
X263658392Y-154812571D01*
X263086964Y-154526857D02*
X263086964Y-155326857D01*
X263086964Y-154641142D02*
X263029821Y-154584000D01*
X262915535Y-154526857D01*
X262744107Y-154526857D01*
X262629821Y-154584000D01*
X262572678Y-154698285D01*
X262572678Y-155326857D01*
X262172678Y-154526857D02*
X261715535Y-154526857D01*
X262001250Y-154126857D02*
X262001250Y-155155428D01*
X261944107Y-155269714D01*
X261829821Y-155326857D01*
X261715535Y-155326857D01*
X260401250Y-155326857D02*
X260401250Y-154126857D01*
X260286964Y-154869714D02*
X259944107Y-155326857D01*
X259944107Y-154526857D02*
X260401250Y-154984000D01*
X258972678Y-155269714D02*
X259086964Y-155326857D01*
X259315535Y-155326857D01*
X259429821Y-155269714D01*
X259486964Y-155155428D01*
X259486964Y-154698285D01*
X259429821Y-154584000D01*
X259315535Y-154526857D01*
X259086964Y-154526857D01*
X258972678Y-154584000D01*
X258915535Y-154698285D01*
X258915535Y-154812571D01*
X259486964Y-154926857D01*
X258515535Y-154526857D02*
X258229821Y-155326857D01*
X257944107Y-154526857D02*
X258229821Y-155326857D01*
X258344107Y-155612571D01*
X258401250Y-155669714D01*
X258515535Y-155726857D01*
X257486964Y-155326857D02*
X257486964Y-154126857D01*
X257486964Y-154584000D02*
X257372678Y-154526857D01*
X257144107Y-154526857D01*
X257029821Y-154584000D01*
X256972678Y-154641142D01*
X256915535Y-154755428D01*
X256915535Y-155098285D01*
X256972678Y-155212571D01*
X257029821Y-155269714D01*
X257144107Y-155326857D01*
X257372678Y-155326857D01*
X257486964Y-155269714D01*
X256229821Y-155326857D02*
X256344107Y-155269714D01*
X256401250Y-155212571D01*
X256458392Y-155098285D01*
X256458392Y-154755428D01*
X256401250Y-154641142D01*
X256344107Y-154584000D01*
X256229821Y-154526857D01*
X256058392Y-154526857D01*
X255944107Y-154584000D01*
X255886964Y-154641142D01*
X255829821Y-154755428D01*
X255829821Y-155098285D01*
X255886964Y-155212571D01*
X255944107Y-155269714D01*
X256058392Y-155326857D01*
X256229821Y-155326857D01*
X254801250Y-155326857D02*
X254801250Y-154698285D01*
X254858392Y-154584000D01*
X254972678Y-154526857D01*
X255201250Y-154526857D01*
X255315535Y-154584000D01*
X254801250Y-155269714D02*
X254915535Y-155326857D01*
X255201250Y-155326857D01*
X255315535Y-155269714D01*
X255372678Y-155155428D01*
X255372678Y-155041142D01*
X255315535Y-154926857D01*
X255201250Y-154869714D01*
X254915535Y-154869714D01*
X254801250Y-154812571D01*
X254229821Y-155326857D02*
X254229821Y-154526857D01*
X254229821Y-154755428D02*
X254172678Y-154641142D01*
X254115535Y-154584000D01*
X254001250Y-154526857D01*
X253886964Y-154526857D01*
X252972678Y-155326857D02*
X252972678Y-154126857D01*
X252972678Y-155269714D02*
X253086964Y-155326857D01*
X253315535Y-155326857D01*
X253429821Y-155269714D01*
X253486964Y-155212571D01*
X253544107Y-155098285D01*
X253544107Y-154755428D01*
X253486964Y-154641142D01*
X253429821Y-154584000D01*
X253315535Y-154526857D01*
X253086964Y-154526857D01*
X252972678Y-154584000D01*
X248744107Y-155326857D02*
X248744107Y-154526857D01*
X248744107Y-154126857D02*
X248801250Y-154184000D01*
X248744107Y-154241142D01*
X248686964Y-154184000D01*
X248744107Y-154126857D01*
X248744107Y-154241142D01*
X248344107Y-154526857D02*
X247886964Y-154526857D01*
X248172678Y-154126857D02*
X248172678Y-155155428D01*
X248115535Y-155269714D01*
X248001250Y-155326857D01*
X247886964Y-155326857D01*
X247029821Y-155269714D02*
X247144107Y-155326857D01*
X247372678Y-155326857D01*
X247486964Y-155269714D01*
X247544107Y-155155428D01*
X247544107Y-154698285D01*
X247486964Y-154584000D01*
X247372678Y-154526857D01*
X247144107Y-154526857D01*
X247029821Y-154584000D01*
X246972678Y-154698285D01*
X246972678Y-154812571D01*
X247544107Y-154926857D01*
X246458392Y-155326857D02*
X246458392Y-154526857D01*
X246458392Y-154641142D02*
X246401250Y-154584000D01*
X246286964Y-154526857D01*
X246115535Y-154526857D01*
X246001250Y-154584000D01*
X245944107Y-154698285D01*
X245944107Y-155326857D01*
X245944107Y-154698285D02*
X245886964Y-154584000D01*
X245772678Y-154526857D01*
X245601250Y-154526857D01*
X245486964Y-154584000D01*
X245429821Y-154698285D01*
X245429821Y-155326857D01*
X244858392Y-155212571D02*
X244801250Y-155269714D01*
X244858392Y-155326857D01*
X244915535Y-155269714D01*
X244858392Y-155212571D01*
X244858392Y-155326857D01*
X244858392Y-154584000D02*
X244801250Y-154641142D01*
X244858392Y-154698285D01*
X244915535Y-154641142D01*
X244858392Y-154584000D01*
X244858392Y-154698285D01*
X243544107Y-154526857D02*
X243086964Y-154526857D01*
X243372678Y-154126857D02*
X243372678Y-155155428D01*
X243315535Y-155269714D01*
X243201250Y-155326857D01*
X243086964Y-155326857D01*
X242515535Y-155326857D02*
X242629821Y-155269714D01*
X242686964Y-155212571D01*
X242744107Y-155098285D01*
X242744107Y-154755428D01*
X242686964Y-154641142D01*
X242629821Y-154584000D01*
X242515535Y-154526857D01*
X242344107Y-154526857D01*
X242229821Y-154584000D01*
X242172678Y-154641142D01*
X242115535Y-154755428D01*
X242115535Y-155098285D01*
X242172678Y-155212571D01*
X242229821Y-155269714D01*
X242344107Y-155326857D01*
X242515535Y-155326857D01*
X241601250Y-154526857D02*
X241601250Y-155726857D01*
X241601250Y-154584000D02*
X241486964Y-154526857D01*
X241258392Y-154526857D01*
X241144107Y-154584000D01*
X241086964Y-154641142D01*
X241029821Y-154755428D01*
X241029821Y-155098285D01*
X241086964Y-155212571D01*
X241144107Y-155269714D01*
X241258392Y-155326857D01*
X241486964Y-155326857D01*
X241601250Y-155269714D01*
X239601250Y-155326857D02*
X239601250Y-154126857D01*
X239144107Y-154126857D01*
X239029821Y-154184000D01*
X238972678Y-154241142D01*
X238915535Y-154355428D01*
X238915535Y-154526857D01*
X238972678Y-154641142D01*
X239029821Y-154698285D01*
X239144107Y-154755428D01*
X239601250Y-154755428D01*
X237715535Y-155212571D02*
X237772678Y-155269714D01*
X237944107Y-155326857D01*
X238058392Y-155326857D01*
X238229821Y-155269714D01*
X238344107Y-155155428D01*
X238401250Y-155041142D01*
X238458392Y-154812571D01*
X238458392Y-154641142D01*
X238401250Y-154412571D01*
X238344107Y-154298285D01*
X238229821Y-154184000D01*
X238058392Y-154126857D01*
X237944107Y-154126857D01*
X237772678Y-154184000D01*
X237715535Y-154241142D01*
X236801250Y-154698285D02*
X236629821Y-154755428D01*
X236572678Y-154812571D01*
X236515535Y-154926857D01*
X236515535Y-155098285D01*
X236572678Y-155212571D01*
X236629821Y-155269714D01*
X236744107Y-155326857D01*
X237201250Y-155326857D01*
X237201250Y-154126857D01*
X236801250Y-154126857D01*
X236686964Y-154184000D01*
X236629821Y-154241142D01*
X236572678Y-154355428D01*
X236572678Y-154469714D01*
X236629821Y-154584000D01*
X236686964Y-154641142D01*
X236801250Y-154698285D01*
X237201250Y-154698285D01*
X232458392Y-154526857D02*
X232172678Y-155326857D01*
X231886964Y-154526857D01*
X230972678Y-155269714D02*
X231086964Y-155326857D01*
X231315535Y-155326857D01*
X231429821Y-155269714D01*
X231486964Y-155155428D01*
X231486964Y-154698285D01*
X231429821Y-154584000D01*
X231315535Y-154526857D01*
X231086964Y-154526857D01*
X230972678Y-154584000D01*
X230915535Y-154698285D01*
X230915535Y-154812571D01*
X231486964Y-154926857D01*
X230401250Y-155326857D02*
X230401250Y-154526857D01*
X230401250Y-154755428D02*
X230344107Y-154641142D01*
X230286964Y-154584000D01*
X230172678Y-154526857D01*
X230058392Y-154526857D01*
X229715535Y-155269714D02*
X229601250Y-155326857D01*
X229372678Y-155326857D01*
X229258392Y-155269714D01*
X229201250Y-155155428D01*
X229201250Y-155098285D01*
X229258392Y-154984000D01*
X229372678Y-154926857D01*
X229544107Y-154926857D01*
X229658392Y-154869714D01*
X229715535Y-154755428D01*
X229715535Y-154698285D01*
X229658392Y-154584000D01*
X229544107Y-154526857D01*
X229372678Y-154526857D01*
X229258392Y-154584000D01*
X228686964Y-155326857D02*
X228686964Y-154526857D01*
X228686964Y-154126857D02*
X228744107Y-154184000D01*
X228686964Y-154241142D01*
X228629821Y-154184000D01*
X228686964Y-154126857D01*
X228686964Y-154241142D01*
X227944107Y-155326857D02*
X228058392Y-155269714D01*
X228115535Y-155212571D01*
X228172678Y-155098285D01*
X228172678Y-154755428D01*
X228115535Y-154641142D01*
X228058392Y-154584000D01*
X227944107Y-154526857D01*
X227772678Y-154526857D01*
X227658392Y-154584000D01*
X227601250Y-154641142D01*
X227544107Y-154755428D01*
X227544107Y-155098285D01*
X227601250Y-155212571D01*
X227658392Y-155269714D01*
X227772678Y-155326857D01*
X227944107Y-155326857D01*
X227029821Y-154526857D02*
X227029821Y-155326857D01*
X227029821Y-154641142D02*
X226972678Y-154584000D01*
X226858392Y-154526857D01*
X226686964Y-154526857D01*
X226572678Y-154584000D01*
X226515535Y-154698285D01*
X226515535Y-155326857D01*
X225944107Y-155212571D02*
X225886964Y-155269714D01*
X225944107Y-155326857D01*
X226001250Y-155269714D01*
X225944107Y-155212571D01*
X225944107Y-155326857D01*
X225944107Y-154584000D02*
X225886964Y-154641142D01*
X225944107Y-154698285D01*
X226001250Y-154641142D01*
X225944107Y-154584000D01*
X225944107Y-154698285D01*
X224458392Y-154698285D02*
X224058392Y-154698285D01*
X223886964Y-155326857D02*
X224458392Y-155326857D01*
X224458392Y-154126857D01*
X223886964Y-154126857D01*
X223372678Y-154869714D02*
X222458392Y-154869714D01*
X221201250Y-155212571D02*
X221258392Y-155269714D01*
X221429821Y-155326857D01*
X221544107Y-155326857D01*
X221715535Y-155269714D01*
X221829821Y-155155428D01*
X221886964Y-155041142D01*
X221944107Y-154812571D01*
X221944107Y-154641142D01*
X221886964Y-154412571D01*
X221829821Y-154298285D01*
X221715535Y-154184000D01*
X221544107Y-154126857D01*
X221429821Y-154126857D01*
X221258392Y-154184000D01*
X221201250Y-154241142D01*
X220972678Y-155441142D02*
X220058392Y-155441142D01*
X219886964Y-154526857D02*
X219601250Y-155326857D01*
X219315535Y-154526857D01*
X218229821Y-155326857D02*
X218915535Y-155326857D01*
X218572678Y-155326857D02*
X218572678Y-154126857D01*
X218686964Y-154298285D01*
X218801250Y-154412571D01*
X218915535Y-154469714D01*
X217715535Y-155212571D02*
X217658392Y-155269714D01*
X217715535Y-155326857D01*
X217772678Y-155269714D01*
X217715535Y-155212571D01*
X217715535Y-155326857D01*
X217258392Y-154126857D02*
X216515535Y-154126857D01*
X216915535Y-154584000D01*
X216744107Y-154584000D01*
X216629821Y-154641142D01*
X216572678Y-154698285D01*
X216515535Y-154812571D01*
X216515535Y-155098285D01*
X216572678Y-155212571D01*
X216629821Y-155269714D01*
X216744107Y-155326857D01*
X217086964Y-155326857D01*
X217201250Y-155269714D01*
X217258392Y-155212571D01*
X274001250Y-157258857D02*
X274001250Y-156058857D01*
X274001250Y-157201714D02*
X274115535Y-157258857D01*
X274344107Y-157258857D01*
X274458392Y-157201714D01*
X274515535Y-157144571D01*
X274572678Y-157030285D01*
X274572678Y-156687428D01*
X274515535Y-156573142D01*
X274458392Y-156516000D01*
X274344107Y-156458857D01*
X274115535Y-156458857D01*
X274001250Y-156516000D01*
X272972678Y-157201714D02*
X273086964Y-157258857D01*
X273315535Y-157258857D01*
X273429821Y-157201714D01*
X273486964Y-157087428D01*
X273486964Y-156630285D01*
X273429821Y-156516000D01*
X273315535Y-156458857D01*
X273086964Y-156458857D01*
X272972678Y-156516000D01*
X272915535Y-156630285D01*
X272915535Y-156744571D01*
X273486964Y-156858857D01*
X272458392Y-157201714D02*
X272344107Y-157258857D01*
X272115535Y-157258857D01*
X272001250Y-157201714D01*
X271944107Y-157087428D01*
X271944107Y-157030285D01*
X272001250Y-156916000D01*
X272115535Y-156858857D01*
X272286964Y-156858857D01*
X272401250Y-156801714D01*
X272458392Y-156687428D01*
X272458392Y-156630285D01*
X272401250Y-156516000D01*
X272286964Y-156458857D01*
X272115535Y-156458857D01*
X272001250Y-156516000D01*
X271429821Y-157258857D02*
X271429821Y-156458857D01*
X271429821Y-156058857D02*
X271486964Y-156116000D01*
X271429821Y-156173142D01*
X271372678Y-156116000D01*
X271429821Y-156058857D01*
X271429821Y-156173142D01*
X270344107Y-156458857D02*
X270344107Y-157430285D01*
X270401250Y-157544571D01*
X270458392Y-157601714D01*
X270572678Y-157658857D01*
X270744107Y-157658857D01*
X270858392Y-157601714D01*
X270344107Y-157201714D02*
X270458392Y-157258857D01*
X270686964Y-157258857D01*
X270801250Y-157201714D01*
X270858392Y-157144571D01*
X270915535Y-157030285D01*
X270915535Y-156687428D01*
X270858392Y-156573142D01*
X270801250Y-156516000D01*
X270686964Y-156458857D01*
X270458392Y-156458857D01*
X270344107Y-156516000D01*
X269772678Y-156458857D02*
X269772678Y-157258857D01*
X269772678Y-156573142D02*
X269715535Y-156516000D01*
X269601250Y-156458857D01*
X269429821Y-156458857D01*
X269315535Y-156516000D01*
X269258392Y-156630285D01*
X269258392Y-157258857D01*
X268229821Y-157201714D02*
X268344107Y-157258857D01*
X268572678Y-157258857D01*
X268686964Y-157201714D01*
X268744107Y-157087428D01*
X268744107Y-156630285D01*
X268686964Y-156516000D01*
X268572678Y-156458857D01*
X268344107Y-156458857D01*
X268229821Y-156516000D01*
X268172678Y-156630285D01*
X268172678Y-156744571D01*
X268744107Y-156858857D01*
X267658392Y-157258857D02*
X267658392Y-156458857D01*
X267658392Y-156687428D02*
X267601250Y-156573142D01*
X267544107Y-156516000D01*
X267429821Y-156458857D01*
X267315535Y-156458857D01*
X266915535Y-157144571D02*
X266858392Y-157201714D01*
X266915535Y-157258857D01*
X266972678Y-157201714D01*
X266915535Y-157144571D01*
X266915535Y-157258857D01*
X266915535Y-156516000D02*
X266858392Y-156573142D01*
X266915535Y-156630285D01*
X266972678Y-156573142D01*
X266915535Y-156516000D01*
X266915535Y-156630285D01*
X265029821Y-156630285D02*
X264858392Y-156687428D01*
X264801250Y-156744571D01*
X264744107Y-156858857D01*
X264744107Y-157030285D01*
X264801250Y-157144571D01*
X264858392Y-157201714D01*
X264972678Y-157258857D01*
X265429821Y-157258857D01*
X265429821Y-156058857D01*
X265029821Y-156058857D01*
X264915535Y-156116000D01*
X264858392Y-156173142D01*
X264801250Y-156287428D01*
X264801250Y-156401714D01*
X264858392Y-156516000D01*
X264915535Y-156573142D01*
X265029821Y-156630285D01*
X265429821Y-156630285D01*
X263772678Y-157201714D02*
X263886964Y-157258857D01*
X264115535Y-157258857D01*
X264229821Y-157201714D01*
X264286964Y-157087428D01*
X264286964Y-156630285D01*
X264229821Y-156516000D01*
X264115535Y-156458857D01*
X263886964Y-156458857D01*
X263772678Y-156516000D01*
X263715535Y-156630285D01*
X263715535Y-156744571D01*
X264286964Y-156858857D01*
X263201250Y-156458857D02*
X263201250Y-157258857D01*
X263201250Y-156573142D02*
X263144107Y-156516000D01*
X263029821Y-156458857D01*
X262858392Y-156458857D01*
X262744107Y-156516000D01*
X262686964Y-156630285D01*
X262686964Y-157258857D01*
X261601250Y-157201714D02*
X261715535Y-157258857D01*
X261944107Y-157258857D01*
X262058392Y-157201714D01*
X262115535Y-157144571D01*
X262172678Y-157030285D01*
X262172678Y-156687428D01*
X262115535Y-156573142D01*
X262058392Y-156516000D01*
X261944107Y-156458857D01*
X261715535Y-156458857D01*
X261601250Y-156516000D01*
X260629821Y-157201714D02*
X260744107Y-157258857D01*
X260972678Y-157258857D01*
X261086964Y-157201714D01*
X261144107Y-157087428D01*
X261144107Y-156630285D01*
X261086964Y-156516000D01*
X260972678Y-156458857D01*
X260744107Y-156458857D01*
X260629821Y-156516000D01*
X260572678Y-156630285D01*
X260572678Y-156744571D01*
X261144107Y-156858857D01*
X258744107Y-156630285D02*
X259144107Y-156630285D01*
X259144107Y-157258857D02*
X259144107Y-156058857D01*
X258572678Y-156058857D01*
X257601250Y-157258857D02*
X257601250Y-156630285D01*
X257658392Y-156516000D01*
X257772678Y-156458857D01*
X258001250Y-156458857D01*
X258115535Y-156516000D01*
X257601250Y-157201714D02*
X257715535Y-157258857D01*
X258001250Y-157258857D01*
X258115535Y-157201714D01*
X258172678Y-157087428D01*
X258172678Y-156973142D01*
X258115535Y-156858857D01*
X258001250Y-156801714D01*
X257715535Y-156801714D01*
X257601250Y-156744571D01*
X257029821Y-157258857D02*
X257029821Y-156458857D01*
X257029821Y-156687428D02*
X256972678Y-156573142D01*
X256915535Y-156516000D01*
X256801250Y-156458857D01*
X256686964Y-156458857D01*
X256286964Y-157258857D02*
X256286964Y-156058857D01*
X256172678Y-156801714D02*
X255829821Y-157258857D01*
X255829821Y-156458857D02*
X256286964Y-156916000D01*
X254801250Y-157258857D02*
X254801250Y-156630285D01*
X254858392Y-156516000D01*
X254972678Y-156458857D01*
X255201250Y-156458857D01*
X255315535Y-156516000D01*
X254801250Y-157201714D02*
X254915535Y-157258857D01*
X255201250Y-157258857D01*
X255315535Y-157201714D01*
X255372678Y-157087428D01*
X255372678Y-156973142D01*
X255315535Y-156858857D01*
X255201250Y-156801714D01*
X254915535Y-156801714D01*
X254801250Y-156744571D01*
X254286964Y-157201714D02*
X254172678Y-157258857D01*
X253944107Y-157258857D01*
X253829821Y-157201714D01*
X253772678Y-157087428D01*
X253772678Y-157030285D01*
X253829821Y-156916000D01*
X253944107Y-156858857D01*
X254115535Y-156858857D01*
X254229821Y-156801714D01*
X254286964Y-156687428D01*
X254286964Y-156630285D01*
X254229821Y-156516000D01*
X254115535Y-156458857D01*
X253944107Y-156458857D01*
X253829821Y-156516000D01*
X250915535Y-156458857D02*
X250915535Y-157258857D01*
X251429821Y-156458857D02*
X251429821Y-157087428D01*
X251372678Y-157201714D01*
X251258392Y-157258857D01*
X251086964Y-157258857D01*
X250972678Y-157201714D01*
X250915535Y-157144571D01*
X249486964Y-156001714D02*
X250515535Y-157544571D01*
X249086964Y-156630285D02*
X248686964Y-156630285D01*
X248515535Y-157258857D02*
X249086964Y-157258857D01*
X249086964Y-156058857D01*
X248515535Y-156058857D01*
X247486964Y-157258857D02*
X247486964Y-156630285D01*
X247544107Y-156516000D01*
X247658392Y-156458857D01*
X247886964Y-156458857D01*
X248001250Y-156516000D01*
X247486964Y-157201714D02*
X247601250Y-157258857D01*
X247886964Y-157258857D01*
X248001250Y-157201714D01*
X248058392Y-157087428D01*
X248058392Y-156973142D01*
X248001250Y-156858857D01*
X247886964Y-156801714D01*
X247601250Y-156801714D01*
X247486964Y-156744571D01*
X246744107Y-157258857D02*
X246858392Y-157201714D01*
X246915535Y-157087428D01*
X246915535Y-156058857D01*
X245772678Y-157258857D02*
X245772678Y-156058857D01*
X245772678Y-157201714D02*
X245886964Y-157258857D01*
X246115535Y-157258857D01*
X246229821Y-157201714D01*
X246286964Y-157144571D01*
X246344107Y-157030285D01*
X246344107Y-156687428D01*
X246286964Y-156573142D01*
X246229821Y-156516000D01*
X246115535Y-156458857D01*
X245886964Y-156458857D01*
X245772678Y-156516000D01*
X245201250Y-157258857D02*
X245201250Y-156458857D01*
X245201250Y-156058857D02*
X245258392Y-156116000D01*
X245201250Y-156173142D01*
X245144107Y-156116000D01*
X245201250Y-156058857D01*
X245201250Y-156173142D01*
X244629821Y-156458857D02*
X244629821Y-157258857D01*
X244629821Y-156573142D02*
X244572678Y-156516000D01*
X244458392Y-156458857D01*
X244286964Y-156458857D01*
X244172678Y-156516000D01*
X244115535Y-156630285D01*
X244115535Y-157258857D01*
X239372678Y-157258857D02*
X239372678Y-156058857D01*
X239372678Y-157201714D02*
X239486964Y-157258857D01*
X239715535Y-157258857D01*
X239829821Y-157201714D01*
X239886964Y-157144571D01*
X239944107Y-157030285D01*
X239944107Y-156687428D01*
X239886964Y-156573142D01*
X239829821Y-156516000D01*
X239715535Y-156458857D01*
X239486964Y-156458857D01*
X239372678Y-156516000D01*
X238286964Y-157258857D02*
X238286964Y-156630285D01*
X238344107Y-156516000D01*
X238458392Y-156458857D01*
X238686964Y-156458857D01*
X238801250Y-156516000D01*
X238286964Y-157201714D02*
X238401250Y-157258857D01*
X238686964Y-157258857D01*
X238801250Y-157201714D01*
X238858392Y-157087428D01*
X238858392Y-156973142D01*
X238801250Y-156858857D01*
X238686964Y-156801714D01*
X238401250Y-156801714D01*
X238286964Y-156744571D01*
X237886964Y-156458857D02*
X237429821Y-156458857D01*
X237715535Y-156058857D02*
X237715535Y-157087428D01*
X237658392Y-157201714D01*
X237544107Y-157258857D01*
X237429821Y-157258857D01*
X236572678Y-157201714D02*
X236686964Y-157258857D01*
X236915535Y-157258857D01*
X237029821Y-157201714D01*
X237086964Y-157087428D01*
X237086964Y-156630285D01*
X237029821Y-156516000D01*
X236915535Y-156458857D01*
X236686964Y-156458857D01*
X236572678Y-156516000D01*
X236515535Y-156630285D01*
X236515535Y-156744571D01*
X237086964Y-156858857D01*
X236001250Y-157144571D02*
X235944107Y-157201714D01*
X236001250Y-157258857D01*
X236058392Y-157201714D01*
X236001250Y-157144571D01*
X236001250Y-157258857D01*
X236001250Y-156516000D02*
X235944107Y-156573142D01*
X236001250Y-156630285D01*
X236058392Y-156573142D01*
X236001250Y-156516000D01*
X236001250Y-156630285D01*
X233886964Y-157258857D02*
X234572678Y-157258857D01*
X234229821Y-157258857D02*
X234229821Y-156058857D01*
X234344107Y-156230285D01*
X234458392Y-156344571D01*
X234572678Y-156401714D01*
X233429821Y-156173142D02*
X233372678Y-156116000D01*
X233258392Y-156058857D01*
X232972678Y-156058857D01*
X232858392Y-156116000D01*
X232801250Y-156173142D01*
X232744107Y-156287428D01*
X232744107Y-156401714D01*
X232801250Y-156573142D01*
X233486964Y-157258857D01*
X232744107Y-157258857D01*
X232515535Y-157373142D02*
X231601250Y-157373142D01*
X231372678Y-156173142D02*
X231315535Y-156116000D01*
X231201250Y-156058857D01*
X230915535Y-156058857D01*
X230801250Y-156116000D01*
X230744107Y-156173142D01*
X230686964Y-156287428D01*
X230686964Y-156401714D01*
X230744107Y-156573142D01*
X231429821Y-157258857D01*
X230686964Y-157258857D01*
X229944107Y-156058857D02*
X229829821Y-156058857D01*
X229715535Y-156116000D01*
X229658392Y-156173142D01*
X229601250Y-156287428D01*
X229544107Y-156516000D01*
X229544107Y-156801714D01*
X229601250Y-157030285D01*
X229658392Y-157144571D01*
X229715535Y-157201714D01*
X229829821Y-157258857D01*
X229944107Y-157258857D01*
X230058392Y-157201714D01*
X230115535Y-157144571D01*
X230172678Y-157030285D01*
X230229821Y-156801714D01*
X230229821Y-156516000D01*
X230172678Y-156287428D01*
X230115535Y-156173142D01*
X230058392Y-156116000D01*
X229944107Y-156058857D01*
X228401250Y-157258857D02*
X229086964Y-157258857D01*
X228744107Y-157258857D02*
X228744107Y-156058857D01*
X228858392Y-156230285D01*
X228972678Y-156344571D01*
X229086964Y-156401714D01*
X227829821Y-157258857D02*
X227601250Y-157258857D01*
X227486964Y-157201714D01*
X227429821Y-157144571D01*
X227315535Y-156973142D01*
X227258392Y-156744571D01*
X227258392Y-156287428D01*
X227315535Y-156173142D01*
X227372678Y-156116000D01*
X227486964Y-156058857D01*
X227715535Y-156058857D01*
X227829821Y-156116000D01*
X227886964Y-156173142D01*
X227944107Y-156287428D01*
X227944107Y-156573142D01*
X227886964Y-156687428D01*
X227829821Y-156744571D01*
X227715535Y-156801714D01*
X227486964Y-156801714D01*
X227372678Y-156744571D01*
X227315535Y-156687428D01*
X227258392Y-156573142D01*
D10*
G36*
X30849030Y-43405365D02*
G01*
X30749030Y-43405365D01*
X30749030Y-42905365D01*
X30849030Y-42905365D01*
X30849030Y-43405365D01*
X30849030Y-43405365D01*
G37*
X30849030Y-43405365D02*
X30749030Y-43405365D01*
X30749030Y-42905365D01*
X30849030Y-42905365D01*
X30849030Y-43405365D01*
G36*
X31049030Y-43405365D02*
G01*
X30749030Y-43405365D01*
X30749030Y-43305365D01*
X31049030Y-43305365D01*
X31049030Y-43405365D01*
X31049030Y-43405365D01*
G37*
X31049030Y-43405365D02*
X30749030Y-43405365D01*
X30749030Y-43305365D01*
X31049030Y-43305365D01*
X31049030Y-43405365D01*
G36*
X31549030Y-43405365D02*
G01*
X31349030Y-43405365D01*
X31349030Y-43305365D01*
X31549030Y-43305365D01*
X31549030Y-43405365D01*
X31549030Y-43405365D01*
G37*
X31549030Y-43405365D02*
X31349030Y-43405365D01*
X31349030Y-43305365D01*
X31549030Y-43305365D01*
X31549030Y-43405365D01*
G36*
X31549030Y-43005365D02*
G01*
X30749030Y-43005365D01*
X30749030Y-42905365D01*
X31549030Y-42905365D01*
X31549030Y-43005365D01*
X31549030Y-43005365D01*
G37*
X31549030Y-43005365D02*
X30749030Y-43005365D01*
X30749030Y-42905365D01*
X31549030Y-42905365D01*
X31549030Y-43005365D01*
G36*
X31249030Y-43205365D02*
G01*
X31149030Y-43205365D01*
X31149030Y-43105365D01*
X31249030Y-43105365D01*
X31249030Y-43205365D01*
X31249030Y-43205365D01*
G37*
X31249030Y-43205365D02*
X31149030Y-43205365D01*
X31149030Y-43105365D01*
X31249030Y-43105365D01*
X31249030Y-43205365D01*
X31971130Y-79652380D02*
X31304464Y-79652380D01*
X31494940Y-79652380D02*
X31399702Y-79700000D01*
X31352083Y-79747619D01*
X31304464Y-79842857D01*
X31304464Y-79938095D01*
X31304464Y-80700000D02*
X32113988Y-80700000D01*
X32209226Y-80652380D01*
X32256845Y-80604761D01*
X32304464Y-80509523D01*
X32304464Y-80366666D01*
X32256845Y-80271428D01*
X31923511Y-80700000D02*
X31971130Y-80604761D01*
X31971130Y-80414285D01*
X31923511Y-80319047D01*
X31875892Y-80271428D01*
X31780654Y-80223809D01*
X31494940Y-80223809D01*
X31399702Y-80271428D01*
X31352083Y-80319047D01*
X31304464Y-80414285D01*
X31304464Y-80604761D01*
X31352083Y-80700000D01*
X31971130Y-81176190D02*
X30971130Y-81176190D01*
X31352083Y-81176190D02*
X31304464Y-81271428D01*
X31304464Y-81461904D01*
X31352083Y-81557142D01*
X31399702Y-81604761D01*
X31494940Y-81652380D01*
X31780654Y-81652380D01*
X31875892Y-81604761D01*
X31923511Y-81557142D01*
X31971130Y-81461904D01*
X31971130Y-81271428D01*
X31923511Y-81176190D01*
X31923511Y-82795238D02*
X31971130Y-82890476D01*
X31971130Y-83080952D01*
X31923511Y-83176190D01*
X31828273Y-83223809D01*
X31780654Y-83223809D01*
X31685416Y-83176190D01*
X31637797Y-83080952D01*
X31637797Y-82938095D01*
X31590178Y-82842857D01*
X31494940Y-82795238D01*
X31447321Y-82795238D01*
X31352083Y-82842857D01*
X31304464Y-82938095D01*
X31304464Y-83080952D01*
X31352083Y-83176190D01*
X31304464Y-83509523D02*
X31304464Y-83890476D01*
X30971130Y-83652380D02*
X31828273Y-83652380D01*
X31923511Y-83700000D01*
X31971130Y-83795238D01*
X31971130Y-83890476D01*
X31971130Y-84223809D02*
X31304464Y-84223809D01*
X31494940Y-84223809D02*
X31399702Y-84271428D01*
X31352083Y-84319047D01*
X31304464Y-84414285D01*
X31304464Y-84509523D01*
X31971130Y-84842857D02*
X31304464Y-84842857D01*
X30971130Y-84842857D02*
X31018750Y-84795238D01*
X31066369Y-84842857D01*
X31018750Y-84890476D01*
X30971130Y-84842857D01*
X31066369Y-84842857D01*
X31304464Y-85319047D02*
X32304464Y-85319047D01*
X31352083Y-85319047D02*
X31304464Y-85414285D01*
X31304464Y-85604761D01*
X31352083Y-85700000D01*
X31399702Y-85747619D01*
X31494940Y-85795238D01*
X31780654Y-85795238D01*
X31875892Y-85747619D01*
X31923511Y-85700000D01*
X31971130Y-85604761D01*
X31971130Y-85414285D01*
X31923511Y-85319047D01*
X52861904Y-51199523D02*
X52061904Y-51199523D01*
X52061904Y-51390000D01*
X52100000Y-51504285D01*
X52176190Y-51580476D01*
X52252380Y-51618571D01*
X52404761Y-51656666D01*
X52519047Y-51656666D01*
X52671428Y-51618571D01*
X52747619Y-51580476D01*
X52823809Y-51504285D01*
X52861904Y-51390000D01*
X52861904Y-51199523D01*
X52061904Y-52380476D02*
X52061904Y-51999523D01*
X52442857Y-51961428D01*
X52404761Y-51999523D01*
X52366666Y-52075714D01*
X52366666Y-52266190D01*
X52404761Y-52342380D01*
X52442857Y-52380476D01*
X52519047Y-52418571D01*
X52709523Y-52418571D01*
X52785714Y-52380476D01*
X52823809Y-52342380D01*
X52861904Y-52266190D01*
X52861904Y-52075714D01*
X52823809Y-51999523D01*
X52785714Y-51961428D01*
X52442857Y-46443333D02*
X52442857Y-46176666D01*
X52861904Y-46176666D02*
X52061904Y-46176666D01*
X52061904Y-46557619D01*
X52861904Y-47281428D02*
X52861904Y-46824285D01*
X52861904Y-47052857D02*
X52061904Y-47052857D01*
X52176190Y-46976666D01*
X52252380Y-46900476D01*
X52290476Y-46824285D01*
X52785714Y-49116666D02*
X52823809Y-49078571D01*
X52861904Y-48964285D01*
X52861904Y-48888095D01*
X52823809Y-48773809D01*
X52747619Y-48697619D01*
X52671428Y-48659523D01*
X52519047Y-48621428D01*
X52404761Y-48621428D01*
X52252380Y-48659523D01*
X52176190Y-48697619D01*
X52100000Y-48773809D01*
X52061904Y-48888095D01*
X52061904Y-48964285D01*
X52100000Y-49078571D01*
X52138095Y-49116666D01*
X52061904Y-49383333D02*
X52061904Y-49916666D01*
X52861904Y-49573809D01*
X52564297Y-42685008D02*
X52658578Y-42732148D01*
X52705719Y-42732148D01*
X52776429Y-42708578D01*
X52847140Y-42637867D01*
X52870710Y-42567157D01*
X52870710Y-42520016D01*
X52847140Y-42449306D01*
X52658578Y-42260744D01*
X52163603Y-42755719D01*
X52328595Y-42920710D01*
X52399306Y-42944280D01*
X52446446Y-42944280D01*
X52517157Y-42920710D01*
X52564297Y-42873570D01*
X52587867Y-42802859D01*
X52587867Y-42755719D01*
X52564297Y-42685008D01*
X52399306Y-42520016D01*
X52870710Y-43462825D02*
X52776429Y-43368544D01*
X52752859Y-43297834D01*
X52752859Y-43250693D01*
X52776429Y-43132842D01*
X52847140Y-43014991D01*
X53035702Y-42826429D01*
X53106412Y-42802859D01*
X53153553Y-42802859D01*
X53224264Y-42826429D01*
X53318544Y-42920710D01*
X53342115Y-42991421D01*
X53342115Y-43038561D01*
X53318544Y-43109272D01*
X53200693Y-43227123D01*
X53129983Y-43250693D01*
X53082842Y-43250693D01*
X53012132Y-43227123D01*
X52917851Y-43132842D01*
X52894280Y-43062132D01*
X52894280Y-43014991D01*
X52917851Y-42944280D01*
X52650000Y-44516666D02*
X52650000Y-44283333D01*
X53016666Y-44283333D02*
X52316666Y-44283333D01*
X52316666Y-44616666D01*
X52316666Y-45016666D02*
X52316666Y-45083333D01*
X52350000Y-45150000D01*
X52383333Y-45183333D01*
X52450000Y-45216666D01*
X52583333Y-45250000D01*
X52750000Y-45250000D01*
X52883333Y-45216666D01*
X52950000Y-45183333D01*
X52983333Y-45150000D01*
X53016666Y-45083333D01*
X53016666Y-45016666D01*
X52983333Y-44950000D01*
X52950000Y-44916666D01*
X52883333Y-44883333D01*
X52750000Y-44850000D01*
X52583333Y-44850000D01*
X52450000Y-44883333D01*
X52383333Y-44916666D01*
X52350000Y-44950000D01*
X52316666Y-45016666D01*
X52650000Y-53466666D02*
X52683333Y-53566666D01*
X52716666Y-53600000D01*
X52783333Y-53633333D01*
X52883333Y-53633333D01*
X52950000Y-53600000D01*
X52983333Y-53566666D01*
X53016666Y-53500000D01*
X53016666Y-53233333D01*
X52316666Y-53233333D01*
X52316666Y-53466666D01*
X52350000Y-53533333D01*
X52383333Y-53566666D01*
X52450000Y-53600000D01*
X52516666Y-53600000D01*
X52583333Y-53566666D01*
X52616666Y-53533333D01*
X52650000Y-53466666D01*
X52650000Y-53233333D01*
X52316666Y-53866666D02*
X52316666Y-54333333D01*
X53016666Y-54033333D01*
X31513809Y-43676666D02*
X31551904Y-43790952D01*
X31551904Y-43981428D01*
X31513809Y-44057619D01*
X31475714Y-44095714D01*
X31399523Y-44133809D01*
X31323333Y-44133809D01*
X31247142Y-44095714D01*
X31209047Y-44057619D01*
X31170952Y-43981428D01*
X31132857Y-43829047D01*
X31094761Y-43752857D01*
X31056666Y-43714761D01*
X30980476Y-43676666D01*
X30904285Y-43676666D01*
X30828095Y-43714761D01*
X30790000Y-43752857D01*
X30751904Y-43829047D01*
X30751904Y-44019523D01*
X30790000Y-44133809D01*
X30751904Y-44362380D02*
X30751904Y-44819523D01*
X31551904Y-44590952D02*
X30751904Y-44590952D01*
X25691904Y-50631395D02*
X25691904Y-51088538D01*
X26491904Y-50859967D02*
X25691904Y-50859967D01*
X25691904Y-51279014D02*
X26491904Y-51812348D01*
X25691904Y-51812348D02*
X26491904Y-51279014D01*
X25691904Y-52269491D02*
X25691904Y-52345681D01*
X25730000Y-52421872D01*
X25768095Y-52459967D01*
X25844285Y-52498062D01*
X25996666Y-52536157D01*
X26187142Y-52536157D01*
X26339523Y-52498062D01*
X26415714Y-52459967D01*
X26453809Y-52421872D01*
X26491904Y-52345681D01*
X26491904Y-52269491D01*
X26453809Y-52193300D01*
X26415714Y-52155205D01*
X26339523Y-52117110D01*
X26187142Y-52079014D01*
X25996666Y-52079014D01*
X25844285Y-52117110D01*
X25768095Y-52155205D01*
X25730000Y-52193300D01*
X25691904Y-52269491D01*
X25653809Y-53450443D02*
X26682380Y-52764729D01*
X26491904Y-53717110D02*
X25691904Y-53717110D01*
X25691904Y-53907586D01*
X25730000Y-54021872D01*
X25806190Y-54098062D01*
X25882380Y-54136157D01*
X26034761Y-54174252D01*
X26149047Y-54174252D01*
X26301428Y-54136157D01*
X26377619Y-54098062D01*
X26453809Y-54021872D01*
X26491904Y-53907586D01*
X26491904Y-53717110D01*
X25691904Y-54440919D02*
X25691904Y-54936157D01*
X25996666Y-54669491D01*
X25996666Y-54783776D01*
X26034761Y-54859967D01*
X26072857Y-54898062D01*
X26149047Y-54936157D01*
X26339523Y-54936157D01*
X26415714Y-54898062D01*
X26453809Y-54859967D01*
X26491904Y-54783776D01*
X26491904Y-54555205D01*
X26453809Y-54479014D01*
X26415714Y-54440919D01*
X51472857Y-43465190D02*
X51510952Y-43579476D01*
X51549047Y-43617571D01*
X51625238Y-43655666D01*
X51739523Y-43655666D01*
X51815714Y-43617571D01*
X51853809Y-43579476D01*
X51891904Y-43503285D01*
X51891904Y-43198523D01*
X51091904Y-43198523D01*
X51091904Y-43465190D01*
X51130000Y-43541380D01*
X51168095Y-43579476D01*
X51244285Y-43617571D01*
X51320476Y-43617571D01*
X51396666Y-43579476D01*
X51434761Y-43541380D01*
X51472857Y-43465190D01*
X51472857Y-43198523D01*
X51168095Y-43960428D02*
X51130000Y-43998523D01*
X51091904Y-44074714D01*
X51091904Y-44265190D01*
X51130000Y-44341380D01*
X51168095Y-44379476D01*
X51244285Y-44417571D01*
X51320476Y-44417571D01*
X51434761Y-44379476D01*
X51891904Y-43922333D01*
X51891904Y-44417571D01*
X43852857Y-43522333D02*
X43852857Y-43255666D01*
X44271904Y-43255666D02*
X43471904Y-43255666D01*
X43471904Y-43636619D01*
X43471904Y-43865190D02*
X43471904Y-44398523D01*
X44271904Y-44055666D01*
X41312857Y-43522333D02*
X41312857Y-43255666D01*
X41731904Y-43255666D02*
X40931904Y-43255666D01*
X40931904Y-43636619D01*
X40931904Y-44284238D02*
X40931904Y-44131857D01*
X40970000Y-44055666D01*
X41008095Y-44017571D01*
X41122380Y-43941380D01*
X41274761Y-43903285D01*
X41579523Y-43903285D01*
X41655714Y-43941380D01*
X41693809Y-43979476D01*
X41731904Y-44055666D01*
X41731904Y-44208047D01*
X41693809Y-44284238D01*
X41655714Y-44322333D01*
X41579523Y-44360428D01*
X41389047Y-44360428D01*
X41312857Y-44322333D01*
X41274761Y-44284238D01*
X41236666Y-44208047D01*
X41236666Y-44055666D01*
X41274761Y-43979476D01*
X41312857Y-43941380D01*
X41389047Y-43903285D01*
X38772857Y-43522333D02*
X38772857Y-43255666D01*
X39191904Y-43255666D02*
X38391904Y-43255666D01*
X38391904Y-43636619D01*
X38391904Y-44322333D02*
X38391904Y-43941380D01*
X38772857Y-43903285D01*
X38734761Y-43941380D01*
X38696666Y-44017571D01*
X38696666Y-44208047D01*
X38734761Y-44284238D01*
X38772857Y-44322333D01*
X38849047Y-44360428D01*
X39039523Y-44360428D01*
X39115714Y-44322333D01*
X39153809Y-44284238D01*
X39191904Y-44208047D01*
X39191904Y-44017571D01*
X39153809Y-43941380D01*
X39115714Y-43903285D01*
X26072857Y-43465190D02*
X26110952Y-43579476D01*
X26149047Y-43617571D01*
X26225238Y-43655666D01*
X26339523Y-43655666D01*
X26415714Y-43617571D01*
X26453809Y-43579476D01*
X26491904Y-43503285D01*
X26491904Y-43198523D01*
X25691904Y-43198523D01*
X25691904Y-43465190D01*
X25730000Y-43541380D01*
X25768095Y-43579476D01*
X25844285Y-43617571D01*
X25920476Y-43617571D01*
X25996666Y-43579476D01*
X26034761Y-43541380D01*
X26072857Y-43465190D01*
X26072857Y-43198523D01*
X25691904Y-44150904D02*
X25691904Y-44227095D01*
X25730000Y-44303285D01*
X25768095Y-44341380D01*
X25844285Y-44379476D01*
X25996666Y-44417571D01*
X26187142Y-44417571D01*
X26339523Y-44379476D01*
X26415714Y-44341380D01*
X26453809Y-44303285D01*
X26491904Y-44227095D01*
X26491904Y-44150904D01*
X26453809Y-44074714D01*
X26415714Y-44036619D01*
X26339523Y-43998523D01*
X26187142Y-43960428D01*
X25996666Y-43960428D01*
X25844285Y-43998523D01*
X25768095Y-44036619D01*
X25730000Y-44074714D01*
X25691904Y-44150904D01*
X28270000Y-43179476D02*
X28231904Y-43103285D01*
X28231904Y-42989000D01*
X28270000Y-42874714D01*
X28346190Y-42798523D01*
X28422380Y-42760428D01*
X28574761Y-42722333D01*
X28689047Y-42722333D01*
X28841428Y-42760428D01*
X28917619Y-42798523D01*
X28993809Y-42874714D01*
X29031904Y-42989000D01*
X29031904Y-43065190D01*
X28993809Y-43179476D01*
X28955714Y-43217571D01*
X28689047Y-43217571D01*
X28689047Y-43065190D01*
X29031904Y-43560428D02*
X28231904Y-43560428D01*
X29031904Y-44017571D01*
X28231904Y-44017571D01*
X29031904Y-44398523D02*
X28231904Y-44398523D01*
X28231904Y-44589000D01*
X28270000Y-44703285D01*
X28346190Y-44779476D01*
X28422380Y-44817571D01*
X28574761Y-44855666D01*
X28689047Y-44855666D01*
X28841428Y-44817571D01*
X28917619Y-44779476D01*
X28993809Y-44703285D01*
X29031904Y-44589000D01*
X29031904Y-44398523D01*
X33311904Y-42722333D02*
X34111904Y-42989000D01*
X33311904Y-43255666D01*
X34035714Y-43979476D02*
X34073809Y-43941380D01*
X34111904Y-43827095D01*
X34111904Y-43750904D01*
X34073809Y-43636619D01*
X33997619Y-43560428D01*
X33921428Y-43522333D01*
X33769047Y-43484238D01*
X33654761Y-43484238D01*
X33502380Y-43522333D01*
X33426190Y-43560428D01*
X33350000Y-43636619D01*
X33311904Y-43750904D01*
X33311904Y-43827095D01*
X33350000Y-43941380D01*
X33388095Y-43979476D01*
X34035714Y-44779476D02*
X34073809Y-44741380D01*
X34111904Y-44627095D01*
X34111904Y-44550904D01*
X34073809Y-44436619D01*
X33997619Y-44360428D01*
X33921428Y-44322333D01*
X33769047Y-44284238D01*
X33654761Y-44284238D01*
X33502380Y-44322333D01*
X33426190Y-44360428D01*
X33350000Y-44436619D01*
X33311904Y-44550904D01*
X33311904Y-44627095D01*
X33350000Y-44741380D01*
X33388095Y-44779476D01*
X36232857Y-43522333D02*
X36232857Y-43255666D01*
X36651904Y-43255666D02*
X35851904Y-43255666D01*
X35851904Y-43636619D01*
X36118571Y-44284238D02*
X36651904Y-44284238D01*
X35813809Y-44093761D02*
X36385238Y-43903285D01*
X36385238Y-44398523D01*
X46392857Y-43465190D02*
X46430952Y-43579476D01*
X46469047Y-43617571D01*
X46545238Y-43655666D01*
X46659523Y-43655666D01*
X46735714Y-43617571D01*
X46773809Y-43579476D01*
X46811904Y-43503285D01*
X46811904Y-43198523D01*
X46011904Y-43198523D01*
X46011904Y-43465190D01*
X46050000Y-43541380D01*
X46088095Y-43579476D01*
X46164285Y-43617571D01*
X46240476Y-43617571D01*
X46316666Y-43579476D01*
X46354761Y-43541380D01*
X46392857Y-43465190D01*
X46392857Y-43198523D01*
X46811904Y-44417571D02*
X46811904Y-43960428D01*
X46811904Y-44189000D02*
X46011904Y-44189000D01*
X46126190Y-44112809D01*
X46202380Y-44036619D01*
X46240476Y-43960428D01*
X48932857Y-43465190D02*
X48970952Y-43579476D01*
X49009047Y-43617571D01*
X49085238Y-43655666D01*
X49199523Y-43655666D01*
X49275714Y-43617571D01*
X49313809Y-43579476D01*
X49351904Y-43503285D01*
X49351904Y-43198523D01*
X48551904Y-43198523D01*
X48551904Y-43465190D01*
X48590000Y-43541380D01*
X48628095Y-43579476D01*
X48704285Y-43617571D01*
X48780476Y-43617571D01*
X48856666Y-43579476D01*
X48894761Y-43541380D01*
X48932857Y-43465190D01*
X48932857Y-43198523D01*
X48551904Y-43922333D02*
X48551904Y-44417571D01*
X48856666Y-44150904D01*
X48856666Y-44265190D01*
X48894761Y-44341380D01*
X48932857Y-44379476D01*
X49009047Y-44417571D01*
X49199523Y-44417571D01*
X49275714Y-44379476D01*
X49313809Y-44341380D01*
X49351904Y-44265190D01*
X49351904Y-44036619D01*
X49313809Y-43960428D01*
X49275714Y-43922333D01*
X52964991Y-55414297D02*
X52917851Y-55508578D01*
X52917851Y-55555719D01*
X52941421Y-55626429D01*
X53012132Y-55697140D01*
X53082842Y-55720710D01*
X53129983Y-55720710D01*
X53200693Y-55697140D01*
X53389255Y-55508578D01*
X52894280Y-55013603D01*
X52729289Y-55178595D01*
X52705719Y-55249306D01*
X52705719Y-55296446D01*
X52729289Y-55367157D01*
X52776429Y-55414297D01*
X52847140Y-55437867D01*
X52894280Y-55437867D01*
X52964991Y-55414297D01*
X53129983Y-55249306D01*
X52163603Y-55744280D02*
X52399306Y-55508578D01*
X52658578Y-55720710D01*
X52611438Y-55720710D01*
X52540727Y-55744280D01*
X52422876Y-55862132D01*
X52399306Y-55932842D01*
X52399306Y-55979983D01*
X52422876Y-56050693D01*
X52540727Y-56168544D01*
X52611438Y-56192115D01*
X52658578Y-56192115D01*
X52729289Y-56168544D01*
X52847140Y-56050693D01*
X52870710Y-55979983D01*
X52870710Y-55932842D01*
X51472857Y-54387190D02*
X51510952Y-54501476D01*
X51549047Y-54539571D01*
X51625238Y-54577666D01*
X51739523Y-54577666D01*
X51815714Y-54539571D01*
X51853809Y-54501476D01*
X51891904Y-54425285D01*
X51891904Y-54120523D01*
X51091904Y-54120523D01*
X51091904Y-54387190D01*
X51130000Y-54463380D01*
X51168095Y-54501476D01*
X51244285Y-54539571D01*
X51320476Y-54539571D01*
X51396666Y-54501476D01*
X51434761Y-54463380D01*
X51472857Y-54387190D01*
X51472857Y-54120523D01*
X51358571Y-55263380D02*
X51891904Y-55263380D01*
X51053809Y-55072904D02*
X51625238Y-54882428D01*
X51625238Y-55377666D01*
X48932857Y-54158619D02*
X48932857Y-54425285D01*
X49351904Y-54539571D02*
X49351904Y-54158619D01*
X48551904Y-54158619D01*
X48551904Y-54539571D01*
X48551904Y-55225285D02*
X48551904Y-55072904D01*
X48590000Y-54996714D01*
X48628095Y-54958619D01*
X48742380Y-54882428D01*
X48894761Y-54844333D01*
X49199523Y-54844333D01*
X49275714Y-54882428D01*
X49313809Y-54920523D01*
X49351904Y-54996714D01*
X49351904Y-55149095D01*
X49313809Y-55225285D01*
X49275714Y-55263380D01*
X49199523Y-55301476D01*
X49009047Y-55301476D01*
X48932857Y-55263380D01*
X48894761Y-55225285D01*
X48856666Y-55149095D01*
X48856666Y-54996714D01*
X48894761Y-54920523D01*
X48932857Y-54882428D01*
X49009047Y-54844333D01*
X46811904Y-54120523D02*
X46011904Y-54120523D01*
X46011904Y-54311000D01*
X46050000Y-54425285D01*
X46126190Y-54501476D01*
X46202380Y-54539571D01*
X46354761Y-54577666D01*
X46469047Y-54577666D01*
X46621428Y-54539571D01*
X46697619Y-54501476D01*
X46773809Y-54425285D01*
X46811904Y-54311000D01*
X46811904Y-54120523D01*
X46011904Y-54844333D02*
X46011904Y-55377666D01*
X46811904Y-55034809D01*
X44195714Y-54577666D02*
X44233809Y-54539571D01*
X44271904Y-54425285D01*
X44271904Y-54349095D01*
X44233809Y-54234809D01*
X44157619Y-54158619D01*
X44081428Y-54120523D01*
X43929047Y-54082428D01*
X43814761Y-54082428D01*
X43662380Y-54120523D01*
X43586190Y-54158619D01*
X43510000Y-54234809D01*
X43471904Y-54349095D01*
X43471904Y-54425285D01*
X43510000Y-54539571D01*
X43548095Y-54577666D01*
X43471904Y-55263380D02*
X43471904Y-55111000D01*
X43510000Y-55034809D01*
X43548095Y-54996714D01*
X43662380Y-54920523D01*
X43814761Y-54882428D01*
X44119523Y-54882428D01*
X44195714Y-54920523D01*
X44233809Y-54958619D01*
X44271904Y-55034809D01*
X44271904Y-55187190D01*
X44233809Y-55263380D01*
X44195714Y-55301476D01*
X44119523Y-55339571D01*
X43929047Y-55339571D01*
X43852857Y-55301476D01*
X43814761Y-55263380D01*
X43776666Y-55187190D01*
X43776666Y-55034809D01*
X43814761Y-54958619D01*
X43852857Y-54920523D01*
X43929047Y-54882428D01*
X41731904Y-54120523D02*
X40931904Y-54120523D01*
X40931904Y-54311000D01*
X40970000Y-54425285D01*
X41046190Y-54501476D01*
X41122380Y-54539571D01*
X41274761Y-54577666D01*
X41389047Y-54577666D01*
X41541428Y-54539571D01*
X41617619Y-54501476D01*
X41693809Y-54425285D01*
X41731904Y-54311000D01*
X41731904Y-54120523D01*
X41198571Y-55263380D02*
X41731904Y-55263380D01*
X40893809Y-55072904D02*
X41465238Y-54882428D01*
X41465238Y-55377666D01*
X30810000Y-54101476D02*
X30771904Y-54025285D01*
X30771904Y-53911000D01*
X30810000Y-53796714D01*
X30886190Y-53720523D01*
X30962380Y-53682428D01*
X31114761Y-53644333D01*
X31229047Y-53644333D01*
X31381428Y-53682428D01*
X31457619Y-53720523D01*
X31533809Y-53796714D01*
X31571904Y-53911000D01*
X31571904Y-53987190D01*
X31533809Y-54101476D01*
X31495714Y-54139571D01*
X31229047Y-54139571D01*
X31229047Y-53987190D01*
X31571904Y-54482428D02*
X30771904Y-54482428D01*
X31571904Y-54939571D01*
X30771904Y-54939571D01*
X31571904Y-55320523D02*
X30771904Y-55320523D01*
X30771904Y-55511000D01*
X30810000Y-55625285D01*
X30886190Y-55701476D01*
X30962380Y-55739571D01*
X31114761Y-55777666D01*
X31229047Y-55777666D01*
X31381428Y-55739571D01*
X31457619Y-55701476D01*
X31533809Y-55625285D01*
X31571904Y-55511000D01*
X31571904Y-55320523D01*
X33350000Y-54101476D02*
X33311904Y-54025285D01*
X33311904Y-53911000D01*
X33350000Y-53796714D01*
X33426190Y-53720523D01*
X33502380Y-53682428D01*
X33654761Y-53644333D01*
X33769047Y-53644333D01*
X33921428Y-53682428D01*
X33997619Y-53720523D01*
X34073809Y-53796714D01*
X34111904Y-53911000D01*
X34111904Y-53987190D01*
X34073809Y-54101476D01*
X34035714Y-54139571D01*
X33769047Y-54139571D01*
X33769047Y-53987190D01*
X34111904Y-54482428D02*
X33311904Y-54482428D01*
X34111904Y-54939571D01*
X33311904Y-54939571D01*
X34111904Y-55320523D02*
X33311904Y-55320523D01*
X33311904Y-55511000D01*
X33350000Y-55625285D01*
X33426190Y-55701476D01*
X33502380Y-55739571D01*
X33654761Y-55777666D01*
X33769047Y-55777666D01*
X33921428Y-55739571D01*
X33997619Y-55701476D01*
X34073809Y-55625285D01*
X34111904Y-55511000D01*
X34111904Y-55320523D01*
X36651904Y-54120523D02*
X35851904Y-54120523D01*
X35851904Y-54311000D01*
X35890000Y-54425285D01*
X35966190Y-54501476D01*
X36042380Y-54539571D01*
X36194761Y-54577666D01*
X36309047Y-54577666D01*
X36461428Y-54539571D01*
X36537619Y-54501476D01*
X36613809Y-54425285D01*
X36651904Y-54311000D01*
X36651904Y-54120523D01*
X36651904Y-55339571D02*
X36651904Y-54882428D01*
X36651904Y-55111000D02*
X35851904Y-55111000D01*
X35966190Y-55034809D01*
X36042380Y-54958619D01*
X36080476Y-54882428D01*
X39191904Y-54120523D02*
X38391904Y-54120523D01*
X38391904Y-54311000D01*
X38430000Y-54425285D01*
X38506190Y-54501476D01*
X38582380Y-54539571D01*
X38734761Y-54577666D01*
X38849047Y-54577666D01*
X39001428Y-54539571D01*
X39077619Y-54501476D01*
X39153809Y-54425285D01*
X39191904Y-54311000D01*
X39191904Y-54120523D01*
X38391904Y-55072904D02*
X38391904Y-55149095D01*
X38430000Y-55225285D01*
X38468095Y-55263380D01*
X38544285Y-55301476D01*
X38696666Y-55339571D01*
X38887142Y-55339571D01*
X39039523Y-55301476D01*
X39115714Y-55263380D01*
X39153809Y-55225285D01*
X39191904Y-55149095D01*
X39191904Y-55072904D01*
X39153809Y-54996714D01*
X39115714Y-54958619D01*
X39039523Y-54920523D01*
X38887142Y-54882428D01*
X38696666Y-54882428D01*
X38544285Y-54920523D01*
X38468095Y-54958619D01*
X38430000Y-54996714D01*
X38391904Y-55072904D01*
X29031904Y-54120523D02*
X28231904Y-54120523D01*
X28231904Y-54311000D01*
X28270000Y-54425285D01*
X28346190Y-54501476D01*
X28422380Y-54539571D01*
X28574761Y-54577666D01*
X28689047Y-54577666D01*
X28841428Y-54539571D01*
X28917619Y-54501476D01*
X28993809Y-54425285D01*
X29031904Y-54311000D01*
X29031904Y-54120523D01*
X28308095Y-54882428D02*
X28270000Y-54920523D01*
X28231904Y-54996714D01*
X28231904Y-55187190D01*
X28270000Y-55263380D01*
X28308095Y-55301476D01*
X28384285Y-55339571D01*
X28460476Y-55339571D01*
X28574761Y-55301476D01*
X29031904Y-54844333D01*
X29031904Y-55339571D01*
%LPC*%
D13*
G36*
X281531755Y-156407526D02*
G01*
X281512868Y-156478439D01*
X281482365Y-156579099D01*
X281447879Y-156678492D01*
X281409486Y-156776475D01*
X281367261Y-156872903D01*
X281321277Y-156967634D01*
X281271609Y-157060522D01*
X281218332Y-157151424D01*
X281161520Y-157240196D01*
X281101247Y-157326695D01*
X281037588Y-157410775D01*
X280970617Y-157492294D01*
X280943718Y-157523262D01*
X280871862Y-157601592D01*
X280797269Y-157676777D01*
X280720043Y-157748759D01*
X280640289Y-157817482D01*
X280558110Y-157882887D01*
X280473611Y-157944917D01*
X280386895Y-158003515D01*
X280298066Y-158058623D01*
X280207229Y-158110185D01*
X280114488Y-158158142D01*
X280019946Y-158202437D01*
X279923708Y-158243013D01*
X279825877Y-158279812D01*
X279726558Y-158312778D01*
X279625855Y-158341851D01*
X279523872Y-158366976D01*
X279420712Y-158388095D01*
X279316480Y-158405149D01*
X279263491Y-158412237D01*
X279199943Y-158419366D01*
X279135184Y-158425114D01*
X279067775Y-158429621D01*
X279063131Y-158429831D01*
X279052623Y-158430130D01*
X279038710Y-158430384D01*
X279021900Y-158430589D01*
X279002703Y-158430742D01*
X278981626Y-158430840D01*
X278959178Y-158430878D01*
X278935866Y-158430852D01*
X278912200Y-158430759D01*
X278895115Y-158430658D01*
X278866013Y-158430424D01*
X278840212Y-158430108D01*
X278817102Y-158429683D01*
X278796075Y-158429121D01*
X278776522Y-158428393D01*
X278757835Y-158427472D01*
X278739404Y-158426330D01*
X278720623Y-158424938D01*
X278700881Y-158423270D01*
X278679571Y-158421296D01*
X278656083Y-158418989D01*
X278601357Y-158412927D01*
X278497145Y-158398162D01*
X278393731Y-158379285D01*
X278291244Y-158356349D01*
X278189809Y-158329405D01*
X278089553Y-158298504D01*
X277990602Y-158263699D01*
X277893084Y-158225040D01*
X277797125Y-158182580D01*
X277702852Y-158136369D01*
X277610391Y-158086460D01*
X277519868Y-158032904D01*
X277431411Y-157975752D01*
X277345146Y-157915057D01*
X277261200Y-157850869D01*
X277225482Y-157821921D01*
X277144224Y-157752196D01*
X277065949Y-157679480D01*
X276990706Y-157603824D01*
X276918544Y-157525278D01*
X276849513Y-157443895D01*
X276783663Y-157359725D01*
X276724390Y-157277617D01*
X276665656Y-157189255D01*
X276610555Y-157098789D01*
X276559139Y-157006326D01*
X276511459Y-156911975D01*
X276467567Y-156815845D01*
X276427516Y-156718043D01*
X276391358Y-156618678D01*
X276359144Y-156517858D01*
X276330926Y-156415692D01*
X276307875Y-156317514D01*
X276290737Y-156229272D01*
X277611769Y-156229272D01*
X277613745Y-156280527D01*
X277617944Y-156332634D01*
X277624362Y-156385000D01*
X277629930Y-156420428D01*
X277644513Y-156494374D01*
X277663113Y-156568757D01*
X277685635Y-156643334D01*
X277711983Y-156717863D01*
X277742062Y-156792102D01*
X277775777Y-156865809D01*
X277813033Y-156938741D01*
X277853735Y-157010656D01*
X277897788Y-157081312D01*
X277899682Y-157084205D01*
X277942380Y-157146610D01*
X277987573Y-157207532D01*
X278034966Y-157266666D01*
X278084265Y-157323707D01*
X278135175Y-157378350D01*
X278187400Y-157430288D01*
X278240647Y-157479218D01*
X278294619Y-157524833D01*
X278349023Y-157566828D01*
X278403562Y-157604898D01*
X278428133Y-157620750D01*
X278482895Y-157653420D01*
X278537987Y-157682687D01*
X278593177Y-157708464D01*
X278648232Y-157730658D01*
X278702921Y-157749182D01*
X278757010Y-157763945D01*
X278810266Y-157774857D01*
X278862458Y-157781830D01*
X278884409Y-157783630D01*
X278934362Y-157785311D01*
X278982891Y-157783547D01*
X279029794Y-157778380D01*
X279074869Y-157769853D01*
X279117916Y-157758010D01*
X279158734Y-157742893D01*
X279197120Y-157724544D01*
X279232875Y-157703007D01*
X279241283Y-157697238D01*
X279277294Y-157669638D01*
X279309747Y-157639744D01*
X279338631Y-157607576D01*
X279363934Y-157573155D01*
X279385644Y-157536499D01*
X279403749Y-157497627D01*
X279418238Y-157456560D01*
X279429098Y-157413316D01*
X279436318Y-157367915D01*
X279437043Y-157360693D01*
X279438171Y-157342795D01*
X279438758Y-157322254D01*
X279438819Y-157300125D01*
X279438371Y-157277465D01*
X279437427Y-157255329D01*
X279436004Y-157234772D01*
X279434117Y-157216850D01*
X279428907Y-157180659D01*
X279421161Y-157135200D01*
X279411639Y-157086264D01*
X279400383Y-157034029D01*
X279387437Y-156978671D01*
X279372844Y-156920367D01*
X279356646Y-156859294D01*
X279338887Y-156795628D01*
X279319610Y-156729546D01*
X279298857Y-156661225D01*
X279297983Y-156658403D01*
X279295509Y-156650422D01*
X279291855Y-156638636D01*
X279287066Y-156623196D01*
X279281189Y-156604251D01*
X279274272Y-156581953D01*
X279266360Y-156556451D01*
X279257502Y-156527898D01*
X279247742Y-156496443D01*
X279237129Y-156462236D01*
X279225709Y-156425429D01*
X279213528Y-156386172D01*
X279200633Y-156344616D01*
X279187072Y-156300912D01*
X279172890Y-156255209D01*
X279158135Y-156207658D01*
X279142853Y-156158411D01*
X279127091Y-156107617D01*
X279110895Y-156055428D01*
X279094313Y-156001993D01*
X279077392Y-155947464D01*
X279060177Y-155891991D01*
X279042715Y-155835725D01*
X279037999Y-155820529D01*
X279015715Y-155748701D01*
X278994649Y-155680770D01*
X278974766Y-155616616D01*
X278956029Y-155556119D01*
X278938403Y-155499161D01*
X278921852Y-155445620D01*
X278906340Y-155395378D01*
X278891830Y-155348316D01*
X278878286Y-155304312D01*
X278865673Y-155263249D01*
X278853955Y-155225006D01*
X278843095Y-155189464D01*
X278833058Y-155156502D01*
X278823807Y-155126002D01*
X278815306Y-155097844D01*
X278807519Y-155071908D01*
X278800411Y-155048075D01*
X278793945Y-155026224D01*
X278788086Y-155006237D01*
X278782796Y-154987994D01*
X278778041Y-154971375D01*
X278773784Y-154956261D01*
X278769989Y-154942531D01*
X278766620Y-154930067D01*
X278763641Y-154918749D01*
X278761016Y-154908457D01*
X278758709Y-154899071D01*
X278756684Y-154890473D01*
X278754905Y-154882541D01*
X278753336Y-154875158D01*
X278750163Y-154858615D01*
X278746975Y-154836562D01*
X278745758Y-154817473D01*
X278746587Y-154800842D01*
X278749536Y-154786160D01*
X278754680Y-154772922D01*
X278762093Y-154760618D01*
X278771849Y-154748744D01*
X278781951Y-154739056D01*
X278799528Y-154726296D01*
X278820520Y-154715181D01*
X278845019Y-154705684D01*
X278873117Y-154697774D01*
X278904907Y-154691423D01*
X278940482Y-154686601D01*
X278979933Y-154683279D01*
X278980916Y-154683221D01*
X278989840Y-154682840D01*
X279002450Y-154682481D01*
X279018269Y-154682151D01*
X279036818Y-154681854D01*
X279057623Y-154681598D01*
X279080205Y-154681387D01*
X279104088Y-154681229D01*
X279128794Y-154681129D01*
X279153847Y-154681093D01*
X279292836Y-154681084D01*
X279416736Y-155177971D01*
X279425616Y-155213582D01*
X279439324Y-155268532D01*
X279452085Y-155319655D01*
X279463943Y-155367124D01*
X279474943Y-155411114D01*
X279485130Y-155451798D01*
X279494550Y-155489352D01*
X279503247Y-155523950D01*
X279511266Y-155555765D01*
X279518652Y-155584972D01*
X279525450Y-155611745D01*
X279531704Y-155636259D01*
X279537461Y-155658687D01*
X279542765Y-155679205D01*
X279547660Y-155697985D01*
X279552191Y-155715203D01*
X279556405Y-155731032D01*
X279560345Y-155745647D01*
X279564056Y-155759222D01*
X279567583Y-155771931D01*
X279570972Y-155783949D01*
X279574268Y-155795450D01*
X279577514Y-155806608D01*
X279580756Y-155817597D01*
X279584040Y-155828591D01*
X279587409Y-155839765D01*
X279590790Y-155850873D01*
X279610168Y-155912260D01*
X279629525Y-155969603D01*
X279648940Y-156023065D01*
X279668490Y-156072807D01*
X279688256Y-156118989D01*
X279708314Y-156161773D01*
X279728744Y-156201320D01*
X279749625Y-156237791D01*
X279771034Y-156271347D01*
X279793050Y-156302149D01*
X279815753Y-156330358D01*
X279839220Y-156356135D01*
X279858405Y-156375097D01*
X279884027Y-156397627D01*
X279909736Y-156416778D01*
X279936219Y-156432956D01*
X279964162Y-156446569D01*
X279994251Y-156458025D01*
X280027173Y-156467730D01*
X280047521Y-156472420D01*
X280074419Y-156477192D01*
X280102620Y-156480840D01*
X280131077Y-156483280D01*
X280158740Y-156484425D01*
X280184561Y-156484190D01*
X280207492Y-156482488D01*
X280235434Y-156477944D01*
X280265972Y-156469749D01*
X280294294Y-156458572D01*
X280320171Y-156444582D01*
X280343371Y-156427948D01*
X280363663Y-156408838D01*
X280380817Y-156387422D01*
X280394601Y-156363867D01*
X280404785Y-156338342D01*
X280406403Y-156332889D01*
X280407858Y-156326694D01*
X280408813Y-156320146D01*
X280409364Y-156312276D01*
X280409605Y-156302115D01*
X280409631Y-156288692D01*
X280409623Y-156286520D01*
X280409505Y-156273891D01*
X280409197Y-156264374D01*
X280408587Y-156256993D01*
X280407564Y-156250770D01*
X280406015Y-156244729D01*
X280403830Y-156237892D01*
X280397411Y-156221488D01*
X280386543Y-156201851D01*
X280373294Y-156185700D01*
X280357591Y-156172980D01*
X280339357Y-156163630D01*
X280318517Y-156157595D01*
X280294995Y-156154816D01*
X280275511Y-156154686D01*
X280256961Y-156156620D01*
X280241320Y-156160854D01*
X280228178Y-156167503D01*
X280217125Y-156176682D01*
X280213388Y-156180887D01*
X280204926Y-156192509D01*
X280195734Y-156207681D01*
X280186031Y-156226030D01*
X280176032Y-156247186D01*
X280172256Y-156255482D01*
X280163135Y-156274335D01*
X280154740Y-156289660D01*
X280146757Y-156301850D01*
X280138877Y-156311297D01*
X280130788Y-156318396D01*
X280122179Y-156323538D01*
X280112738Y-156327118D01*
X280108129Y-156328298D01*
X280092948Y-156330467D01*
X280076271Y-156330829D01*
X280059816Y-156329407D01*
X280045304Y-156326224D01*
X280037535Y-156323426D01*
X280019073Y-156313858D01*
X280000944Y-156300457D01*
X279983367Y-156283504D01*
X279966563Y-156263282D01*
X279950754Y-156240073D01*
X279936159Y-156214159D01*
X279923001Y-156185821D01*
X279911499Y-156155342D01*
X279910603Y-156152227D01*
X279908699Y-156145207D01*
X279905839Y-156134478D01*
X279902070Y-156120216D01*
X279897437Y-156102601D01*
X279891985Y-156081809D01*
X279885762Y-156058017D01*
X279878813Y-156031403D01*
X279871184Y-156002145D01*
X279862920Y-155970419D01*
X279854068Y-155936404D01*
X279844674Y-155900276D01*
X279834783Y-155862214D01*
X279824442Y-155822394D01*
X279813695Y-155780994D01*
X279802590Y-155738191D01*
X279791172Y-155694163D01*
X279779487Y-155649087D01*
X279767581Y-155603141D01*
X279755500Y-155556502D01*
X279743289Y-155509347D01*
X279730995Y-155461854D01*
X279718663Y-155414201D01*
X279706340Y-155366564D01*
X279694071Y-155319121D01*
X279681902Y-155272050D01*
X279669880Y-155225528D01*
X279658049Y-155179732D01*
X279646457Y-155134840D01*
X279635148Y-155091030D01*
X279624169Y-155048478D01*
X279613565Y-155007362D01*
X279603383Y-154967859D01*
X279593669Y-154930148D01*
X279584468Y-154894404D01*
X279575826Y-154860807D01*
X279567790Y-154829533D01*
X279560404Y-154800759D01*
X279553715Y-154774663D01*
X279547770Y-154751423D01*
X279542613Y-154731216D01*
X279538291Y-154714219D01*
X279534849Y-154700609D01*
X279532334Y-154690565D01*
X279530791Y-154684263D01*
X279530267Y-154681881D01*
X279531624Y-154681763D01*
X279536835Y-154681623D01*
X279545603Y-154681495D01*
X279557554Y-154681379D01*
X279572315Y-154681279D01*
X279589511Y-154681197D01*
X279608768Y-154681136D01*
X279629714Y-154681097D01*
X279651975Y-154681084D01*
X279670118Y-154681078D01*
X279691336Y-154681055D01*
X279710935Y-154681017D01*
X279728541Y-154680965D01*
X279743780Y-154680901D01*
X279756280Y-154680826D01*
X279765667Y-154680742D01*
X279771567Y-154680651D01*
X279773607Y-154680554D01*
X279773579Y-154680440D01*
X279772785Y-154677574D01*
X279771010Y-154671259D01*
X279768401Y-154662009D01*
X279765103Y-154650341D01*
X279761262Y-154636772D01*
X279757023Y-154621817D01*
X279740516Y-154563609D01*
X279619843Y-154563062D01*
X279499171Y-154562516D01*
X279489035Y-154522845D01*
X279470401Y-154452889D01*
X279448636Y-154378119D01*
X279425974Y-154307300D01*
X279402423Y-154240449D01*
X279377992Y-154177579D01*
X279352688Y-154118705D01*
X279326521Y-154063844D01*
X279299499Y-154013008D01*
X279271630Y-153966215D01*
X279242923Y-153923477D01*
X279213385Y-153884811D01*
X279183027Y-153850232D01*
X279151856Y-153819753D01*
X279119880Y-153793391D01*
X279087108Y-153771160D01*
X279053549Y-153753075D01*
X279045600Y-153749413D01*
X279014315Y-153736793D01*
X278983288Y-153727336D01*
X278951574Y-153720836D01*
X278918225Y-153717088D01*
X278882295Y-153715886D01*
X278876912Y-153715909D01*
X278833075Y-153717817D01*
X278791446Y-153722760D01*
X278752178Y-153730685D01*
X278715426Y-153741541D01*
X278681344Y-153755274D01*
X278650086Y-153771832D01*
X278621807Y-153791162D01*
X278596661Y-153813212D01*
X278580845Y-153830470D01*
X278566178Y-153850874D01*
X278555394Y-153872037D01*
X278548303Y-153894432D01*
X278544718Y-153918534D01*
X278544451Y-153944816D01*
X278546291Y-153963376D01*
X278551497Y-153986549D01*
X278559643Y-154007650D01*
X278570505Y-154026370D01*
X278583857Y-154042402D01*
X278599475Y-154055436D01*
X278617133Y-154065164D01*
X278636608Y-154071278D01*
X278640608Y-154071967D01*
X278652388Y-154073080D01*
X278666218Y-154073476D01*
X278680612Y-154073173D01*
X278694080Y-154072186D01*
X278705134Y-154070533D01*
X278719006Y-154066663D01*
X278737722Y-154057895D01*
X278754793Y-154045284D01*
X278760428Y-154039912D01*
X278771072Y-154027321D01*
X278780349Y-154012512D01*
X278788508Y-153994984D01*
X278795797Y-153974238D01*
X278802467Y-153949775D01*
X278808683Y-153925978D01*
X278815640Y-153903704D01*
X278822978Y-153885065D01*
X278830922Y-153869751D01*
X278839700Y-153857448D01*
X278849535Y-153847846D01*
X278860656Y-153840630D01*
X278873286Y-153835491D01*
X278887653Y-153832115D01*
X278900239Y-153830661D01*
X278920639Y-153831383D01*
X278940554Y-153836076D01*
X278960152Y-153844807D01*
X278979600Y-153857638D01*
X278999068Y-153874634D01*
X278999883Y-153875433D01*
X279020373Y-153897813D01*
X279040695Y-153924343D01*
X279060817Y-153954949D01*
X279080705Y-153989553D01*
X279100326Y-154028079D01*
X279119647Y-154070450D01*
X279138634Y-154116590D01*
X279157254Y-154166421D01*
X279175474Y-154219867D01*
X279193261Y-154276852D01*
X279210582Y-154337299D01*
X279227402Y-154401131D01*
X279230145Y-154412105D01*
X279233936Y-154427594D01*
X279237937Y-154444250D01*
X279242030Y-154461544D01*
X279246093Y-154478949D01*
X279250005Y-154495936D01*
X279253646Y-154511977D01*
X279256896Y-154526543D01*
X279259633Y-154539108D01*
X279261738Y-154549142D01*
X279263089Y-154556118D01*
X279263566Y-154559507D01*
X279263209Y-154560056D01*
X279261776Y-154560594D01*
X279258975Y-154561050D01*
X279254520Y-154561432D01*
X279248124Y-154561746D01*
X279239501Y-154561997D01*
X279228364Y-154562192D01*
X279214427Y-154562338D01*
X279197403Y-154562440D01*
X279177005Y-154562505D01*
X279152947Y-154562540D01*
X279124943Y-154562550D01*
X278986319Y-154562550D01*
X278626100Y-154545631D01*
X278619797Y-154545336D01*
X278581264Y-154543534D01*
X278543912Y-154541800D01*
X278507959Y-154540143D01*
X278473621Y-154538572D01*
X278441118Y-154537098D01*
X278410667Y-154535729D01*
X278382485Y-154534476D01*
X278356789Y-154533348D01*
X278333799Y-154532354D01*
X278313731Y-154531504D01*
X278296803Y-154530807D01*
X278283233Y-154530274D01*
X278273238Y-154529913D01*
X278267036Y-154529735D01*
X278264846Y-154529749D01*
X278264910Y-154530059D01*
X278265976Y-154533595D01*
X278268307Y-154540957D01*
X278271856Y-154552007D01*
X278276578Y-154566605D01*
X278282427Y-154584609D01*
X278289356Y-154605881D01*
X278297321Y-154630281D01*
X278306274Y-154657668D01*
X278316171Y-154687902D01*
X278326965Y-154720844D01*
X278338610Y-154756354D01*
X278351061Y-154794291D01*
X278364270Y-154834516D01*
X278378194Y-154876888D01*
X278392785Y-154921269D01*
X278407998Y-154967516D01*
X278423787Y-155015492D01*
X278440105Y-155065056D01*
X278456908Y-155116067D01*
X278474149Y-155168386D01*
X278491781Y-155221873D01*
X278509761Y-155276388D01*
X278755711Y-156021992D01*
X278751171Y-156025696D01*
X278747743Y-156028181D01*
X278745278Y-156029326D01*
X278744372Y-156028509D01*
X278741517Y-156024796D01*
X278737333Y-156018774D01*
X278732364Y-156011207D01*
X278726566Y-156002467D01*
X278719052Y-155991607D01*
X278710883Y-155980147D01*
X278703035Y-155969476D01*
X278683877Y-155944847D01*
X278645972Y-155900913D01*
X278605820Y-155860267D01*
X278563571Y-155822996D01*
X278519377Y-155789189D01*
X278473388Y-155758934D01*
X278425754Y-155732319D01*
X278376627Y-155709431D01*
X278326156Y-155690360D01*
X278274493Y-155675192D01*
X278221788Y-155664017D01*
X278168192Y-155656921D01*
X278164849Y-155656631D01*
X278148137Y-155655627D01*
X278128743Y-155655036D01*
X278107818Y-155654850D01*
X278086511Y-155655058D01*
X278065972Y-155655654D01*
X278047352Y-155656626D01*
X278031800Y-155657968D01*
X278000227Y-155662321D01*
X277955953Y-155671496D01*
X277914284Y-155683976D01*
X277875177Y-155699773D01*
X277838592Y-155718901D01*
X277815371Y-155733721D01*
X277783509Y-155758225D01*
X277754027Y-155786061D01*
X277727032Y-155817060D01*
X277702630Y-155851055D01*
X277680928Y-155887875D01*
X277662033Y-155927354D01*
X277646049Y-155969322D01*
X277633085Y-156013612D01*
X277623245Y-156060054D01*
X277619191Y-156086563D01*
X277614490Y-156131697D01*
X277612016Y-156179464D01*
X277611769Y-156229272D01*
X276290737Y-156229272D01*
X276287659Y-156213425D01*
X276271568Y-156108567D01*
X276259613Y-156003070D01*
X276251803Y-155897066D01*
X276248147Y-155790686D01*
X276248656Y-155684061D01*
X276253337Y-155577322D01*
X276262203Y-155470600D01*
X276271245Y-155393653D01*
X276287179Y-155289250D01*
X276307211Y-155185737D01*
X276331296Y-155083231D01*
X276359386Y-154981846D01*
X276391438Y-154881701D01*
X276427404Y-154782911D01*
X276467240Y-154685593D01*
X276510899Y-154589863D01*
X276558337Y-154495838D01*
X276609506Y-154403634D01*
X276664363Y-154313367D01*
X276722860Y-154225154D01*
X276784952Y-154139112D01*
X276837910Y-154071057D01*
X276905581Y-153990272D01*
X276976529Y-153912002D01*
X277050551Y-153836443D01*
X277127449Y-153763792D01*
X277207020Y-153694242D01*
X277289065Y-153627992D01*
X277373383Y-153565234D01*
X277409252Y-153540072D01*
X277497782Y-153481590D01*
X277588326Y-153426792D01*
X277680776Y-153375721D01*
X277775021Y-153328417D01*
X277870949Y-153284921D01*
X277968450Y-153245274D01*
X278067414Y-153209517D01*
X278167730Y-153177691D01*
X278269287Y-153149838D01*
X278371975Y-153125997D01*
X278475683Y-153106210D01*
X278580300Y-153090519D01*
X278685716Y-153078963D01*
X278709645Y-153076866D01*
X278731345Y-153075084D01*
X278751375Y-153073599D01*
X278770390Y-153072385D01*
X278789048Y-153071417D01*
X278808002Y-153070669D01*
X278827910Y-153070115D01*
X278849426Y-153069729D01*
X278873208Y-153069485D01*
X278899912Y-153069357D01*
X278930191Y-153069320D01*
X278968178Y-153069426D01*
X279003473Y-153069783D01*
X279035982Y-153070428D01*
X279066430Y-153071401D01*
X279095548Y-153072742D01*
X279124061Y-153074489D01*
X279152699Y-153076681D01*
X279182188Y-153079357D01*
X279213257Y-153082557D01*
X279246633Y-153086320D01*
X279332806Y-153097804D01*
X279436838Y-153115525D01*
X279539855Y-153137309D01*
X279641751Y-153163111D01*
X279742422Y-153192882D01*
X279841761Y-153226573D01*
X279939665Y-153264138D01*
X280036029Y-153305527D01*
X280130747Y-153350693D01*
X280223714Y-153399589D01*
X280314827Y-153452165D01*
X280403978Y-153508374D01*
X280491065Y-153568168D01*
X280575981Y-153631500D01*
X280658622Y-153698320D01*
X280738883Y-153768581D01*
X280741710Y-153771169D01*
X280754622Y-153783236D01*
X280769729Y-153797676D01*
X280786465Y-153813923D01*
X280804262Y-153831412D01*
X280822553Y-153849578D01*
X280840772Y-153867855D01*
X280858351Y-153885679D01*
X280874723Y-153902483D01*
X280889322Y-153917703D01*
X280901580Y-153930773D01*
X280955935Y-153991468D01*
X281024085Y-154073102D01*
X281088824Y-154157169D01*
X281150096Y-154243564D01*
X281207839Y-154332183D01*
X281261996Y-154422920D01*
X281312507Y-154515672D01*
X281359313Y-154610334D01*
X281402356Y-154706802D01*
X281441576Y-154804970D01*
X281476915Y-154904735D01*
X281508313Y-155005992D01*
X281521485Y-155053333D01*
X281546644Y-155155276D01*
X281567752Y-155258212D01*
X281584806Y-155361971D01*
X281597803Y-155466384D01*
X281606741Y-155571281D01*
X281611616Y-155676493D01*
X281612426Y-155781849D01*
X281609168Y-155887181D01*
X281601839Y-155992318D01*
X281590436Y-156097090D01*
X281574956Y-156201329D01*
X281558452Y-156288692D01*
X281555397Y-156304864D01*
X281531755Y-156407526D01*
X281531755Y-156407526D01*
G37*
X281531755Y-156407526D02*
X281512868Y-156478439D01*
X281482365Y-156579099D01*
X281447879Y-156678492D01*
X281409486Y-156776475D01*
X281367261Y-156872903D01*
X281321277Y-156967634D01*
X281271609Y-157060522D01*
X281218332Y-157151424D01*
X281161520Y-157240196D01*
X281101247Y-157326695D01*
X281037588Y-157410775D01*
X280970617Y-157492294D01*
X280943718Y-157523262D01*
X280871862Y-157601592D01*
X280797269Y-157676777D01*
X280720043Y-157748759D01*
X280640289Y-157817482D01*
X280558110Y-157882887D01*
X280473611Y-157944917D01*
X280386895Y-158003515D01*
X280298066Y-158058623D01*
X280207229Y-158110185D01*
X280114488Y-158158142D01*
X280019946Y-158202437D01*
X279923708Y-158243013D01*
X279825877Y-158279812D01*
X279726558Y-158312778D01*
X279625855Y-158341851D01*
X279523872Y-158366976D01*
X279420712Y-158388095D01*
X279316480Y-158405149D01*
X279263491Y-158412237D01*
X279199943Y-158419366D01*
X279135184Y-158425114D01*
X279067775Y-158429621D01*
X279063131Y-158429831D01*
X279052623Y-158430130D01*
X279038710Y-158430384D01*
X279021900Y-158430589D01*
X279002703Y-158430742D01*
X278981626Y-158430840D01*
X278959178Y-158430878D01*
X278935866Y-158430852D01*
X278912200Y-158430759D01*
X278895115Y-158430658D01*
X278866013Y-158430424D01*
X278840212Y-158430108D01*
X278817102Y-158429683D01*
X278796075Y-158429121D01*
X278776522Y-158428393D01*
X278757835Y-158427472D01*
X278739404Y-158426330D01*
X278720623Y-158424938D01*
X278700881Y-158423270D01*
X278679571Y-158421296D01*
X278656083Y-158418989D01*
X278601357Y-158412927D01*
X278497145Y-158398162D01*
X278393731Y-158379285D01*
X278291244Y-158356349D01*
X278189809Y-158329405D01*
X278089553Y-158298504D01*
X277990602Y-158263699D01*
X277893084Y-158225040D01*
X277797125Y-158182580D01*
X277702852Y-158136369D01*
X277610391Y-158086460D01*
X277519868Y-158032904D01*
X277431411Y-157975752D01*
X277345146Y-157915057D01*
X277261200Y-157850869D01*
X277225482Y-157821921D01*
X277144224Y-157752196D01*
X277065949Y-157679480D01*
X276990706Y-157603824D01*
X276918544Y-157525278D01*
X276849513Y-157443895D01*
X276783663Y-157359725D01*
X276724390Y-157277617D01*
X276665656Y-157189255D01*
X276610555Y-157098789D01*
X276559139Y-157006326D01*
X276511459Y-156911975D01*
X276467567Y-156815845D01*
X276427516Y-156718043D01*
X276391358Y-156618678D01*
X276359144Y-156517858D01*
X276330926Y-156415692D01*
X276307875Y-156317514D01*
X276290737Y-156229272D01*
X277611769Y-156229272D01*
X277613745Y-156280527D01*
X277617944Y-156332634D01*
X277624362Y-156385000D01*
X277629930Y-156420428D01*
X277644513Y-156494374D01*
X277663113Y-156568757D01*
X277685635Y-156643334D01*
X277711983Y-156717863D01*
X277742062Y-156792102D01*
X277775777Y-156865809D01*
X277813033Y-156938741D01*
X277853735Y-157010656D01*
X277897788Y-157081312D01*
X277899682Y-157084205D01*
X277942380Y-157146610D01*
X277987573Y-157207532D01*
X278034966Y-157266666D01*
X278084265Y-157323707D01*
X278135175Y-157378350D01*
X278187400Y-157430288D01*
X278240647Y-157479218D01*
X278294619Y-157524833D01*
X278349023Y-157566828D01*
X278403562Y-157604898D01*
X278428133Y-157620750D01*
X278482895Y-157653420D01*
X278537987Y-157682687D01*
X278593177Y-157708464D01*
X278648232Y-157730658D01*
X278702921Y-157749182D01*
X278757010Y-157763945D01*
X278810266Y-157774857D01*
X278862458Y-157781830D01*
X278884409Y-157783630D01*
X278934362Y-157785311D01*
X278982891Y-157783547D01*
X279029794Y-157778380D01*
X279074869Y-157769853D01*
X279117916Y-157758010D01*
X279158734Y-157742893D01*
X279197120Y-157724544D01*
X279232875Y-157703007D01*
X279241283Y-157697238D01*
X279277294Y-157669638D01*
X279309747Y-157639744D01*
X279338631Y-157607576D01*
X279363934Y-157573155D01*
X279385644Y-157536499D01*
X279403749Y-157497627D01*
X279418238Y-157456560D01*
X279429098Y-157413316D01*
X279436318Y-157367915D01*
X279437043Y-157360693D01*
X279438171Y-157342795D01*
X279438758Y-157322254D01*
X279438819Y-157300125D01*
X279438371Y-157277465D01*
X279437427Y-157255329D01*
X279436004Y-157234772D01*
X279434117Y-157216850D01*
X279428907Y-157180659D01*
X279421161Y-157135200D01*
X279411639Y-157086264D01*
X279400383Y-157034029D01*
X279387437Y-156978671D01*
X279372844Y-156920367D01*
X279356646Y-156859294D01*
X279338887Y-156795628D01*
X279319610Y-156729546D01*
X279298857Y-156661225D01*
X279297983Y-156658403D01*
X279295509Y-156650422D01*
X279291855Y-156638636D01*
X279287066Y-156623196D01*
X279281189Y-156604251D01*
X279274272Y-156581953D01*
X279266360Y-156556451D01*
X279257502Y-156527898D01*
X279247742Y-156496443D01*
X279237129Y-156462236D01*
X279225709Y-156425429D01*
X279213528Y-156386172D01*
X279200633Y-156344616D01*
X279187072Y-156300912D01*
X279172890Y-156255209D01*
X279158135Y-156207658D01*
X279142853Y-156158411D01*
X279127091Y-156107617D01*
X279110895Y-156055428D01*
X279094313Y-156001993D01*
X279077392Y-155947464D01*
X279060177Y-155891991D01*
X279042715Y-155835725D01*
X279037999Y-155820529D01*
X279015715Y-155748701D01*
X278994649Y-155680770D01*
X278974766Y-155616616D01*
X278956029Y-155556119D01*
X278938403Y-155499161D01*
X278921852Y-155445620D01*
X278906340Y-155395378D01*
X278891830Y-155348316D01*
X278878286Y-155304312D01*
X278865673Y-155263249D01*
X278853955Y-155225006D01*
X278843095Y-155189464D01*
X278833058Y-155156502D01*
X278823807Y-155126002D01*
X278815306Y-155097844D01*
X278807519Y-155071908D01*
X278800411Y-155048075D01*
X278793945Y-155026224D01*
X278788086Y-155006237D01*
X278782796Y-154987994D01*
X278778041Y-154971375D01*
X278773784Y-154956261D01*
X278769989Y-154942531D01*
X278766620Y-154930067D01*
X278763641Y-154918749D01*
X278761016Y-154908457D01*
X278758709Y-154899071D01*
X278756684Y-154890473D01*
X278754905Y-154882541D01*
X278753336Y-154875158D01*
X278750163Y-154858615D01*
X278746975Y-154836562D01*
X278745758Y-154817473D01*
X278746587Y-154800842D01*
X278749536Y-154786160D01*
X278754680Y-154772922D01*
X278762093Y-154760618D01*
X278771849Y-154748744D01*
X278781951Y-154739056D01*
X278799528Y-154726296D01*
X278820520Y-154715181D01*
X278845019Y-154705684D01*
X278873117Y-154697774D01*
X278904907Y-154691423D01*
X278940482Y-154686601D01*
X278979933Y-154683279D01*
X278980916Y-154683221D01*
X278989840Y-154682840D01*
X279002450Y-154682481D01*
X279018269Y-154682151D01*
X279036818Y-154681854D01*
X279057623Y-154681598D01*
X279080205Y-154681387D01*
X279104088Y-154681229D01*
X279128794Y-154681129D01*
X279153847Y-154681093D01*
X279292836Y-154681084D01*
X279416736Y-155177971D01*
X279425616Y-155213582D01*
X279439324Y-155268532D01*
X279452085Y-155319655D01*
X279463943Y-155367124D01*
X279474943Y-155411114D01*
X279485130Y-155451798D01*
X279494550Y-155489352D01*
X279503247Y-155523950D01*
X279511266Y-155555765D01*
X279518652Y-155584972D01*
X279525450Y-155611745D01*
X279531704Y-155636259D01*
X279537461Y-155658687D01*
X279542765Y-155679205D01*
X279547660Y-155697985D01*
X279552191Y-155715203D01*
X279556405Y-155731032D01*
X279560345Y-155745647D01*
X279564056Y-155759222D01*
X279567583Y-155771931D01*
X279570972Y-155783949D01*
X279574268Y-155795450D01*
X279577514Y-155806608D01*
X279580756Y-155817597D01*
X279584040Y-155828591D01*
X279587409Y-155839765D01*
X279590790Y-155850873D01*
X279610168Y-155912260D01*
X279629525Y-155969603D01*
X279648940Y-156023065D01*
X279668490Y-156072807D01*
X279688256Y-156118989D01*
X279708314Y-156161773D01*
X279728744Y-156201320D01*
X279749625Y-156237791D01*
X279771034Y-156271347D01*
X279793050Y-156302149D01*
X279815753Y-156330358D01*
X279839220Y-156356135D01*
X279858405Y-156375097D01*
X279884027Y-156397627D01*
X279909736Y-156416778D01*
X279936219Y-156432956D01*
X279964162Y-156446569D01*
X279994251Y-156458025D01*
X280027173Y-156467730D01*
X280047521Y-156472420D01*
X280074419Y-156477192D01*
X280102620Y-156480840D01*
X280131077Y-156483280D01*
X280158740Y-156484425D01*
X280184561Y-156484190D01*
X280207492Y-156482488D01*
X280235434Y-156477944D01*
X280265972Y-156469749D01*
X280294294Y-156458572D01*
X280320171Y-156444582D01*
X280343371Y-156427948D01*
X280363663Y-156408838D01*
X280380817Y-156387422D01*
X280394601Y-156363867D01*
X280404785Y-156338342D01*
X280406403Y-156332889D01*
X280407858Y-156326694D01*
X280408813Y-156320146D01*
X280409364Y-156312276D01*
X280409605Y-156302115D01*
X280409631Y-156288692D01*
X280409623Y-156286520D01*
X280409505Y-156273891D01*
X280409197Y-156264374D01*
X280408587Y-156256993D01*
X280407564Y-156250770D01*
X280406015Y-156244729D01*
X280403830Y-156237892D01*
X280397411Y-156221488D01*
X280386543Y-156201851D01*
X280373294Y-156185700D01*
X280357591Y-156172980D01*
X280339357Y-156163630D01*
X280318517Y-156157595D01*
X280294995Y-156154816D01*
X280275511Y-156154686D01*
X280256961Y-156156620D01*
X280241320Y-156160854D01*
X280228178Y-156167503D01*
X280217125Y-156176682D01*
X280213388Y-156180887D01*
X280204926Y-156192509D01*
X280195734Y-156207681D01*
X280186031Y-156226030D01*
X280176032Y-156247186D01*
X280172256Y-156255482D01*
X280163135Y-156274335D01*
X280154740Y-156289660D01*
X280146757Y-156301850D01*
X280138877Y-156311297D01*
X280130788Y-156318396D01*
X280122179Y-156323538D01*
X280112738Y-156327118D01*
X280108129Y-156328298D01*
X280092948Y-156330467D01*
X280076271Y-156330829D01*
X280059816Y-156329407D01*
X280045304Y-156326224D01*
X280037535Y-156323426D01*
X280019073Y-156313858D01*
X280000944Y-156300457D01*
X279983367Y-156283504D01*
X279966563Y-156263282D01*
X279950754Y-156240073D01*
X279936159Y-156214159D01*
X279923001Y-156185821D01*
X279911499Y-156155342D01*
X279910603Y-156152227D01*
X279908699Y-156145207D01*
X279905839Y-156134478D01*
X279902070Y-156120216D01*
X279897437Y-156102601D01*
X279891985Y-156081809D01*
X279885762Y-156058017D01*
X279878813Y-156031403D01*
X279871184Y-156002145D01*
X279862920Y-155970419D01*
X279854068Y-155936404D01*
X279844674Y-155900276D01*
X279834783Y-155862214D01*
X279824442Y-155822394D01*
X279813695Y-155780994D01*
X279802590Y-155738191D01*
X279791172Y-155694163D01*
X279779487Y-155649087D01*
X279767581Y-155603141D01*
X279755500Y-155556502D01*
X279743289Y-155509347D01*
X279730995Y-155461854D01*
X279718663Y-155414201D01*
X279706340Y-155366564D01*
X279694071Y-155319121D01*
X279681902Y-155272050D01*
X279669880Y-155225528D01*
X279658049Y-155179732D01*
X279646457Y-155134840D01*
X279635148Y-155091030D01*
X279624169Y-155048478D01*
X279613565Y-155007362D01*
X279603383Y-154967859D01*
X279593669Y-154930148D01*
X279584468Y-154894404D01*
X279575826Y-154860807D01*
X279567790Y-154829533D01*
X279560404Y-154800759D01*
X279553715Y-154774663D01*
X279547770Y-154751423D01*
X279542613Y-154731216D01*
X279538291Y-154714219D01*
X279534849Y-154700609D01*
X279532334Y-154690565D01*
X279530791Y-154684263D01*
X279530267Y-154681881D01*
X279531624Y-154681763D01*
X279536835Y-154681623D01*
X279545603Y-154681495D01*
X279557554Y-154681379D01*
X279572315Y-154681279D01*
X279589511Y-154681197D01*
X279608768Y-154681136D01*
X279629714Y-154681097D01*
X279651975Y-154681084D01*
X279670118Y-154681078D01*
X279691336Y-154681055D01*
X279710935Y-154681017D01*
X279728541Y-154680965D01*
X279743780Y-154680901D01*
X279756280Y-154680826D01*
X279765667Y-154680742D01*
X279771567Y-154680651D01*
X279773607Y-154680554D01*
X279773579Y-154680440D01*
X279772785Y-154677574D01*
X279771010Y-154671259D01*
X279768401Y-154662009D01*
X279765103Y-154650341D01*
X279761262Y-154636772D01*
X279757023Y-154621817D01*
X279740516Y-154563609D01*
X279619843Y-154563062D01*
X279499171Y-154562516D01*
X279489035Y-154522845D01*
X279470401Y-154452889D01*
X279448636Y-154378119D01*
X279425974Y-154307300D01*
X279402423Y-154240449D01*
X279377992Y-154177579D01*
X279352688Y-154118705D01*
X279326521Y-154063844D01*
X279299499Y-154013008D01*
X279271630Y-153966215D01*
X279242923Y-153923477D01*
X279213385Y-153884811D01*
X279183027Y-153850232D01*
X279151856Y-153819753D01*
X279119880Y-153793391D01*
X279087108Y-153771160D01*
X279053549Y-153753075D01*
X279045600Y-153749413D01*
X279014315Y-153736793D01*
X278983288Y-153727336D01*
X278951574Y-153720836D01*
X278918225Y-153717088D01*
X278882295Y-153715886D01*
X278876912Y-153715909D01*
X278833075Y-153717817D01*
X278791446Y-153722760D01*
X278752178Y-153730685D01*
X278715426Y-153741541D01*
X278681344Y-153755274D01*
X278650086Y-153771832D01*
X278621807Y-153791162D01*
X278596661Y-153813212D01*
X278580845Y-153830470D01*
X278566178Y-153850874D01*
X278555394Y-153872037D01*
X278548303Y-153894432D01*
X278544718Y-153918534D01*
X278544451Y-153944816D01*
X278546291Y-153963376D01*
X278551497Y-153986549D01*
X278559643Y-154007650D01*
X278570505Y-154026370D01*
X278583857Y-154042402D01*
X278599475Y-154055436D01*
X278617133Y-154065164D01*
X278636608Y-154071278D01*
X278640608Y-154071967D01*
X278652388Y-154073080D01*
X278666218Y-154073476D01*
X278680612Y-154073173D01*
X278694080Y-154072186D01*
X278705134Y-154070533D01*
X278719006Y-154066663D01*
X278737722Y-154057895D01*
X278754793Y-154045284D01*
X278760428Y-154039912D01*
X278771072Y-154027321D01*
X278780349Y-154012512D01*
X278788508Y-153994984D01*
X278795797Y-153974238D01*
X278802467Y-153949775D01*
X278808683Y-153925978D01*
X278815640Y-153903704D01*
X278822978Y-153885065D01*
X278830922Y-153869751D01*
X278839700Y-153857448D01*
X278849535Y-153847846D01*
X278860656Y-153840630D01*
X278873286Y-153835491D01*
X278887653Y-153832115D01*
X278900239Y-153830661D01*
X278920639Y-153831383D01*
X278940554Y-153836076D01*
X278960152Y-153844807D01*
X278979600Y-153857638D01*
X278999068Y-153874634D01*
X278999883Y-153875433D01*
X279020373Y-153897813D01*
X279040695Y-153924343D01*
X279060817Y-153954949D01*
X279080705Y-153989553D01*
X279100326Y-154028079D01*
X279119647Y-154070450D01*
X279138634Y-154116590D01*
X279157254Y-154166421D01*
X279175474Y-154219867D01*
X279193261Y-154276852D01*
X279210582Y-154337299D01*
X279227402Y-154401131D01*
X279230145Y-154412105D01*
X279233936Y-154427594D01*
X279237937Y-154444250D01*
X279242030Y-154461544D01*
X279246093Y-154478949D01*
X279250005Y-154495936D01*
X279253646Y-154511977D01*
X279256896Y-154526543D01*
X279259633Y-154539108D01*
X279261738Y-154549142D01*
X279263089Y-154556118D01*
X279263566Y-154559507D01*
X279263209Y-154560056D01*
X279261776Y-154560594D01*
X279258975Y-154561050D01*
X279254520Y-154561432D01*
X279248124Y-154561746D01*
X279239501Y-154561997D01*
X279228364Y-154562192D01*
X279214427Y-154562338D01*
X279197403Y-154562440D01*
X279177005Y-154562505D01*
X279152947Y-154562540D01*
X279124943Y-154562550D01*
X278986319Y-154562550D01*
X278626100Y-154545631D01*
X278619797Y-154545336D01*
X278581264Y-154543534D01*
X278543912Y-154541800D01*
X278507959Y-154540143D01*
X278473621Y-154538572D01*
X278441118Y-154537098D01*
X278410667Y-154535729D01*
X278382485Y-154534476D01*
X278356789Y-154533348D01*
X278333799Y-154532354D01*
X278313731Y-154531504D01*
X278296803Y-154530807D01*
X278283233Y-154530274D01*
X278273238Y-154529913D01*
X278267036Y-154529735D01*
X278264846Y-154529749D01*
X278264910Y-154530059D01*
X278265976Y-154533595D01*
X278268307Y-154540957D01*
X278271856Y-154552007D01*
X278276578Y-154566605D01*
X278282427Y-154584609D01*
X278289356Y-154605881D01*
X278297321Y-154630281D01*
X278306274Y-154657668D01*
X278316171Y-154687902D01*
X278326965Y-154720844D01*
X278338610Y-154756354D01*
X278351061Y-154794291D01*
X278364270Y-154834516D01*
X278378194Y-154876888D01*
X278392785Y-154921269D01*
X278407998Y-154967516D01*
X278423787Y-155015492D01*
X278440105Y-155065056D01*
X278456908Y-155116067D01*
X278474149Y-155168386D01*
X278491781Y-155221873D01*
X278509761Y-155276388D01*
X278755711Y-156021992D01*
X278751171Y-156025696D01*
X278747743Y-156028181D01*
X278745278Y-156029326D01*
X278744372Y-156028509D01*
X278741517Y-156024796D01*
X278737333Y-156018774D01*
X278732364Y-156011207D01*
X278726566Y-156002467D01*
X278719052Y-155991607D01*
X278710883Y-155980147D01*
X278703035Y-155969476D01*
X278683877Y-155944847D01*
X278645972Y-155900913D01*
X278605820Y-155860267D01*
X278563571Y-155822996D01*
X278519377Y-155789189D01*
X278473388Y-155758934D01*
X278425754Y-155732319D01*
X278376627Y-155709431D01*
X278326156Y-155690360D01*
X278274493Y-155675192D01*
X278221788Y-155664017D01*
X278168192Y-155656921D01*
X278164849Y-155656631D01*
X278148137Y-155655627D01*
X278128743Y-155655036D01*
X278107818Y-155654850D01*
X278086511Y-155655058D01*
X278065972Y-155655654D01*
X278047352Y-155656626D01*
X278031800Y-155657968D01*
X278000227Y-155662321D01*
X277955953Y-155671496D01*
X277914284Y-155683976D01*
X277875177Y-155699773D01*
X277838592Y-155718901D01*
X277815371Y-155733721D01*
X277783509Y-155758225D01*
X277754027Y-155786061D01*
X277727032Y-155817060D01*
X277702630Y-155851055D01*
X277680928Y-155887875D01*
X277662033Y-155927354D01*
X277646049Y-155969322D01*
X277633085Y-156013612D01*
X277623245Y-156060054D01*
X277619191Y-156086563D01*
X277614490Y-156131697D01*
X277612016Y-156179464D01*
X277611769Y-156229272D01*
X276290737Y-156229272D01*
X276287659Y-156213425D01*
X276271568Y-156108567D01*
X276259613Y-156003070D01*
X276251803Y-155897066D01*
X276248147Y-155790686D01*
X276248656Y-155684061D01*
X276253337Y-155577322D01*
X276262203Y-155470600D01*
X276271245Y-155393653D01*
X276287179Y-155289250D01*
X276307211Y-155185737D01*
X276331296Y-155083231D01*
X276359386Y-154981846D01*
X276391438Y-154881701D01*
X276427404Y-154782911D01*
X276467240Y-154685593D01*
X276510899Y-154589863D01*
X276558337Y-154495838D01*
X276609506Y-154403634D01*
X276664363Y-154313367D01*
X276722860Y-154225154D01*
X276784952Y-154139112D01*
X276837910Y-154071057D01*
X276905581Y-153990272D01*
X276976529Y-153912002D01*
X277050551Y-153836443D01*
X277127449Y-153763792D01*
X277207020Y-153694242D01*
X277289065Y-153627992D01*
X277373383Y-153565234D01*
X277409252Y-153540072D01*
X277497782Y-153481590D01*
X277588326Y-153426792D01*
X277680776Y-153375721D01*
X277775021Y-153328417D01*
X277870949Y-153284921D01*
X277968450Y-153245274D01*
X278067414Y-153209517D01*
X278167730Y-153177691D01*
X278269287Y-153149838D01*
X278371975Y-153125997D01*
X278475683Y-153106210D01*
X278580300Y-153090519D01*
X278685716Y-153078963D01*
X278709645Y-153076866D01*
X278731345Y-153075084D01*
X278751375Y-153073599D01*
X278770390Y-153072385D01*
X278789048Y-153071417D01*
X278808002Y-153070669D01*
X278827910Y-153070115D01*
X278849426Y-153069729D01*
X278873208Y-153069485D01*
X278899912Y-153069357D01*
X278930191Y-153069320D01*
X278968178Y-153069426D01*
X279003473Y-153069783D01*
X279035982Y-153070428D01*
X279066430Y-153071401D01*
X279095548Y-153072742D01*
X279124061Y-153074489D01*
X279152699Y-153076681D01*
X279182188Y-153079357D01*
X279213257Y-153082557D01*
X279246633Y-153086320D01*
X279332806Y-153097804D01*
X279436838Y-153115525D01*
X279539855Y-153137309D01*
X279641751Y-153163111D01*
X279742422Y-153192882D01*
X279841761Y-153226573D01*
X279939665Y-153264138D01*
X280036029Y-153305527D01*
X280130747Y-153350693D01*
X280223714Y-153399589D01*
X280314827Y-153452165D01*
X280403978Y-153508374D01*
X280491065Y-153568168D01*
X280575981Y-153631500D01*
X280658622Y-153698320D01*
X280738883Y-153768581D01*
X280741710Y-153771169D01*
X280754622Y-153783236D01*
X280769729Y-153797676D01*
X280786465Y-153813923D01*
X280804262Y-153831412D01*
X280822553Y-153849578D01*
X280840772Y-153867855D01*
X280858351Y-153885679D01*
X280874723Y-153902483D01*
X280889322Y-153917703D01*
X280901580Y-153930773D01*
X280955935Y-153991468D01*
X281024085Y-154073102D01*
X281088824Y-154157169D01*
X281150096Y-154243564D01*
X281207839Y-154332183D01*
X281261996Y-154422920D01*
X281312507Y-154515672D01*
X281359313Y-154610334D01*
X281402356Y-154706802D01*
X281441576Y-154804970D01*
X281476915Y-154904735D01*
X281508313Y-155005992D01*
X281521485Y-155053333D01*
X281546644Y-155155276D01*
X281567752Y-155258212D01*
X281584806Y-155361971D01*
X281597803Y-155466384D01*
X281606741Y-155571281D01*
X281611616Y-155676493D01*
X281612426Y-155781849D01*
X281609168Y-155887181D01*
X281601839Y-155992318D01*
X281590436Y-156097090D01*
X281574956Y-156201329D01*
X281558452Y-156288692D01*
X281555397Y-156304864D01*
X281531755Y-156407526D01*
G36*
X278223878Y-155861771D02*
G01*
X278240269Y-155862989D01*
X278254898Y-155865131D01*
X278285449Y-155872914D01*
X278317699Y-155884743D01*
X278351023Y-155900454D01*
X278385289Y-155919978D01*
X278420365Y-155943246D01*
X278456121Y-155970190D01*
X278457762Y-155971509D01*
X278471012Y-155982733D01*
X278486309Y-155996524D01*
X278503062Y-156012289D01*
X278520677Y-156029435D01*
X278538561Y-156047369D01*
X278556122Y-156065498D01*
X278572769Y-156083229D01*
X278587907Y-156099969D01*
X278600945Y-156115125D01*
X278601870Y-156116238D01*
X278649804Y-156176472D01*
X278696118Y-156239737D01*
X278740623Y-156305644D01*
X278783129Y-156373801D01*
X278823445Y-156443821D01*
X278861381Y-156515313D01*
X278896748Y-156587887D01*
X278929355Y-156661153D01*
X278959013Y-156734723D01*
X278985530Y-156808205D01*
X279008717Y-156881211D01*
X279028384Y-156953350D01*
X279044342Y-157024233D01*
X279045109Y-157028091D01*
X279054221Y-157078947D01*
X279061292Y-157128682D01*
X279066327Y-157177034D01*
X279069334Y-157223741D01*
X279070316Y-157268541D01*
X279069281Y-157311172D01*
X279066235Y-157351372D01*
X279061182Y-157388880D01*
X279054129Y-157423433D01*
X279045083Y-157454769D01*
X279034048Y-157482627D01*
X279025382Y-157499462D01*
X279010089Y-157522384D01*
X278992365Y-157541985D01*
X278972358Y-157558154D01*
X278950211Y-157570781D01*
X278926071Y-157579755D01*
X278900082Y-157584963D01*
X278890497Y-157585912D01*
X278860539Y-157586181D01*
X278829318Y-157582576D01*
X278797053Y-157575144D01*
X278763966Y-157563931D01*
X278730277Y-157548984D01*
X278725951Y-157546814D01*
X278689258Y-157526280D01*
X278652035Y-157501727D01*
X278614415Y-157473298D01*
X278576531Y-157441135D01*
X278538517Y-157405383D01*
X278500506Y-157366182D01*
X278462630Y-157323676D01*
X278425024Y-157278008D01*
X278387820Y-157229321D01*
X278351152Y-157177756D01*
X278315153Y-157123457D01*
X278279956Y-157066567D01*
X278258160Y-157029155D01*
X278222249Y-156963151D01*
X278188204Y-156894998D01*
X278156240Y-156825244D01*
X278126572Y-156754439D01*
X278099415Y-156683133D01*
X278074985Y-156611875D01*
X278053498Y-156541214D01*
X278035168Y-156471701D01*
X278020211Y-156403884D01*
X278012235Y-156359715D01*
X278005661Y-156314611D01*
X278000857Y-156270754D01*
X277997847Y-156228567D01*
X277996650Y-156188473D01*
X277997288Y-156150894D01*
X277999784Y-156116252D01*
X278004156Y-156084972D01*
X278011206Y-156053518D01*
X278021193Y-156022068D01*
X278033605Y-155992608D01*
X278048236Y-155965410D01*
X278064882Y-155940745D01*
X278083335Y-155918884D01*
X278103390Y-155900099D01*
X278124842Y-155884661D01*
X278147483Y-155872841D01*
X278171109Y-155864911D01*
X278177143Y-155863698D01*
X278191015Y-155862122D01*
X278207027Y-155861481D01*
X278223878Y-155861771D01*
X278223878Y-155861771D01*
G37*
X278223878Y-155861771D02*
X278240269Y-155862989D01*
X278254898Y-155865131D01*
X278285449Y-155872914D01*
X278317699Y-155884743D01*
X278351023Y-155900454D01*
X278385289Y-155919978D01*
X278420365Y-155943246D01*
X278456121Y-155970190D01*
X278457762Y-155971509D01*
X278471012Y-155982733D01*
X278486309Y-155996524D01*
X278503062Y-156012289D01*
X278520677Y-156029435D01*
X278538561Y-156047369D01*
X278556122Y-156065498D01*
X278572769Y-156083229D01*
X278587907Y-156099969D01*
X278600945Y-156115125D01*
X278601870Y-156116238D01*
X278649804Y-156176472D01*
X278696118Y-156239737D01*
X278740623Y-156305644D01*
X278783129Y-156373801D01*
X278823445Y-156443821D01*
X278861381Y-156515313D01*
X278896748Y-156587887D01*
X278929355Y-156661153D01*
X278959013Y-156734723D01*
X278985530Y-156808205D01*
X279008717Y-156881211D01*
X279028384Y-156953350D01*
X279044342Y-157024233D01*
X279045109Y-157028091D01*
X279054221Y-157078947D01*
X279061292Y-157128682D01*
X279066327Y-157177034D01*
X279069334Y-157223741D01*
X279070316Y-157268541D01*
X279069281Y-157311172D01*
X279066235Y-157351372D01*
X279061182Y-157388880D01*
X279054129Y-157423433D01*
X279045083Y-157454769D01*
X279034048Y-157482627D01*
X279025382Y-157499462D01*
X279010089Y-157522384D01*
X278992365Y-157541985D01*
X278972358Y-157558154D01*
X278950211Y-157570781D01*
X278926071Y-157579755D01*
X278900082Y-157584963D01*
X278890497Y-157585912D01*
X278860539Y-157586181D01*
X278829318Y-157582576D01*
X278797053Y-157575144D01*
X278763966Y-157563931D01*
X278730277Y-157548984D01*
X278725951Y-157546814D01*
X278689258Y-157526280D01*
X278652035Y-157501727D01*
X278614415Y-157473298D01*
X278576531Y-157441135D01*
X278538517Y-157405383D01*
X278500506Y-157366182D01*
X278462630Y-157323676D01*
X278425024Y-157278008D01*
X278387820Y-157229321D01*
X278351152Y-157177756D01*
X278315153Y-157123457D01*
X278279956Y-157066567D01*
X278258160Y-157029155D01*
X278222249Y-156963151D01*
X278188204Y-156894998D01*
X278156240Y-156825244D01*
X278126572Y-156754439D01*
X278099415Y-156683133D01*
X278074985Y-156611875D01*
X278053498Y-156541214D01*
X278035168Y-156471701D01*
X278020211Y-156403884D01*
X278012235Y-156359715D01*
X278005661Y-156314611D01*
X278000857Y-156270754D01*
X277997847Y-156228567D01*
X277996650Y-156188473D01*
X277997288Y-156150894D01*
X277999784Y-156116252D01*
X278004156Y-156084972D01*
X278011206Y-156053518D01*
X278021193Y-156022068D01*
X278033605Y-155992608D01*
X278048236Y-155965410D01*
X278064882Y-155940745D01*
X278083335Y-155918884D01*
X278103390Y-155900099D01*
X278124842Y-155884661D01*
X278147483Y-155872841D01*
X278171109Y-155864911D01*
X278177143Y-155863698D01*
X278191015Y-155862122D01*
X278207027Y-155861481D01*
X278223878Y-155861771D01*
D14*
X164961479Y-154015016D03*
D15*
X164981250Y-153725000D02*
X164941708Y-154305032D01*
D14*
X164941250Y-154305000D03*
X170636255Y-152495004D03*
D15*
X171291250Y-151765000D02*
X169981260Y-153225008D01*
D16*
X167481250Y-149225000D03*
D14*
X169981250Y-153225000D03*
D17*
X172561250Y-149225000D03*
X162401250Y-149225000D03*
D18*
X162481250Y-153025000D03*
X167481250Y-155125000D03*
D19*
X172981250Y-149225000D03*
X161981250Y-149225000D03*
D20*
X172701250Y-145025000D03*
D16*
X155543250Y-140970000D03*
D21*
X155543250Y-156210000D03*
D16*
X179419250Y-140970000D03*
D21*
X179419250Y-156210000D03*
D14*
X126861479Y-154015016D03*
D15*
X126881250Y-153725000D02*
X126841708Y-154305032D01*
D14*
X126841250Y-154305000D03*
X132536255Y-152495004D03*
D15*
X133191250Y-151765000D02*
X131881260Y-153225008D01*
D16*
X129381250Y-149225000D03*
D14*
X131881250Y-153225000D03*
D17*
X134461250Y-149225000D03*
X124301250Y-149225000D03*
D18*
X124381250Y-153025000D03*
X129381250Y-155125000D03*
D19*
X134881250Y-149225000D03*
X123881250Y-149225000D03*
D20*
X134601250Y-145025000D03*
D16*
X117443250Y-140970000D03*
D21*
X117443250Y-156210000D03*
D16*
X141319250Y-140970000D03*
D21*
X141319250Y-156210000D03*
D14*
X145911479Y-154015016D03*
D15*
X145931250Y-153725000D02*
X145891708Y-154305032D01*
D14*
X145891250Y-154305000D03*
X151586255Y-152495004D03*
D15*
X152241250Y-151765000D02*
X150931260Y-153225008D01*
D16*
X148431250Y-149225000D03*
D14*
X150931250Y-153225000D03*
D17*
X153511250Y-149225000D03*
X143351250Y-149225000D03*
D18*
X143431250Y-153025000D03*
X148431250Y-155125000D03*
D19*
X153931250Y-149225000D03*
X142931250Y-149225000D03*
D20*
X153651250Y-145025000D03*
D16*
X136493250Y-140970000D03*
D21*
X136493250Y-156210000D03*
D16*
X160369250Y-140970000D03*
D21*
X160369250Y-156210000D03*
D20*
X38436250Y-77225000D03*
D19*
X49156250Y-73025000D03*
X38156250Y-73025000D03*
D18*
X43656250Y-67125000D03*
X48656250Y-69225000D03*
D17*
X48736250Y-73025000D03*
X38576250Y-73025000D03*
D14*
X41156250Y-69025000D03*
D16*
X43656250Y-73025000D03*
D14*
X40501245Y-69754996D03*
D15*
X39846250Y-70485000D02*
X41156240Y-69024992D01*
D14*
X46196250Y-67945000D03*
X46176021Y-68234984D03*
D15*
X46156250Y-68525000D02*
X46195792Y-67944968D01*
D20*
X19386250Y-77225000D03*
D19*
X30106250Y-73025000D03*
X19106250Y-73025000D03*
D18*
X24606250Y-67125000D03*
X29606250Y-69225000D03*
D17*
X29686250Y-73025000D03*
X19526250Y-73025000D03*
D14*
X22106250Y-69025000D03*
D16*
X24606250Y-73025000D03*
D14*
X21451245Y-69754996D03*
D15*
X20796250Y-70485000D02*
X22106240Y-69024992D01*
D14*
X27146250Y-67945000D03*
X27126021Y-68234984D03*
D15*
X27106250Y-68525000D02*
X27145792Y-67944968D01*
D20*
X133686250Y-115325000D03*
D19*
X144406250Y-111125000D03*
X133406250Y-111125000D03*
D18*
X138906250Y-105225000D03*
X143906250Y-107325000D03*
D17*
X143986250Y-111125000D03*
X133826250Y-111125000D03*
D14*
X136406250Y-107125000D03*
D16*
X138906250Y-111125000D03*
D14*
X135751245Y-107854996D03*
D15*
X135096250Y-108585000D02*
X136406240Y-107124992D01*
D14*
X141446250Y-106045000D03*
X141426021Y-106334984D03*
D15*
X141406250Y-106625000D02*
X141445792Y-106044968D01*
D20*
X209886250Y-96275000D03*
D19*
X220606250Y-92075000D03*
X209606250Y-92075000D03*
D18*
X215106250Y-86175000D03*
X220106250Y-88275000D03*
D17*
X220186250Y-92075000D03*
X210026250Y-92075000D03*
D14*
X212606250Y-88075000D03*
D16*
X215106250Y-92075000D03*
D14*
X211951245Y-88804996D03*
D15*
X211296250Y-89535000D02*
X212606240Y-88074992D01*
D14*
X217646250Y-86995000D03*
X217626021Y-87284984D03*
D15*
X217606250Y-87575000D02*
X217645792Y-86994968D01*
D20*
X228936250Y-77225000D03*
D19*
X239656250Y-73025000D03*
X228656250Y-73025000D03*
D18*
X234156250Y-67125000D03*
X239156250Y-69225000D03*
D17*
X239236250Y-73025000D03*
X229076250Y-73025000D03*
D14*
X231656250Y-69025000D03*
D16*
X234156250Y-73025000D03*
D14*
X231001245Y-69754996D03*
D15*
X230346250Y-70485000D02*
X231656240Y-69024992D01*
D14*
X236696250Y-67945000D03*
X236676021Y-68234984D03*
D15*
X236656250Y-68525000D02*
X236695792Y-67944968D01*
D20*
X19386250Y-96275000D03*
D19*
X30106250Y-92075000D03*
X19106250Y-92075000D03*
D18*
X24606250Y-86175000D03*
X29606250Y-88275000D03*
D17*
X29686250Y-92075000D03*
X19526250Y-92075000D03*
D14*
X22106250Y-88075000D03*
D16*
X24606250Y-92075000D03*
D14*
X21451245Y-88804996D03*
D15*
X20796250Y-89535000D02*
X22106240Y-88074992D01*
D14*
X27146250Y-86995000D03*
X27126021Y-87284984D03*
D15*
X27106250Y-87575000D02*
X27145792Y-86994968D01*
D20*
X19386250Y-115325000D03*
D19*
X30106250Y-111125000D03*
X19106250Y-111125000D03*
D18*
X24606250Y-105225000D03*
X29606250Y-107325000D03*
D17*
X29686250Y-111125000D03*
X19526250Y-111125000D03*
D14*
X22106250Y-107125000D03*
D16*
X24606250Y-111125000D03*
D14*
X21451245Y-107854996D03*
D15*
X20796250Y-108585000D02*
X22106240Y-107124992D01*
D14*
X27146250Y-106045000D03*
X27126021Y-106334984D03*
D15*
X27106250Y-106625000D02*
X27145792Y-106044968D01*
D20*
X19386250Y-134375000D03*
D19*
X30106250Y-130175000D03*
X19106250Y-130175000D03*
D18*
X24606250Y-124275000D03*
X29606250Y-126375000D03*
D17*
X29686250Y-130175000D03*
X19526250Y-130175000D03*
D14*
X22106250Y-126175000D03*
D16*
X24606250Y-130175000D03*
D14*
X21451245Y-126904996D03*
D15*
X20796250Y-127635000D02*
X22106240Y-126174992D01*
D14*
X27146250Y-125095000D03*
X27126021Y-125384984D03*
D15*
X27106250Y-125675000D02*
X27145792Y-125094968D01*
D20*
X19386250Y-153425000D03*
D19*
X30106250Y-149225000D03*
X19106250Y-149225000D03*
D18*
X24606250Y-143325000D03*
X29606250Y-145425000D03*
D17*
X29686250Y-149225000D03*
X19526250Y-149225000D03*
D14*
X22106250Y-145225000D03*
D16*
X24606250Y-149225000D03*
D14*
X21451245Y-145954996D03*
D15*
X20796250Y-146685000D02*
X22106240Y-145224992D01*
D14*
X27146250Y-144145000D03*
X27126021Y-144434984D03*
D15*
X27106250Y-144725000D02*
X27145792Y-144144968D01*
D20*
X38436250Y-96275000D03*
D19*
X49156250Y-92075000D03*
X38156250Y-92075000D03*
D18*
X43656250Y-86175000D03*
X48656250Y-88275000D03*
D17*
X48736250Y-92075000D03*
X38576250Y-92075000D03*
D14*
X41156250Y-88075000D03*
D16*
X43656250Y-92075000D03*
D14*
X40501245Y-88804996D03*
D15*
X39846250Y-89535000D02*
X41156240Y-88074992D01*
D14*
X46196250Y-86995000D03*
X46176021Y-87284984D03*
D15*
X46156250Y-87575000D02*
X46195792Y-86994968D01*
D20*
X38436250Y-115325000D03*
D19*
X49156250Y-111125000D03*
X38156250Y-111125000D03*
D18*
X43656250Y-105225000D03*
X48656250Y-107325000D03*
D17*
X48736250Y-111125000D03*
X38576250Y-111125000D03*
D14*
X41156250Y-107125000D03*
D16*
X43656250Y-111125000D03*
D14*
X40501245Y-107854996D03*
D15*
X39846250Y-108585000D02*
X41156240Y-107124992D01*
D14*
X46196250Y-106045000D03*
X46176021Y-106334984D03*
D15*
X46156250Y-106625000D02*
X46195792Y-106044968D01*
D20*
X38436250Y-134375000D03*
D19*
X49156250Y-130175000D03*
X38156250Y-130175000D03*
D18*
X43656250Y-124275000D03*
X48656250Y-126375000D03*
D17*
X48736250Y-130175000D03*
X38576250Y-130175000D03*
D14*
X41156250Y-126175000D03*
D16*
X43656250Y-130175000D03*
D14*
X40501245Y-126904996D03*
D15*
X39846250Y-127635000D02*
X41156240Y-126174992D01*
D14*
X46196250Y-125095000D03*
X46176021Y-125384984D03*
D15*
X46156250Y-125675000D02*
X46195792Y-125094968D01*
D20*
X38436250Y-153425000D03*
D19*
X49156250Y-149225000D03*
X38156250Y-149225000D03*
D18*
X43656250Y-143325000D03*
X48656250Y-145425000D03*
D17*
X48736250Y-149225000D03*
X38576250Y-149225000D03*
D14*
X41156250Y-145225000D03*
D16*
X43656250Y-149225000D03*
D14*
X40501245Y-145954996D03*
D15*
X39846250Y-146685000D02*
X41156240Y-145224992D01*
D14*
X46196250Y-144145000D03*
X46176021Y-144434984D03*
D15*
X46156250Y-144725000D02*
X46195792Y-144144968D01*
D20*
X57486250Y-77225000D03*
D19*
X68206250Y-73025000D03*
X57206250Y-73025000D03*
D18*
X62706250Y-67125000D03*
X67706250Y-69225000D03*
D17*
X67786250Y-73025000D03*
X57626250Y-73025000D03*
D14*
X60206250Y-69025000D03*
D16*
X62706250Y-73025000D03*
D14*
X59551245Y-69754996D03*
D15*
X58896250Y-70485000D02*
X60206240Y-69024992D01*
D14*
X65246250Y-67945000D03*
X65226021Y-68234984D03*
D15*
X65206250Y-68525000D02*
X65245792Y-67944968D01*
D20*
X57486250Y-96275000D03*
D19*
X68206250Y-92075000D03*
X57206250Y-92075000D03*
D18*
X62706250Y-86175000D03*
X67706250Y-88275000D03*
D17*
X67786250Y-92075000D03*
X57626250Y-92075000D03*
D14*
X60206250Y-88075000D03*
D16*
X62706250Y-92075000D03*
D14*
X59551245Y-88804996D03*
D15*
X58896250Y-89535000D02*
X60206240Y-88074992D01*
D14*
X65246250Y-86995000D03*
X65226021Y-87284984D03*
D15*
X65206250Y-87575000D02*
X65245792Y-86994968D01*
D20*
X57486250Y-115325000D03*
D19*
X68206250Y-111125000D03*
X57206250Y-111125000D03*
D18*
X62706250Y-105225000D03*
X67706250Y-107325000D03*
D17*
X67786250Y-111125000D03*
X57626250Y-111125000D03*
D14*
X60206250Y-107125000D03*
D16*
X62706250Y-111125000D03*
D14*
X59551245Y-107854996D03*
D15*
X58896250Y-108585000D02*
X60206240Y-107124992D01*
D14*
X65246250Y-106045000D03*
X65226021Y-106334984D03*
D15*
X65206250Y-106625000D02*
X65245792Y-106044968D01*
D20*
X57486250Y-134375000D03*
D19*
X68206250Y-130175000D03*
X57206250Y-130175000D03*
D18*
X62706250Y-124275000D03*
X67706250Y-126375000D03*
D17*
X67786250Y-130175000D03*
X57626250Y-130175000D03*
D14*
X60206250Y-126175000D03*
D16*
X62706250Y-130175000D03*
D14*
X59551245Y-126904996D03*
D15*
X58896250Y-127635000D02*
X60206240Y-126174992D01*
D14*
X65246250Y-125095000D03*
X65226021Y-125384984D03*
D15*
X65206250Y-125675000D02*
X65245792Y-125094968D01*
D20*
X57486250Y-153425000D03*
D19*
X68206250Y-149225000D03*
X57206250Y-149225000D03*
D18*
X62706250Y-143325000D03*
X67706250Y-145425000D03*
D17*
X67786250Y-149225000D03*
X57626250Y-149225000D03*
D14*
X60206250Y-145225000D03*
D16*
X62706250Y-149225000D03*
D14*
X59551245Y-145954996D03*
D15*
X58896250Y-146685000D02*
X60206240Y-145224992D01*
D14*
X65246250Y-144145000D03*
X65226021Y-144434984D03*
D15*
X65206250Y-144725000D02*
X65245792Y-144144968D01*
D20*
X76536250Y-77225000D03*
D19*
X87256250Y-73025000D03*
X76256250Y-73025000D03*
D18*
X81756250Y-67125000D03*
X86756250Y-69225000D03*
D17*
X86836250Y-73025000D03*
X76676250Y-73025000D03*
D14*
X79256250Y-69025000D03*
D16*
X81756250Y-73025000D03*
D14*
X78601245Y-69754996D03*
D15*
X77946250Y-70485000D02*
X79256240Y-69024992D01*
D14*
X84296250Y-67945000D03*
X84276021Y-68234984D03*
D15*
X84256250Y-68525000D02*
X84295792Y-67944968D01*
D20*
X76536250Y-96275000D03*
D19*
X87256250Y-92075000D03*
X76256250Y-92075000D03*
D18*
X81756250Y-86175000D03*
X86756250Y-88275000D03*
D17*
X86836250Y-92075000D03*
X76676250Y-92075000D03*
D14*
X79256250Y-88075000D03*
D16*
X81756250Y-92075000D03*
D14*
X78601245Y-88804996D03*
D15*
X77946250Y-89535000D02*
X79256240Y-88074992D01*
D14*
X84296250Y-86995000D03*
X84276021Y-87284984D03*
D15*
X84256250Y-87575000D02*
X84295792Y-86994968D01*
D20*
X76536250Y-115325000D03*
D19*
X87256250Y-111125000D03*
X76256250Y-111125000D03*
D18*
X81756250Y-105225000D03*
X86756250Y-107325000D03*
D17*
X86836250Y-111125000D03*
X76676250Y-111125000D03*
D14*
X79256250Y-107125000D03*
D16*
X81756250Y-111125000D03*
D14*
X78601245Y-107854996D03*
D15*
X77946250Y-108585000D02*
X79256240Y-107124992D01*
D14*
X84296250Y-106045000D03*
X84276021Y-106334984D03*
D15*
X84256250Y-106625000D02*
X84295792Y-106044968D01*
D20*
X76536250Y-134375000D03*
D19*
X87256250Y-130175000D03*
X76256250Y-130175000D03*
D18*
X81756250Y-124275000D03*
X86756250Y-126375000D03*
D17*
X86836250Y-130175000D03*
X76676250Y-130175000D03*
D14*
X79256250Y-126175000D03*
D16*
X81756250Y-130175000D03*
D14*
X78601245Y-126904996D03*
D15*
X77946250Y-127635000D02*
X79256240Y-126174992D01*
D14*
X84296250Y-125095000D03*
X84276021Y-125384984D03*
D15*
X84256250Y-125675000D02*
X84295792Y-125094968D01*
D20*
X76536250Y-153425000D03*
D19*
X87256250Y-149225000D03*
X76256250Y-149225000D03*
D18*
X81756250Y-143325000D03*
X86756250Y-145425000D03*
D17*
X86836250Y-149225000D03*
X76676250Y-149225000D03*
D14*
X79256250Y-145225000D03*
D16*
X81756250Y-149225000D03*
D14*
X78601245Y-145954996D03*
D15*
X77946250Y-146685000D02*
X79256240Y-145224992D01*
D14*
X84296250Y-144145000D03*
X84276021Y-144434984D03*
D15*
X84256250Y-144725000D02*
X84295792Y-144144968D01*
D20*
X95586250Y-77225000D03*
D19*
X106306250Y-73025000D03*
X95306250Y-73025000D03*
D18*
X100806250Y-67125000D03*
X105806250Y-69225000D03*
D17*
X105886250Y-73025000D03*
X95726250Y-73025000D03*
D14*
X98306250Y-69025000D03*
D16*
X100806250Y-73025000D03*
D14*
X97651245Y-69754996D03*
D15*
X96996250Y-70485000D02*
X98306240Y-69024992D01*
D14*
X103346250Y-67945000D03*
X103326021Y-68234984D03*
D15*
X103306250Y-68525000D02*
X103345792Y-67944968D01*
D20*
X95586250Y-96275000D03*
D19*
X106306250Y-92075000D03*
X95306250Y-92075000D03*
D18*
X100806250Y-86175000D03*
X105806250Y-88275000D03*
D17*
X105886250Y-92075000D03*
X95726250Y-92075000D03*
D14*
X98306250Y-88075000D03*
D16*
X100806250Y-92075000D03*
D14*
X97651245Y-88804996D03*
D15*
X96996250Y-89535000D02*
X98306240Y-88074992D01*
D14*
X103346250Y-86995000D03*
X103326021Y-87284984D03*
D15*
X103306250Y-87575000D02*
X103345792Y-86994968D01*
D20*
X95586250Y-115325000D03*
D19*
X106306250Y-111125000D03*
X95306250Y-111125000D03*
D18*
X100806250Y-105225000D03*
X105806250Y-107325000D03*
D17*
X105886250Y-111125000D03*
X95726250Y-111125000D03*
D14*
X98306250Y-107125000D03*
D16*
X100806250Y-111125000D03*
D14*
X97651245Y-107854996D03*
D15*
X96996250Y-108585000D02*
X98306240Y-107124992D01*
D14*
X103346250Y-106045000D03*
X103326021Y-106334984D03*
D15*
X103306250Y-106625000D02*
X103345792Y-106044968D01*
D20*
X95586250Y-134375000D03*
D19*
X106306250Y-130175000D03*
X95306250Y-130175000D03*
D18*
X100806250Y-124275000D03*
X105806250Y-126375000D03*
D17*
X105886250Y-130175000D03*
X95726250Y-130175000D03*
D14*
X98306250Y-126175000D03*
D16*
X100806250Y-130175000D03*
D14*
X97651245Y-126904996D03*
D15*
X96996250Y-127635000D02*
X98306240Y-126174992D01*
D14*
X103346250Y-125095000D03*
X103326021Y-125384984D03*
D15*
X103306250Y-125675000D02*
X103345792Y-125094968D01*
D20*
X95586250Y-153425000D03*
D19*
X106306250Y-149225000D03*
X95306250Y-149225000D03*
D18*
X100806250Y-143325000D03*
X105806250Y-145425000D03*
D17*
X105886250Y-149225000D03*
X95726250Y-149225000D03*
D14*
X98306250Y-145225000D03*
D16*
X100806250Y-149225000D03*
D14*
X97651245Y-145954996D03*
D15*
X96996250Y-146685000D02*
X98306240Y-145224992D01*
D14*
X103346250Y-144145000D03*
X103326021Y-144434984D03*
D15*
X103306250Y-144725000D02*
X103345792Y-144144968D01*
D20*
X114636250Y-77225000D03*
D19*
X125356250Y-73025000D03*
X114356250Y-73025000D03*
D18*
X119856250Y-67125000D03*
X124856250Y-69225000D03*
D17*
X124936250Y-73025000D03*
X114776250Y-73025000D03*
D14*
X117356250Y-69025000D03*
D16*
X119856250Y-73025000D03*
D14*
X116701245Y-69754996D03*
D15*
X116046250Y-70485000D02*
X117356240Y-69024992D01*
D14*
X122396250Y-67945000D03*
X122376021Y-68234984D03*
D15*
X122356250Y-68525000D02*
X122395792Y-67944968D01*
D20*
X114636250Y-96275000D03*
D19*
X125356250Y-92075000D03*
X114356250Y-92075000D03*
D18*
X119856250Y-86175000D03*
X124856250Y-88275000D03*
D17*
X124936250Y-92075000D03*
X114776250Y-92075000D03*
D14*
X117356250Y-88075000D03*
D16*
X119856250Y-92075000D03*
D14*
X116701245Y-88804996D03*
D15*
X116046250Y-89535000D02*
X117356240Y-88074992D01*
D14*
X122396250Y-86995000D03*
X122376021Y-87284984D03*
D15*
X122356250Y-87575000D02*
X122395792Y-86994968D01*
D20*
X114636250Y-115325000D03*
D19*
X125356250Y-111125000D03*
X114356250Y-111125000D03*
D18*
X119856250Y-105225000D03*
X124856250Y-107325000D03*
D17*
X124936250Y-111125000D03*
X114776250Y-111125000D03*
D14*
X117356250Y-107125000D03*
D16*
X119856250Y-111125000D03*
D14*
X116701245Y-107854996D03*
D15*
X116046250Y-108585000D02*
X117356240Y-107124992D01*
D14*
X122396250Y-106045000D03*
X122376021Y-106334984D03*
D15*
X122356250Y-106625000D02*
X122395792Y-106044968D01*
D20*
X114636250Y-134375000D03*
D19*
X125356250Y-130175000D03*
X114356250Y-130175000D03*
D18*
X119856250Y-124275000D03*
X124856250Y-126375000D03*
D17*
X124936250Y-130175000D03*
X114776250Y-130175000D03*
D14*
X117356250Y-126175000D03*
D16*
X119856250Y-130175000D03*
D14*
X116701245Y-126904996D03*
D15*
X116046250Y-127635000D02*
X117356240Y-126174992D01*
D14*
X122396250Y-125095000D03*
X122376021Y-125384984D03*
D15*
X122356250Y-125675000D02*
X122395792Y-125094968D01*
D20*
X114636250Y-153425000D03*
D19*
X125356250Y-149225000D03*
X114356250Y-149225000D03*
D18*
X119856250Y-143325000D03*
X124856250Y-145425000D03*
D17*
X124936250Y-149225000D03*
X114776250Y-149225000D03*
D14*
X117356250Y-145225000D03*
D16*
X119856250Y-149225000D03*
D14*
X116701245Y-145954996D03*
D15*
X116046250Y-146685000D02*
X117356240Y-145224992D01*
D14*
X122396250Y-144145000D03*
X122376021Y-144434984D03*
D15*
X122356250Y-144725000D02*
X122395792Y-144144968D01*
D20*
X133686250Y-77225000D03*
D19*
X144406250Y-73025000D03*
X133406250Y-73025000D03*
D18*
X138906250Y-67125000D03*
X143906250Y-69225000D03*
D17*
X143986250Y-73025000D03*
X133826250Y-73025000D03*
D14*
X136406250Y-69025000D03*
D16*
X138906250Y-73025000D03*
D14*
X135751245Y-69754996D03*
D15*
X135096250Y-70485000D02*
X136406240Y-69024992D01*
D14*
X141446250Y-67945000D03*
X141426021Y-68234984D03*
D15*
X141406250Y-68525000D02*
X141445792Y-67944968D01*
D20*
X133686250Y-96275000D03*
D19*
X144406250Y-92075000D03*
X133406250Y-92075000D03*
D18*
X138906250Y-86175000D03*
X143906250Y-88275000D03*
D17*
X143986250Y-92075000D03*
X133826250Y-92075000D03*
D14*
X136406250Y-88075000D03*
D16*
X138906250Y-92075000D03*
D14*
X135751245Y-88804996D03*
D15*
X135096250Y-89535000D02*
X136406240Y-88074992D01*
D14*
X141446250Y-86995000D03*
X141426021Y-87284984D03*
D15*
X141406250Y-87575000D02*
X141445792Y-86994968D01*
D20*
X133686250Y-134375000D03*
D19*
X144406250Y-130175000D03*
X133406250Y-130175000D03*
D18*
X138906250Y-124275000D03*
X143906250Y-126375000D03*
D17*
X143986250Y-130175000D03*
X133826250Y-130175000D03*
D14*
X136406250Y-126175000D03*
D16*
X138906250Y-130175000D03*
D14*
X135751245Y-126904996D03*
D15*
X135096250Y-127635000D02*
X136406240Y-126174992D01*
D14*
X141446250Y-125095000D03*
X141426021Y-125384984D03*
D15*
X141406250Y-125675000D02*
X141445792Y-125094968D01*
D20*
X133686250Y-153425000D03*
D19*
X144406250Y-149225000D03*
X133406250Y-149225000D03*
D18*
X138906250Y-143325000D03*
X143906250Y-145425000D03*
D17*
X143986250Y-149225000D03*
X133826250Y-149225000D03*
D14*
X136406250Y-145225000D03*
D16*
X138906250Y-149225000D03*
D14*
X135751245Y-145954996D03*
D15*
X135096250Y-146685000D02*
X136406240Y-145224992D01*
D14*
X141446250Y-144145000D03*
X141426021Y-144434984D03*
D15*
X141406250Y-144725000D02*
X141445792Y-144144968D01*
D20*
X152736250Y-77225000D03*
D19*
X163456250Y-73025000D03*
X152456250Y-73025000D03*
D18*
X157956250Y-67125000D03*
X162956250Y-69225000D03*
D17*
X163036250Y-73025000D03*
X152876250Y-73025000D03*
D14*
X155456250Y-69025000D03*
D16*
X157956250Y-73025000D03*
D14*
X154801245Y-69754996D03*
D15*
X154146250Y-70485000D02*
X155456240Y-69024992D01*
D14*
X160496250Y-67945000D03*
X160476021Y-68234984D03*
D15*
X160456250Y-68525000D02*
X160495792Y-67944968D01*
D20*
X152736250Y-96275000D03*
D19*
X163456250Y-92075000D03*
X152456250Y-92075000D03*
D18*
X157956250Y-86175000D03*
X162956250Y-88275000D03*
D17*
X163036250Y-92075000D03*
X152876250Y-92075000D03*
D14*
X155456250Y-88075000D03*
D16*
X157956250Y-92075000D03*
D14*
X154801245Y-88804996D03*
D15*
X154146250Y-89535000D02*
X155456240Y-88074992D01*
D14*
X160496250Y-86995000D03*
X160476021Y-87284984D03*
D15*
X160456250Y-87575000D02*
X160495792Y-86994968D01*
D20*
X152736250Y-115325000D03*
D19*
X163456250Y-111125000D03*
X152456250Y-111125000D03*
D18*
X157956250Y-105225000D03*
X162956250Y-107325000D03*
D17*
X163036250Y-111125000D03*
X152876250Y-111125000D03*
D14*
X155456250Y-107125000D03*
D16*
X157956250Y-111125000D03*
D14*
X154801245Y-107854996D03*
D15*
X154146250Y-108585000D02*
X155456240Y-107124992D01*
D14*
X160496250Y-106045000D03*
X160476021Y-106334984D03*
D15*
X160456250Y-106625000D02*
X160495792Y-106044968D01*
D20*
X152736250Y-134375000D03*
D19*
X163456250Y-130175000D03*
X152456250Y-130175000D03*
D18*
X157956250Y-124275000D03*
X162956250Y-126375000D03*
D17*
X163036250Y-130175000D03*
X152876250Y-130175000D03*
D14*
X155456250Y-126175000D03*
D16*
X157956250Y-130175000D03*
D14*
X154801245Y-126904996D03*
D15*
X154146250Y-127635000D02*
X155456240Y-126174992D01*
D14*
X160496250Y-125095000D03*
X160476021Y-125384984D03*
D15*
X160456250Y-125675000D02*
X160495792Y-125094968D01*
D20*
X152736250Y-153425000D03*
D19*
X163456250Y-149225000D03*
X152456250Y-149225000D03*
D18*
X157956250Y-143325000D03*
X162956250Y-145425000D03*
D17*
X163036250Y-149225000D03*
X152876250Y-149225000D03*
D14*
X155456250Y-145225000D03*
D16*
X157956250Y-149225000D03*
D14*
X154801245Y-145954996D03*
D15*
X154146250Y-146685000D02*
X155456240Y-145224992D01*
D14*
X160496250Y-144145000D03*
X160476021Y-144434984D03*
D15*
X160456250Y-144725000D02*
X160495792Y-144144968D01*
D20*
X171786250Y-77225000D03*
D19*
X182506250Y-73025000D03*
X171506250Y-73025000D03*
D18*
X177006250Y-67125000D03*
X182006250Y-69225000D03*
D17*
X182086250Y-73025000D03*
X171926250Y-73025000D03*
D14*
X174506250Y-69025000D03*
D16*
X177006250Y-73025000D03*
D14*
X173851245Y-69754996D03*
D15*
X173196250Y-70485000D02*
X174506240Y-69024992D01*
D14*
X179546250Y-67945000D03*
X179526021Y-68234984D03*
D15*
X179506250Y-68525000D02*
X179545792Y-67944968D01*
D20*
X171786250Y-96275000D03*
D19*
X182506250Y-92075000D03*
X171506250Y-92075000D03*
D18*
X177006250Y-86175000D03*
X182006250Y-88275000D03*
D17*
X182086250Y-92075000D03*
X171926250Y-92075000D03*
D14*
X174506250Y-88075000D03*
D16*
X177006250Y-92075000D03*
D14*
X173851245Y-88804996D03*
D15*
X173196250Y-89535000D02*
X174506240Y-88074992D01*
D14*
X179546250Y-86995000D03*
X179526021Y-87284984D03*
D15*
X179506250Y-87575000D02*
X179545792Y-86994968D01*
D20*
X171786250Y-115325000D03*
D19*
X182506250Y-111125000D03*
X171506250Y-111125000D03*
D18*
X177006250Y-105225000D03*
X182006250Y-107325000D03*
D17*
X182086250Y-111125000D03*
X171926250Y-111125000D03*
D14*
X174506250Y-107125000D03*
D16*
X177006250Y-111125000D03*
D14*
X173851245Y-107854996D03*
D15*
X173196250Y-108585000D02*
X174506240Y-107124992D01*
D14*
X179546250Y-106045000D03*
X179526021Y-106334984D03*
D15*
X179506250Y-106625000D02*
X179545792Y-106044968D01*
D20*
X171786250Y-134375000D03*
D19*
X182506250Y-130175000D03*
X171506250Y-130175000D03*
D18*
X177006250Y-124275000D03*
X182006250Y-126375000D03*
D17*
X182086250Y-130175000D03*
X171926250Y-130175000D03*
D14*
X174506250Y-126175000D03*
D16*
X177006250Y-130175000D03*
D14*
X173851245Y-126904996D03*
D15*
X173196250Y-127635000D02*
X174506240Y-126174992D01*
D14*
X179546250Y-125095000D03*
X179526021Y-125384984D03*
D15*
X179506250Y-125675000D02*
X179545792Y-125094968D01*
D20*
X171786250Y-153425000D03*
D19*
X182506250Y-149225000D03*
X171506250Y-149225000D03*
D18*
X177006250Y-143325000D03*
X182006250Y-145425000D03*
D17*
X182086250Y-149225000D03*
X171926250Y-149225000D03*
D14*
X174506250Y-145225000D03*
D16*
X177006250Y-149225000D03*
D14*
X173851245Y-145954996D03*
D15*
X173196250Y-146685000D02*
X174506240Y-145224992D01*
D14*
X179546250Y-144145000D03*
X179526021Y-144434984D03*
D15*
X179506250Y-144725000D02*
X179545792Y-144144968D01*
D20*
X190836250Y-77225000D03*
D19*
X201556250Y-73025000D03*
X190556250Y-73025000D03*
D18*
X196056250Y-67125000D03*
X201056250Y-69225000D03*
D17*
X201136250Y-73025000D03*
X190976250Y-73025000D03*
D14*
X193556250Y-69025000D03*
D16*
X196056250Y-73025000D03*
D14*
X192901245Y-69754996D03*
D15*
X192246250Y-70485000D02*
X193556240Y-69024992D01*
D14*
X198596250Y-67945000D03*
X198576021Y-68234984D03*
D15*
X198556250Y-68525000D02*
X198595792Y-67944968D01*
D20*
X190836250Y-96275000D03*
D19*
X201556250Y-92075000D03*
X190556250Y-92075000D03*
D18*
X196056250Y-86175000D03*
X201056250Y-88275000D03*
D17*
X201136250Y-92075000D03*
X190976250Y-92075000D03*
D14*
X193556250Y-88075000D03*
D16*
X196056250Y-92075000D03*
D14*
X192901245Y-88804996D03*
D15*
X192246250Y-89535000D02*
X193556240Y-88074992D01*
D14*
X198596250Y-86995000D03*
X198576021Y-87284984D03*
D15*
X198556250Y-87575000D02*
X198595792Y-86994968D01*
D20*
X190836250Y-115325000D03*
D19*
X201556250Y-111125000D03*
X190556250Y-111125000D03*
D18*
X196056250Y-105225000D03*
X201056250Y-107325000D03*
D17*
X201136250Y-111125000D03*
X190976250Y-111125000D03*
D14*
X193556250Y-107125000D03*
D16*
X196056250Y-111125000D03*
D14*
X192901245Y-107854996D03*
D15*
X192246250Y-108585000D02*
X193556240Y-107124992D01*
D14*
X198596250Y-106045000D03*
X198576021Y-106334984D03*
D15*
X198556250Y-106625000D02*
X198595792Y-106044968D01*
D20*
X190836250Y-134375000D03*
D19*
X201556250Y-130175000D03*
X190556250Y-130175000D03*
D18*
X196056250Y-124275000D03*
X201056250Y-126375000D03*
D17*
X201136250Y-130175000D03*
X190976250Y-130175000D03*
D14*
X193556250Y-126175000D03*
D16*
X196056250Y-130175000D03*
D14*
X192901245Y-126904996D03*
D15*
X192246250Y-127635000D02*
X193556240Y-126174992D01*
D14*
X198596250Y-125095000D03*
X198576021Y-125384984D03*
D15*
X198556250Y-125675000D02*
X198595792Y-125094968D01*
D20*
X190836250Y-153425000D03*
D19*
X201556250Y-149225000D03*
X190556250Y-149225000D03*
D18*
X196056250Y-143325000D03*
X201056250Y-145425000D03*
D17*
X201136250Y-149225000D03*
X190976250Y-149225000D03*
D14*
X193556250Y-145225000D03*
D16*
X196056250Y-149225000D03*
D14*
X192901245Y-145954996D03*
D15*
X192246250Y-146685000D02*
X193556240Y-145224992D01*
D14*
X198596250Y-144145000D03*
X198576021Y-144434984D03*
D15*
X198556250Y-144725000D02*
X198595792Y-144144968D01*
D20*
X209886250Y-77225000D03*
D19*
X220606250Y-73025000D03*
X209606250Y-73025000D03*
D18*
X215106250Y-67125000D03*
X220106250Y-69225000D03*
D17*
X220186250Y-73025000D03*
X210026250Y-73025000D03*
D14*
X212606250Y-69025000D03*
D16*
X215106250Y-73025000D03*
D14*
X211951245Y-69754996D03*
D15*
X211296250Y-70485000D02*
X212606240Y-69024992D01*
D14*
X217646250Y-67945000D03*
X217626021Y-68234984D03*
D15*
X217606250Y-68525000D02*
X217645792Y-67944968D01*
D20*
X209886250Y-115325000D03*
D19*
X220606250Y-111125000D03*
X209606250Y-111125000D03*
D18*
X215106250Y-105225000D03*
X220106250Y-107325000D03*
D17*
X220186250Y-111125000D03*
X210026250Y-111125000D03*
D14*
X212606250Y-107125000D03*
D16*
X215106250Y-111125000D03*
D14*
X211951245Y-107854996D03*
D15*
X211296250Y-108585000D02*
X212606240Y-107124992D01*
D14*
X217646250Y-106045000D03*
X217626021Y-106334984D03*
D15*
X217606250Y-106625000D02*
X217645792Y-106044968D01*
D20*
X209886250Y-134375000D03*
D19*
X220606250Y-130175000D03*
X209606250Y-130175000D03*
D18*
X215106250Y-124275000D03*
X220106250Y-126375000D03*
D17*
X220186250Y-130175000D03*
X210026250Y-130175000D03*
D14*
X212606250Y-126175000D03*
D16*
X215106250Y-130175000D03*
D14*
X211951245Y-126904996D03*
D15*
X211296250Y-127635000D02*
X212606240Y-126174992D01*
D14*
X217646250Y-125095000D03*
X217626021Y-125384984D03*
D15*
X217606250Y-125675000D02*
X217645792Y-125094968D01*
D20*
X209886250Y-153425000D03*
D19*
X220606250Y-149225000D03*
X209606250Y-149225000D03*
D18*
X215106250Y-143325000D03*
X220106250Y-145425000D03*
D17*
X220186250Y-149225000D03*
X210026250Y-149225000D03*
D14*
X212606250Y-145225000D03*
D16*
X215106250Y-149225000D03*
D14*
X211951245Y-145954996D03*
D15*
X211296250Y-146685000D02*
X212606240Y-145224992D01*
D14*
X217646250Y-144145000D03*
X217626021Y-144434984D03*
D15*
X217606250Y-144725000D02*
X217645792Y-144144968D01*
D20*
X228936250Y-96275000D03*
D19*
X239656250Y-92075000D03*
X228656250Y-92075000D03*
D18*
X234156250Y-86175000D03*
X239156250Y-88275000D03*
D17*
X239236250Y-92075000D03*
X229076250Y-92075000D03*
D14*
X231656250Y-88075000D03*
D16*
X234156250Y-92075000D03*
D14*
X231001245Y-88804996D03*
D15*
X230346250Y-89535000D02*
X231656240Y-88074992D01*
D14*
X236696250Y-86995000D03*
X236676021Y-87284984D03*
D15*
X236656250Y-87575000D02*
X236695792Y-86994968D01*
D20*
X228936250Y-115325000D03*
D19*
X239656250Y-111125000D03*
X228656250Y-111125000D03*
D18*
X234156250Y-105225000D03*
X239156250Y-107325000D03*
D17*
X239236250Y-111125000D03*
X229076250Y-111125000D03*
D14*
X231656250Y-107125000D03*
D16*
X234156250Y-111125000D03*
D14*
X231001245Y-107854996D03*
D15*
X230346250Y-108585000D02*
X231656240Y-107124992D01*
D14*
X236696250Y-106045000D03*
X236676021Y-106334984D03*
D15*
X236656250Y-106625000D02*
X236695792Y-106044968D01*
D20*
X228936250Y-134375000D03*
D19*
X239656250Y-130175000D03*
X228656250Y-130175000D03*
D18*
X234156250Y-124275000D03*
X239156250Y-126375000D03*
D17*
X239236250Y-130175000D03*
X229076250Y-130175000D03*
D14*
X231656250Y-126175000D03*
D16*
X234156250Y-130175000D03*
D14*
X231001245Y-126904996D03*
D15*
X230346250Y-127635000D02*
X231656240Y-126174992D01*
D14*
X236696250Y-125095000D03*
X236676021Y-125384984D03*
D15*
X236656250Y-125675000D02*
X236695792Y-125094968D01*
D20*
X228936250Y-153425000D03*
D19*
X239656250Y-149225000D03*
X228656250Y-149225000D03*
D18*
X234156250Y-143325000D03*
X239156250Y-145425000D03*
D17*
X239236250Y-149225000D03*
X229076250Y-149225000D03*
D14*
X231656250Y-145225000D03*
D16*
X234156250Y-149225000D03*
D14*
X231001245Y-145954996D03*
D15*
X230346250Y-146685000D02*
X231656240Y-145224992D01*
D14*
X236696250Y-144145000D03*
X236676021Y-144434984D03*
D15*
X236656250Y-144725000D02*
X236695792Y-144144968D01*
D20*
X247986250Y-77225000D03*
D19*
X258706250Y-73025000D03*
X247706250Y-73025000D03*
D18*
X253206250Y-67125000D03*
X258206250Y-69225000D03*
D17*
X258286250Y-73025000D03*
X248126250Y-73025000D03*
D14*
X250706250Y-69025000D03*
D16*
X253206250Y-73025000D03*
D14*
X250051245Y-69754996D03*
D15*
X249396250Y-70485000D02*
X250706240Y-69024992D01*
D14*
X255746250Y-67945000D03*
X255726021Y-68234984D03*
D15*
X255706250Y-68525000D02*
X255745792Y-67944968D01*
D20*
X247986250Y-96275000D03*
D19*
X258706250Y-92075000D03*
X247706250Y-92075000D03*
D18*
X253206250Y-86175000D03*
X258206250Y-88275000D03*
D17*
X258286250Y-92075000D03*
X248126250Y-92075000D03*
D14*
X250706250Y-88075000D03*
D16*
X253206250Y-92075000D03*
D14*
X250051245Y-88804996D03*
D15*
X249396250Y-89535000D02*
X250706240Y-88074992D01*
D14*
X255746250Y-86995000D03*
X255726021Y-87284984D03*
D15*
X255706250Y-87575000D02*
X255745792Y-86994968D01*
D20*
X247986250Y-115325000D03*
D19*
X258706250Y-111125000D03*
X247706250Y-111125000D03*
D18*
X253206250Y-105225000D03*
X258206250Y-107325000D03*
D17*
X258286250Y-111125000D03*
X248126250Y-111125000D03*
D14*
X250706250Y-107125000D03*
D16*
X253206250Y-111125000D03*
D14*
X250051245Y-107854996D03*
D15*
X249396250Y-108585000D02*
X250706240Y-107124992D01*
D14*
X255746250Y-106045000D03*
X255726021Y-106334984D03*
D15*
X255706250Y-106625000D02*
X255745792Y-106044968D01*
D20*
X247986250Y-134375000D03*
D19*
X258706250Y-130175000D03*
X247706250Y-130175000D03*
D18*
X253206250Y-124275000D03*
X258206250Y-126375000D03*
D17*
X258286250Y-130175000D03*
X248126250Y-130175000D03*
D14*
X250706250Y-126175000D03*
D16*
X253206250Y-130175000D03*
D14*
X250051245Y-126904996D03*
D15*
X249396250Y-127635000D02*
X250706240Y-126174992D01*
D14*
X255746250Y-125095000D03*
X255726021Y-125384984D03*
D15*
X255706250Y-125675000D02*
X255745792Y-125094968D01*
D20*
X247986250Y-153425000D03*
D19*
X258706250Y-149225000D03*
X247706250Y-149225000D03*
D18*
X253206250Y-143325000D03*
X258206250Y-145425000D03*
D17*
X258286250Y-149225000D03*
X248126250Y-149225000D03*
D14*
X250706250Y-145225000D03*
D16*
X253206250Y-149225000D03*
D14*
X250051245Y-145954996D03*
D15*
X249396250Y-146685000D02*
X250706240Y-145224992D01*
D14*
X255746250Y-144145000D03*
X255726021Y-144434984D03*
D15*
X255706250Y-144725000D02*
X255745792Y-144144968D01*
D20*
X267036250Y-77225000D03*
D19*
X277756250Y-73025000D03*
X266756250Y-73025000D03*
D18*
X272256250Y-67125000D03*
X277256250Y-69225000D03*
D17*
X277336250Y-73025000D03*
X267176250Y-73025000D03*
D14*
X269756250Y-69025000D03*
D16*
X272256250Y-73025000D03*
D14*
X269101245Y-69754996D03*
D15*
X268446250Y-70485000D02*
X269756240Y-69024992D01*
D14*
X274796250Y-67945000D03*
X274776021Y-68234984D03*
D15*
X274756250Y-68525000D02*
X274795792Y-67944968D01*
D20*
X267036250Y-96275000D03*
D19*
X277756250Y-92075000D03*
X266756250Y-92075000D03*
D18*
X272256250Y-86175000D03*
X277256250Y-88275000D03*
D17*
X277336250Y-92075000D03*
X267176250Y-92075000D03*
D14*
X269756250Y-88075000D03*
D16*
X272256250Y-92075000D03*
D14*
X269101245Y-88804996D03*
D15*
X268446250Y-89535000D02*
X269756240Y-88074992D01*
D14*
X274796250Y-86995000D03*
X274776021Y-87284984D03*
D15*
X274756250Y-87575000D02*
X274795792Y-86994968D01*
D20*
X267036250Y-115325000D03*
D19*
X277756250Y-111125000D03*
X266756250Y-111125000D03*
D18*
X272256250Y-105225000D03*
X277256250Y-107325000D03*
D17*
X277336250Y-111125000D03*
X267176250Y-111125000D03*
D14*
X269756250Y-107125000D03*
D16*
X272256250Y-111125000D03*
D14*
X269101245Y-107854996D03*
D15*
X268446250Y-108585000D02*
X269756240Y-107124992D01*
D14*
X274796250Y-106045000D03*
X274776021Y-106334984D03*
D15*
X274756250Y-106625000D02*
X274795792Y-106044968D01*
D20*
X267036250Y-134375000D03*
D19*
X277756250Y-130175000D03*
X266756250Y-130175000D03*
D18*
X272256250Y-124275000D03*
X277256250Y-126375000D03*
D17*
X277336250Y-130175000D03*
X267176250Y-130175000D03*
D14*
X269756250Y-126175000D03*
D16*
X272256250Y-130175000D03*
D14*
X269101245Y-126904996D03*
D15*
X268446250Y-127635000D02*
X269756240Y-126174992D01*
D14*
X274796250Y-125095000D03*
X274776021Y-125384984D03*
D15*
X274756250Y-125675000D02*
X274795792Y-125094968D01*
D20*
X267036250Y-153425000D03*
D19*
X277756250Y-149225000D03*
X266756250Y-149225000D03*
D18*
X272256250Y-143325000D03*
X277256250Y-145425000D03*
D17*
X277336250Y-149225000D03*
X267176250Y-149225000D03*
D14*
X269756250Y-145225000D03*
D16*
X272256250Y-149225000D03*
D14*
X269101245Y-145954996D03*
D15*
X268446250Y-146685000D02*
X269756240Y-145224992D01*
D14*
X274796250Y-144145000D03*
X274776021Y-144434984D03*
D15*
X274756250Y-144725000D02*
X274795792Y-144144968D01*
D22*
X34131250Y-85090000D03*
X34131250Y-82550000D03*
D23*
X34131250Y-80010000D03*
D24*
X26130000Y-56870000D03*
D25*
X28670000Y-56870000D03*
X31210000Y-56870000D03*
X33750000Y-56870000D03*
X36290000Y-56870000D03*
X38830000Y-56870000D03*
X41370000Y-56870000D03*
X43910000Y-56870000D03*
X46450000Y-56870000D03*
X48990000Y-56870000D03*
X51530000Y-56870000D03*
X54070000Y-41630000D03*
X51530000Y-41630000D03*
X48990000Y-41630000D03*
X46450000Y-41630000D03*
X43910000Y-41630000D03*
X41370000Y-41630000D03*
X38830000Y-41630000D03*
X36290000Y-41630000D03*
X33750000Y-41630000D03*
X31210000Y-41630000D03*
X28670000Y-41630000D03*
X54070000Y-56641400D03*
X26130000Y-41630000D03*
X54070000Y-44170000D03*
X54070000Y-46710000D03*
X54070000Y-49250000D03*
X54070000Y-51790000D03*
X54070000Y-54330000D03*
D26*
X258431250Y-45830000D03*
D27*
X258431250Y-40750000D03*
D26*
X254431250Y-52030000D03*
D27*
X254431250Y-46950000D03*
D26*
X250431250Y-58250000D03*
D27*
X250431250Y-53170000D03*
D26*
X250431250Y-45830000D03*
D27*
X250431250Y-40750000D03*
D26*
X246431250Y-52030000D03*
D27*
X246431250Y-46950000D03*
D26*
X242431250Y-45830000D03*
D27*
X242431250Y-40750000D03*
D26*
X242431250Y-58250000D03*
D27*
X242431250Y-53170000D03*
D26*
X238431250Y-52030000D03*
D27*
X238431250Y-46950000D03*
D26*
X234431250Y-58250000D03*
D27*
X234431250Y-53170000D03*
D26*
X234431250Y-45830000D03*
D27*
X234431250Y-40750000D03*
D26*
X230431250Y-52030000D03*
D27*
X230431250Y-46950000D03*
D26*
X226431250Y-45830000D03*
D27*
X226431250Y-40750000D03*
D26*
X226431250Y-58250000D03*
D27*
X226431250Y-53170000D03*
D26*
X222431250Y-52030000D03*
D27*
X222431250Y-46950000D03*
D26*
X218431250Y-45830000D03*
D27*
X218431250Y-40750000D03*
D26*
X218431250Y-58250000D03*
D27*
X218431250Y-53170000D03*
D26*
X214431250Y-52030000D03*
D27*
X214431250Y-46950000D03*
D26*
X210431250Y-58250000D03*
D27*
X210431250Y-53170000D03*
D26*
X210431250Y-45830000D03*
D27*
X210431250Y-40750000D03*
D26*
X206431250Y-52030000D03*
D27*
X206431250Y-46950000D03*
D26*
X202431250Y-58250000D03*
D27*
X202431250Y-53170000D03*
D26*
X202431250Y-45830000D03*
D27*
X202431250Y-40750000D03*
D26*
X198431250Y-52030000D03*
D27*
X198431250Y-46950000D03*
D26*
X194431250Y-58250000D03*
D27*
X194431250Y-53170000D03*
D26*
X190431250Y-52030000D03*
D27*
X190431250Y-46950000D03*
D26*
X194431250Y-45830000D03*
D27*
X194431250Y-40750000D03*
D26*
X186431250Y-45830000D03*
D27*
X186431250Y-40750000D03*
D26*
X186431250Y-58250000D03*
D27*
X186431250Y-53170000D03*
D26*
X182431250Y-52030000D03*
D27*
X182431250Y-46950000D03*
D26*
X178431250Y-45830000D03*
D27*
X178431250Y-40750000D03*
D26*
X178431250Y-58250000D03*
D27*
X178431250Y-53170000D03*
D26*
X174431250Y-52030000D03*
D27*
X174431250Y-46950000D03*
D26*
X170431250Y-45830000D03*
D27*
X170431250Y-40750000D03*
D26*
X170431250Y-58250000D03*
D27*
X170431250Y-53170000D03*
D26*
X166431250Y-52030000D03*
D27*
X166431250Y-46950000D03*
D26*
X162431250Y-58250000D03*
D27*
X162431250Y-53170000D03*
D26*
X162431250Y-45830000D03*
D27*
X162431250Y-40750000D03*
D26*
X158431250Y-52030000D03*
D27*
X158431250Y-46950000D03*
D26*
X154431250Y-58250000D03*
D27*
X154431250Y-53170000D03*
D26*
X154431250Y-45830000D03*
D27*
X154431250Y-40750000D03*
D26*
X150431250Y-52030000D03*
D27*
X150431250Y-46950000D03*
D26*
X146431250Y-58250000D03*
D27*
X146431250Y-53170000D03*
D26*
X146431250Y-45830000D03*
D27*
X146431250Y-40750000D03*
D26*
X142431250Y-52030000D03*
D27*
X142431250Y-46950000D03*
D26*
X138431250Y-45830000D03*
D27*
X138431250Y-40750000D03*
D26*
X138431250Y-58250000D03*
D27*
X138431250Y-53170000D03*
D26*
X134431250Y-52030000D03*
D27*
X134431250Y-46950000D03*
D26*
X130431250Y-45830000D03*
D27*
X130431250Y-40750000D03*
D26*
X130431250Y-58250000D03*
D27*
X130431250Y-53170000D03*
D26*
X126431250Y-52030000D03*
D27*
X126431250Y-46950000D03*
D26*
X122431250Y-58250000D03*
D27*
X122431250Y-53170000D03*
D26*
X122431250Y-45830000D03*
D27*
X122431250Y-40750000D03*
D26*
X118431250Y-52030000D03*
D27*
X118431250Y-46950000D03*
D26*
X114431250Y-45750000D03*
D27*
X114431250Y-40670000D03*
D26*
X114431250Y-58250000D03*
D27*
X114431250Y-53170000D03*
D26*
X110431250Y-52030000D03*
D27*
X110431250Y-46950000D03*
D26*
X106431250Y-45750000D03*
D27*
X106431250Y-40670000D03*
D26*
X106431250Y-58250000D03*
D27*
X106431250Y-53170000D03*
D26*
X102431250Y-52030000D03*
D27*
X102431250Y-46950000D03*
D26*
X98431250Y-58250000D03*
D27*
X98431250Y-53170000D03*
D26*
X98431250Y-45750000D03*
D27*
X98431250Y-40670000D03*
D26*
X94431250Y-52030000D03*
D27*
X94431250Y-46950000D03*
D26*
X90431250Y-58250000D03*
D27*
X90431250Y-53170000D03*
D26*
X90431250Y-45750000D03*
D27*
X90431250Y-40670000D03*
D26*
X86431250Y-52030000D03*
D27*
X86431250Y-46950000D03*
D26*
X82431250Y-58250000D03*
D27*
X82431250Y-53170000D03*
D26*
X82431250Y-45750000D03*
D27*
X82431250Y-40670000D03*
D26*
X78431250Y-52030000D03*
D27*
X78431250Y-46950000D03*
D26*
X74431250Y-58250000D03*
D27*
X74431250Y-53170000D03*
D26*
X74431250Y-45750000D03*
D27*
X74431250Y-40670000D03*
D18*
X66431250Y-52750000D03*
X61931250Y-52750000D03*
X66431250Y-46250000D03*
X61931250Y-46250000D03*
D28*
X18431250Y-58750000D03*
X18431250Y-39750000D03*
X278431250Y-39750000D03*
X278431250Y-58750000D03*
X53181250Y-82550000D03*
X53181250Y-139700000D03*
X148431250Y-82550000D03*
X148431250Y-120650000D03*
X243681250Y-82550000D03*
X243681250Y-139700000D03*
D29*
X270744250Y-55257000D03*
D30*
X270744250Y-57797000D03*
D26*
X266731250Y-56550000D03*
D31*
X261651250Y-56550000D03*
D18*
X27106250Y-66018000D03*
X22106250Y-66018000D03*
D32*
X30206250Y-73018000D03*
X19006250Y-73018000D03*
D18*
X27106250Y-80518000D03*
X24606250Y-80518000D03*
D33*
X22106250Y-80518000D03*
X22106250Y-156718000D03*
D18*
X24606250Y-156718000D03*
X27106250Y-156718000D03*
D32*
X19006250Y-149218000D03*
X30206250Y-149218000D03*
D18*
X22106250Y-142218000D03*
X27106250Y-142218000D03*
M02*
