%TF.GenerationSoftware,KiCad,Pcbnew,(5.99.0-176-g31e38f2fd)*%
%TF.CreationDate,2019-12-28T01:26:03+01:00*%
%TF.ProjectId,5x14_ortho_keyboard_elite-c,35783134-5f6f-4727-9468-6f5f6b657962,rev?*%
%TF.SameCoordinates,Original*%
%TF.FileFunction,Plated,1,2,PTH,Mixed*%
%TF.FilePolarity,Positive*%
%FSLAX46Y46*%
G04 Gerber Fmt 4.6, Leading zero omitted, Abs format (unit mm)*
G04 Created by KiCad (PCBNEW (5.99.0-176-g31e38f2fd)) date 2019-12-28 01:26:03*
%MOMM*%
%LPD*%
G04 APERTURE LIST*
%TA.AperFunction,ViaDrill*%
%ADD10C,0.400000*%
%TD*%
%TA.AperFunction,ComponentDrill*%
%ADD11C,0.700000*%
%TD*%
%TA.AperFunction,ComponentDrill*%
%ADD12C,0.900000*%
%TD*%
%TA.AperFunction,ComponentDrill*%
%ADD13C,1.000000*%
%TD*%
%TA.AperFunction,ComponentDrill*%
%ADD14C,1.092200*%
%TD*%
%TA.AperFunction,ComponentDrill*%
%ADD15C,1.100000*%
%TD*%
%TA.AperFunction,ComponentDrill*%
%ADD16C,1.200000*%
%TD*%
%TA.AperFunction,ComponentDrill*%
%ADD17C,1.470000*%
%TD*%
G04 aperture for slot hole*
%TA.AperFunction,ComponentDrill*%
%ADD18C,1.500000*%
%TD*%
%TA.AperFunction,ComponentDrill*%
%ADD19C,2.200000*%
%TD*%
G04 APERTURE END LIST*
D10*
X31146750Y-63500000D03*
X48761650Y-53319075D03*
X51657250Y-45440600D03*
X59632850Y-59690000D03*
X76531250Y-44950000D03*
X80531250Y-51250000D03*
X84531250Y-44950000D03*
X88431250Y-51250000D03*
X96431250Y-51250000D03*
X104431250Y-51250000D03*
X112431250Y-51250000D03*
X120431250Y-51250000D03*
X128431250Y-51250000D03*
X136431250Y-51250000D03*
X144431250Y-51250000D03*
X152431250Y-51250000D03*
X160431250Y-51250000D03*
X168431250Y-51250000D03*
X176431250Y-51250000D03*
X184431250Y-51250000D03*
X192431250Y-51250000D03*
X200431250Y-51250000D03*
X208431250Y-51250000D03*
X216431250Y-51250000D03*
X224431250Y-51250000D03*
X232431250Y-51250000D03*
X240431250Y-51250000D03*
X248431250Y-51250000D03*
X273272250Y-37846000D03*
X273272250Y-62738000D03*
X274034250Y-37084000D03*
X274034250Y-61976000D03*
X274796250Y-36322000D03*
X274796250Y-61214000D03*
D11*
%TO.C,D1*%
X74431250Y-40670000D03*
X74431250Y-45750000D03*
%TO.C,D69*%
X254431250Y-46950000D03*
X254431250Y-52030000D03*
%TO.C,D37*%
X170431250Y-40750000D03*
X170431250Y-45830000D03*
%TO.C,D60*%
X230431250Y-46950000D03*
X230431250Y-52030000D03*
%TO.C,D46*%
X194431250Y-40750000D03*
X194431250Y-45830000D03*
%TO.C,D57*%
X222431250Y-46950000D03*
X222431250Y-52030000D03*
%TO.C,D48*%
X198431250Y-46950000D03*
X198431250Y-52030000D03*
%TO.C,D9*%
X94431250Y-46950000D03*
X94431250Y-52030000D03*
%TO.C,D66*%
X246431250Y-46950000D03*
X246431250Y-52030000D03*
%TO.C,D25*%
X138431250Y-40750000D03*
X138431250Y-45830000D03*
%TO.C,D50*%
X202431250Y-53170000D03*
X202431250Y-58250000D03*
%TO.C,D33*%
X158431250Y-46950000D03*
X158431250Y-52030000D03*
%TO.C,D36*%
X166431250Y-46950000D03*
X166431250Y-52030000D03*
%TO.C,D19*%
X122431250Y-40750000D03*
X122431250Y-45830000D03*
%TO.C,D59*%
X226431250Y-53170000D03*
X226431250Y-58250000D03*
%TO.C,D38*%
X170431250Y-53170000D03*
X170431250Y-58250000D03*
%TO.C,D14*%
X106431250Y-53170000D03*
X106431250Y-58250000D03*
%TO.C,D55*%
X218431250Y-40750000D03*
X218431250Y-45830000D03*
%TO.C,D47*%
X194431250Y-53170000D03*
X194431250Y-58250000D03*
%TO.C,D23*%
X130431250Y-53170000D03*
X130431250Y-58250000D03*
%TO.C,D64*%
X242431250Y-40750000D03*
X242431250Y-45830000D03*
%TO.C,D27*%
X142431250Y-46950000D03*
X142431250Y-52030000D03*
%TO.C,D12*%
X102431250Y-46950000D03*
X102431250Y-52030000D03*
%TO.C,D32*%
X154431250Y-53170000D03*
X154431250Y-58250000D03*
%TO.C,D21*%
X126431250Y-46950000D03*
X126431250Y-52030000D03*
%TO.C,D5*%
X82431250Y-53170000D03*
X82431250Y-58250000D03*
%TO.C,D18*%
X118431250Y-46950000D03*
X118431250Y-52030000D03*
%TO.C,D40*%
X178431250Y-40750000D03*
X178431250Y-45830000D03*
%TO.C,D8*%
X90431250Y-53170000D03*
X90431250Y-58250000D03*
%TO.C,D56*%
X218431250Y-53170000D03*
X218431250Y-58250000D03*
%TO.C,D35*%
X162431250Y-53170000D03*
X162431250Y-58250000D03*
%TO.C,D65*%
X242431250Y-53170000D03*
X242431250Y-58250000D03*
%TO.C,D4*%
X82431250Y-40670000D03*
X82431250Y-45750000D03*
%TO.C,D11*%
X98431250Y-53170000D03*
X98431250Y-58250000D03*
%TO.C,D3*%
X78431250Y-46950000D03*
X78431250Y-52030000D03*
%TO.C,D30*%
X150431250Y-46950000D03*
X150431250Y-52030000D03*
%TO.C,D63*%
X238431250Y-46950000D03*
X238431250Y-52030000D03*
%TO.C,D70*%
X258431250Y-40750000D03*
X258431250Y-45830000D03*
%TO.C,D39*%
X174431250Y-46950000D03*
X174431250Y-52030000D03*
%TO.C,D31*%
X154431250Y-40750000D03*
X154431250Y-45830000D03*
%TO.C,D7*%
X90431250Y-40670000D03*
X90431250Y-45750000D03*
%TO.C,D54*%
X214431250Y-46950000D03*
X214431250Y-52030000D03*
%TO.C,D34*%
X162431250Y-40750000D03*
X162431250Y-45830000D03*
%TO.C,D42*%
X182431250Y-46950000D03*
X182431250Y-52030000D03*
%TO.C,D41*%
X178431250Y-53170000D03*
X178431250Y-58250000D03*
%TO.C,D17*%
X114431250Y-53170000D03*
X114431250Y-58250000D03*
%TO.C,D62*%
X234431250Y-53170000D03*
X234431250Y-58250000D03*
%TO.C,D22*%
X130431250Y-40750000D03*
X130431250Y-45830000D03*
%TO.C,D2*%
X74431250Y-53170000D03*
X74431250Y-58250000D03*
%TO.C,D28*%
X146431250Y-40750000D03*
X146431250Y-45830000D03*
%TO.C,D53*%
X210431250Y-53170000D03*
X210431250Y-58250000D03*
%TO.C,D13*%
X106431250Y-40670000D03*
X106431250Y-45750000D03*
%TO.C,R1*%
X261651250Y-56550000D03*
X266731250Y-56550000D03*
%TO.C,D43*%
X186431250Y-40750000D03*
X186431250Y-45830000D03*
%TO.C,D20*%
X122431250Y-53170000D03*
X122431250Y-58250000D03*
%TO.C,D29*%
X146431250Y-53170000D03*
X146431250Y-58250000D03*
%TO.C,D15*%
X110431250Y-46950000D03*
X110431250Y-52030000D03*
%TO.C,D61*%
X234431250Y-40750000D03*
X234431250Y-45830000D03*
%TO.C,D68*%
X250431250Y-53170000D03*
X250431250Y-58250000D03*
%TO.C,D26*%
X138431250Y-53170000D03*
X138431250Y-58250000D03*
%TO.C,D6*%
X86431250Y-46950000D03*
X86431250Y-52030000D03*
%TO.C,D52*%
X210431250Y-40750000D03*
X210431250Y-45830000D03*
%TO.C,D49*%
X202431250Y-40750000D03*
X202431250Y-45830000D03*
%TO.C,D16*%
X114431250Y-40670000D03*
X114431250Y-45750000D03*
%TO.C,D44*%
X186431250Y-53170000D03*
X186431250Y-58250000D03*
%TO.C,D45*%
X190431250Y-46950000D03*
X190431250Y-52030000D03*
%TO.C,D10*%
X98431250Y-40670000D03*
X98431250Y-45750000D03*
%TO.C,D58*%
X226431250Y-40750000D03*
X226431250Y-45830000D03*
%TO.C,D67*%
X250431250Y-40750000D03*
X250431250Y-45830000D03*
%TO.C,D24*%
X134431250Y-46950000D03*
X134431250Y-52030000D03*
%TO.C,D51*%
X206431250Y-46950000D03*
X206431250Y-52030000D03*
D12*
%TO.C,LED1*%
X270744250Y-55257000D03*
X270744250Y-57797000D03*
D13*
%TO.C,ROT1*%
X22106250Y-66018000D03*
X22106250Y-80518000D03*
X24606250Y-80518000D03*
X27106250Y-66018000D03*
X27106250Y-80518000D03*
%TO.C,ROT2*%
X22106250Y-142218000D03*
X22106250Y-156718000D03*
X24606250Y-156718000D03*
X27106250Y-142218000D03*
X27106250Y-156718000D03*
%TO.C,rgb strip*%
X34131250Y-80010000D03*
X34131250Y-82550000D03*
X34131250Y-85090000D03*
D14*
%TO.C,U1*%
X26130000Y-41630000D03*
X26130000Y-56870000D03*
X28670000Y-41630000D03*
X28670000Y-56870000D03*
X31210000Y-41630000D03*
X31210000Y-56870000D03*
X33750000Y-41630000D03*
X33750000Y-56870000D03*
X36290000Y-41630000D03*
X36290000Y-56870000D03*
X38830000Y-41630000D03*
X38830000Y-56870000D03*
X41370000Y-41630000D03*
X41370000Y-56870000D03*
X43910000Y-41630000D03*
X43910000Y-56870000D03*
X46450000Y-41630000D03*
X46450000Y-56870000D03*
X48990000Y-41630000D03*
X48990000Y-56870000D03*
X51530000Y-41630000D03*
X51530000Y-56870000D03*
X54070000Y-41630000D03*
X54070000Y-44170000D03*
X54070000Y-46710000D03*
X54070000Y-49250000D03*
X54070000Y-51790000D03*
X54070000Y-54330000D03*
X54070000Y-56641400D03*
D15*
%TO.C,SW1*%
X61931250Y-46250000D03*
X61931250Y-52750000D03*
X66431250Y-46250000D03*
X66431250Y-52750000D03*
D16*
%TO.C,MX28*%
X119856250Y-105225000D03*
X124856250Y-107325000D03*
%TO.C,MX13*%
X62706250Y-105225000D03*
X67706250Y-107325000D03*
%TO.C,MX26*%
X119856250Y-67125000D03*
X124856250Y-69225000D03*
%TO.C,MX70*%
X272256250Y-86175000D03*
X277256250Y-88275000D03*
%TO.C,MX17*%
X81756250Y-86175000D03*
X86756250Y-88275000D03*
%TO.C,MX33*%
X138906250Y-105225000D03*
X143906250Y-107325000D03*
%TO.C,MX69*%
X272256250Y-67125000D03*
X277256250Y-69225000D03*
%TO.C,MX24*%
X100806250Y-124275000D03*
X105806250Y-126375000D03*
%TO.C,MX59*%
X234156250Y-67125000D03*
X239156250Y-69225000D03*
%TO.C,MX61*%
X234156250Y-105225000D03*
X239156250Y-107325000D03*
%TO.C,MX31*%
X138906250Y-67125000D03*
X143906250Y-69225000D03*
%TO.C,MX62*%
X234156250Y-124275000D03*
X239156250Y-126375000D03*
%TO.C,MX16*%
X81756250Y-67125000D03*
X86756250Y-69225000D03*
%TO.C,MX21*%
X100806250Y-67125000D03*
X105806250Y-69225000D03*
%TO.C,MX44*%
X177006250Y-86175000D03*
X182006250Y-88275000D03*
%TO.C,MX32*%
X138906250Y-86175000D03*
X143906250Y-88275000D03*
%TO.C,MX65*%
X253206250Y-86175000D03*
X258206250Y-88275000D03*
%TO.C,MX55*%
X215106250Y-86175000D03*
X220106250Y-88275000D03*
%TO.C,MX72*%
X272256250Y-124275000D03*
X277256250Y-126375000D03*
%TO.C,MX27*%
X119856250Y-86175000D03*
X124856250Y-88275000D03*
%TO.C,MX63*%
X234156250Y-143325000D03*
X239156250Y-145425000D03*
%TO.C,MX15*%
X62706250Y-143325000D03*
X67706250Y-145425000D03*
%TO.C,MX9*%
X43656250Y-124275000D03*
X48656250Y-126375000D03*
%TO.C,MX22*%
X100806250Y-86175000D03*
X105806250Y-88275000D03*
%TO.C,MX35*%
X138906250Y-143325000D03*
X143906250Y-145425000D03*
%TO.C,MX47*%
X177006250Y-143325000D03*
X182006250Y-145425000D03*
%TO.C,MX4*%
X24606250Y-124275000D03*
X29606250Y-126375000D03*
%TO.C,MX8*%
X43656250Y-105225000D03*
X48656250Y-107325000D03*
%TO.C,MX40*%
X157956250Y-124275000D03*
X162956250Y-126375000D03*
%TO.C,MX36*%
X124381250Y-153025000D03*
X129381250Y-155125000D03*
%TO.C,MX11*%
X62706250Y-67125000D03*
X67706250Y-69225000D03*
%TO.C,MX18*%
X81756250Y-105225000D03*
X86756250Y-107325000D03*
%TO.C,MX49*%
X196056250Y-67125000D03*
X201056250Y-69225000D03*
%TO.C,MX41*%
X157956250Y-143325000D03*
X162956250Y-145425000D03*
%TO.C,MX50*%
X196056250Y-86175000D03*
X201056250Y-88275000D03*
%TO.C,MX38*%
X157956250Y-86175000D03*
X162956250Y-88275000D03*
%TO.C,MX7*%
X43656250Y-86175000D03*
X48656250Y-88275000D03*
%TO.C,MX56*%
X215106250Y-105225000D03*
X220106250Y-107325000D03*
%TO.C,MX48*%
X162481250Y-153025000D03*
X167481250Y-155125000D03*
%TO.C,MX67*%
X253206250Y-124275000D03*
X258206250Y-126375000D03*
%TO.C,MX29*%
X119856250Y-124275000D03*
X124856250Y-126375000D03*
%TO.C,MX57*%
X215106250Y-124275000D03*
X220106250Y-126375000D03*
%TO.C,MX45*%
X177006250Y-105225000D03*
X182006250Y-107325000D03*
%TO.C,MX2*%
X24606250Y-86175000D03*
X29606250Y-88275000D03*
%TO.C,MX54*%
X215106250Y-67125000D03*
X220106250Y-69225000D03*
%TO.C,MX39*%
X157956250Y-105225000D03*
X162956250Y-107325000D03*
%TO.C,MX5*%
X24606250Y-143325000D03*
X29606250Y-145425000D03*
%TO.C,MX68*%
X253206250Y-143325000D03*
X258206250Y-145425000D03*
%TO.C,MX12*%
X62706250Y-86175000D03*
X67706250Y-88275000D03*
%TO.C,MX43*%
X177006250Y-67125000D03*
X182006250Y-69225000D03*
%TO.C,MX30*%
X119856250Y-143325000D03*
X124856250Y-145425000D03*
%TO.C,MX73*%
X272256250Y-143325000D03*
X277256250Y-145425000D03*
%TO.C,MX53*%
X196056250Y-143325000D03*
X201056250Y-145425000D03*
%TO.C,MX1*%
X24606250Y-67125000D03*
X29606250Y-69225000D03*
%TO.C,MX37*%
X157956250Y-67125000D03*
X162956250Y-69225000D03*
%TO.C,MX60*%
X234156250Y-86175000D03*
X239156250Y-88275000D03*
%TO.C,MX19*%
X81756250Y-124275000D03*
X86756250Y-126375000D03*
%TO.C,MX71*%
X272256250Y-105225000D03*
X277256250Y-107325000D03*
%TO.C,MX23*%
X100806250Y-105225000D03*
X105806250Y-107325000D03*
%TO.C,MX10*%
X43656250Y-143325000D03*
X48656250Y-145425000D03*
%TO.C,MX66*%
X253206250Y-105225000D03*
X258206250Y-107325000D03*
%TO.C,MX20*%
X81756250Y-143325000D03*
X86756250Y-145425000D03*
%TO.C,MX6*%
X43656250Y-67125000D03*
X48656250Y-69225000D03*
%TO.C,MX25*%
X100806250Y-143325000D03*
X105806250Y-145425000D03*
%TO.C,MX58*%
X215106250Y-143325000D03*
X220106250Y-145425000D03*
%TO.C,MX64*%
X253206250Y-67125000D03*
X258206250Y-69225000D03*
%TO.C,MX46*%
X177006250Y-124275000D03*
X182006250Y-126375000D03*
%TO.C,MX3*%
X24606250Y-105225000D03*
X29606250Y-107325000D03*
%TO.C,MX51*%
X196056250Y-105225000D03*
X201056250Y-107325000D03*
%TO.C,MX34*%
X138906250Y-124275000D03*
X143906250Y-126375000D03*
%TO.C,MX14*%
X62706250Y-124275000D03*
X67706250Y-126375000D03*
%TO.C,MX52*%
X196056250Y-124275000D03*
X201056250Y-126375000D03*
%TO.C,MX42*%
X143431250Y-153025000D03*
X148431250Y-155125000D03*
D17*
%TO.C,MX33*%
X135096250Y-108585000D03*
X136406250Y-107125000D03*
X141406250Y-106625000D03*
X141446250Y-106045000D03*
%TO.C,MX69*%
X268446250Y-70485000D03*
X269756250Y-69025000D03*
X274756250Y-68525000D03*
X274796250Y-67945000D03*
%TO.C,MX24*%
X96996250Y-127635000D03*
X98306250Y-126175000D03*
X103306250Y-125675000D03*
X103346250Y-125095000D03*
%TO.C,MX59*%
X230346250Y-70485000D03*
X231656250Y-69025000D03*
X236656250Y-68525000D03*
X236696250Y-67945000D03*
%TO.C,MX61*%
X230346250Y-108585000D03*
X231656250Y-107125000D03*
X236656250Y-106625000D03*
X236696250Y-106045000D03*
%TO.C,MX31*%
X135096250Y-70485000D03*
X136406250Y-69025000D03*
X141406250Y-68525000D03*
X141446250Y-67945000D03*
%TO.C,MX62*%
X230346250Y-127635000D03*
X231656250Y-126175000D03*
X236656250Y-125675000D03*
X236696250Y-125095000D03*
%TO.C,MX16*%
X77946250Y-70485000D03*
X79256250Y-69025000D03*
X84256250Y-68525000D03*
X84296250Y-67945000D03*
%TO.C,MX21*%
X96996250Y-70485000D03*
X98306250Y-69025000D03*
X103306250Y-68525000D03*
X103346250Y-67945000D03*
%TO.C,MX44*%
X173196250Y-89535000D03*
X174506250Y-88075000D03*
X179506250Y-87575000D03*
X179546250Y-86995000D03*
%TO.C,MX32*%
X135096250Y-89535000D03*
X136406250Y-88075000D03*
X141406250Y-87575000D03*
X141446250Y-86995000D03*
%TO.C,MX65*%
X249396250Y-89535000D03*
X250706250Y-88075000D03*
X255706250Y-87575000D03*
X255746250Y-86995000D03*
%TO.C,MX55*%
X211296250Y-89535000D03*
X212606250Y-88075000D03*
X217606250Y-87575000D03*
X217646250Y-86995000D03*
%TO.C,MX72*%
X268446250Y-127635000D03*
X269756250Y-126175000D03*
X274756250Y-125675000D03*
X274796250Y-125095000D03*
%TO.C,MX27*%
X116046250Y-89535000D03*
X117356250Y-88075000D03*
X122356250Y-87575000D03*
X122396250Y-86995000D03*
%TO.C,MX63*%
X230346250Y-146685000D03*
X231656250Y-145225000D03*
X236656250Y-144725000D03*
X236696250Y-144145000D03*
%TO.C,MX15*%
X58896250Y-146685000D03*
X60206250Y-145225000D03*
X65206250Y-144725000D03*
X65246250Y-144145000D03*
%TO.C,MX9*%
X39846250Y-127635000D03*
X41156250Y-126175000D03*
X46156250Y-125675000D03*
X46196250Y-125095000D03*
%TO.C,MX22*%
X96996250Y-89535000D03*
X98306250Y-88075000D03*
X103306250Y-87575000D03*
X103346250Y-86995000D03*
%TO.C,MX35*%
X135096250Y-146685000D03*
X136406250Y-145225000D03*
X141406250Y-144725000D03*
X141446250Y-144145000D03*
%TO.C,MX47*%
X173196250Y-146685000D03*
X174506250Y-145225000D03*
X179506250Y-144725000D03*
X179546250Y-144145000D03*
%TO.C,MX4*%
X20796250Y-127635000D03*
X22106250Y-126175000D03*
X27106250Y-125675000D03*
X27146250Y-125095000D03*
%TO.C,MX8*%
X39846250Y-108585000D03*
X41156250Y-107125000D03*
X46156250Y-106625000D03*
X46196250Y-106045000D03*
%TO.C,MX40*%
X154146250Y-127635000D03*
X155456250Y-126175000D03*
X160456250Y-125675000D03*
X160496250Y-125095000D03*
%TO.C,MX36*%
X126841250Y-154305000D03*
X126881250Y-153725000D03*
X131881250Y-153225000D03*
X133191250Y-151765000D03*
%TO.C,MX11*%
X58896250Y-70485000D03*
X60206250Y-69025000D03*
X65206250Y-68525000D03*
X65246250Y-67945000D03*
%TO.C,MX18*%
X77946250Y-108585000D03*
X79256250Y-107125000D03*
X84256250Y-106625000D03*
X84296250Y-106045000D03*
%TO.C,MX49*%
X192246250Y-70485000D03*
X193556250Y-69025000D03*
X198556250Y-68525000D03*
X198596250Y-67945000D03*
%TO.C,MX41*%
X154146250Y-146685000D03*
X155456250Y-145225000D03*
X160456250Y-144725000D03*
X160496250Y-144145000D03*
%TO.C,MX50*%
X192246250Y-89535000D03*
X193556250Y-88075000D03*
X198556250Y-87575000D03*
X198596250Y-86995000D03*
%TO.C,MX38*%
X154146250Y-89535000D03*
X155456250Y-88075000D03*
X160456250Y-87575000D03*
X160496250Y-86995000D03*
%TO.C,MX7*%
X39846250Y-89535000D03*
X41156250Y-88075000D03*
X46156250Y-87575000D03*
X46196250Y-86995000D03*
%TO.C,MX56*%
X211296250Y-108585000D03*
X212606250Y-107125000D03*
X217606250Y-106625000D03*
X217646250Y-106045000D03*
%TO.C,MX48*%
X164941250Y-154305000D03*
X164981250Y-153725000D03*
X169981250Y-153225000D03*
X171291250Y-151765000D03*
%TO.C,MX67*%
X249396250Y-127635000D03*
X250706250Y-126175000D03*
X255706250Y-125675000D03*
X255746250Y-125095000D03*
%TO.C,MX29*%
X116046250Y-127635000D03*
X117356250Y-126175000D03*
X122356250Y-125675000D03*
X122396250Y-125095000D03*
%TO.C,MX57*%
X211296250Y-127635000D03*
X212606250Y-126175000D03*
X217606250Y-125675000D03*
X217646250Y-125095000D03*
%TO.C,MX45*%
X173196250Y-108585000D03*
X174506250Y-107125000D03*
X179506250Y-106625000D03*
X179546250Y-106045000D03*
%TO.C,MX2*%
X20796250Y-89535000D03*
X22106250Y-88075000D03*
X27106250Y-87575000D03*
X27146250Y-86995000D03*
%TO.C,MX54*%
X211296250Y-70485000D03*
X212606250Y-69025000D03*
X217606250Y-68525000D03*
X217646250Y-67945000D03*
%TO.C,MX39*%
X154146250Y-108585000D03*
X155456250Y-107125000D03*
X160456250Y-106625000D03*
X160496250Y-106045000D03*
%TO.C,MX5*%
X20796250Y-146685000D03*
X22106250Y-145225000D03*
X27106250Y-144725000D03*
X27146250Y-144145000D03*
%TO.C,MX68*%
X249396250Y-146685000D03*
X250706250Y-145225000D03*
X255706250Y-144725000D03*
X255746250Y-144145000D03*
%TO.C,MX12*%
X58896250Y-89535000D03*
X60206250Y-88075000D03*
X65206250Y-87575000D03*
X65246250Y-86995000D03*
%TO.C,MX43*%
X173196250Y-70485000D03*
X174506250Y-69025000D03*
X179506250Y-68525000D03*
X179546250Y-67945000D03*
%TO.C,MX30*%
X116046250Y-146685000D03*
X117356250Y-145225000D03*
X122356250Y-144725000D03*
X122396250Y-144145000D03*
%TO.C,MX73*%
X268446250Y-146685000D03*
X269756250Y-145225000D03*
X274756250Y-144725000D03*
X274796250Y-144145000D03*
%TO.C,MX53*%
X192246250Y-146685000D03*
X193556250Y-145225000D03*
X198556250Y-144725000D03*
X198596250Y-144145000D03*
%TO.C,MX1*%
X20796250Y-70485000D03*
X22106250Y-69025000D03*
X27106250Y-68525000D03*
X27146250Y-67945000D03*
%TO.C,MX37*%
X154146250Y-70485000D03*
X155456250Y-69025000D03*
X160456250Y-68525000D03*
X160496250Y-67945000D03*
%TO.C,MX60*%
X230346250Y-89535000D03*
X231656250Y-88075000D03*
X236656250Y-87575000D03*
X236696250Y-86995000D03*
%TO.C,MX19*%
X77946250Y-127635000D03*
X79256250Y-126175000D03*
X84256250Y-125675000D03*
X84296250Y-125095000D03*
%TO.C,MX71*%
X268446250Y-108585000D03*
X269756250Y-107125000D03*
X274756250Y-106625000D03*
X274796250Y-106045000D03*
%TO.C,MX23*%
X96996250Y-108585000D03*
X98306250Y-107125000D03*
X103306250Y-106625000D03*
X103346250Y-106045000D03*
%TO.C,MX10*%
X39846250Y-146685000D03*
X41156250Y-145225000D03*
X46156250Y-144725000D03*
X46196250Y-144145000D03*
%TO.C,MX66*%
X249396250Y-108585000D03*
X250706250Y-107125000D03*
X255706250Y-106625000D03*
X255746250Y-106045000D03*
%TO.C,MX20*%
X77946250Y-146685000D03*
X79256250Y-145225000D03*
X84256250Y-144725000D03*
X84296250Y-144145000D03*
%TO.C,MX6*%
X39846250Y-70485000D03*
X41156250Y-69025000D03*
X46156250Y-68525000D03*
X46196250Y-67945000D03*
%TO.C,MX25*%
X96996250Y-146685000D03*
X98306250Y-145225000D03*
X103306250Y-144725000D03*
X103346250Y-144145000D03*
%TO.C,MX58*%
X211296250Y-146685000D03*
X212606250Y-145225000D03*
X217606250Y-144725000D03*
X217646250Y-144145000D03*
%TO.C,MX64*%
X249396250Y-70485000D03*
X250706250Y-69025000D03*
X255706250Y-68525000D03*
X255746250Y-67945000D03*
%TO.C,MX46*%
X173196250Y-127635000D03*
X174506250Y-126175000D03*
X179506250Y-125675000D03*
X179546250Y-125095000D03*
%TO.C,MX3*%
X20796250Y-108585000D03*
X22106250Y-107125000D03*
X27106250Y-106625000D03*
X27146250Y-106045000D03*
%TO.C,MX51*%
X192246250Y-108585000D03*
X193556250Y-107125000D03*
X198556250Y-106625000D03*
X198596250Y-106045000D03*
%TO.C,MX34*%
X135096250Y-127635000D03*
X136406250Y-126175000D03*
X141406250Y-125675000D03*
X141446250Y-125095000D03*
%TO.C,MX14*%
X58896250Y-127635000D03*
X60206250Y-126175000D03*
X65206250Y-125675000D03*
X65246250Y-125095000D03*
%TO.C,MX52*%
X192246250Y-127635000D03*
X193556250Y-126175000D03*
X198556250Y-125675000D03*
X198596250Y-125095000D03*
%TO.C,MX42*%
X145891250Y-154305000D03*
X145931250Y-153725000D03*
X150931250Y-153225000D03*
X152241250Y-151765000D03*
%TO.C,MX28*%
X116046250Y-108585000D03*
X117356250Y-107125000D03*
X122356250Y-106625000D03*
X122396250Y-106045000D03*
%TO.C,MX13*%
X58896250Y-108585000D03*
X60206250Y-107125000D03*
X65206250Y-106625000D03*
X65246250Y-106045000D03*
%TO.C,MX26*%
X116046250Y-70485000D03*
X117356250Y-69025000D03*
X122356250Y-68525000D03*
X122396250Y-67945000D03*
%TO.C,MX70*%
X268446250Y-89535000D03*
X269756250Y-88075000D03*
X274756250Y-87575000D03*
X274796250Y-86995000D03*
%TO.C,MX17*%
X77946250Y-89535000D03*
X79256250Y-88075000D03*
X84256250Y-87575000D03*
X84296250Y-86995000D03*
D18*
%TO.C,ROT1*%
X19006250Y-72368000D02*
X19006250Y-73668000D01*
X30206250Y-72368000D02*
X30206250Y-73668000D01*
%TO.C,ROT2*%
X19006250Y-148568000D02*
X19006250Y-149868000D01*
X30206250Y-148568000D02*
X30206250Y-149868000D01*
D19*
%TO.C,H5*%
X53181250Y-82550000D03*
%TO.C,H8*%
X148431250Y-120650000D03*
%TO.C,H10*%
X243681250Y-139700000D03*
%TO.C,H4*%
X278431250Y-58750000D03*
%TO.C,H3*%
X278431250Y-39750000D03*
%TO.C,H9*%
X243681250Y-82550000D03*
%TO.C,H1*%
X18431250Y-58750000D03*
%TO.C,H2*%
X18431250Y-39750000D03*
%TO.C,H7*%
X148431250Y-82550000D03*
%TO.C,H6*%
X53181250Y-139700000D03*
M02*
