G04 #@! TF.GenerationSoftware,KiCad,Pcbnew,(5.99.0-176-g31e38f2fd)*
G04 #@! TF.CreationDate,2019-12-28T01:19:51+01:00*
G04 #@! TF.ProjectId,5x14_ortho_keyboard_elite-c_backplate,35783134-5f6f-4727-9468-6f5f6b657962,rev?*
G04 #@! TF.SameCoordinates,Original*
G04 #@! TF.FileFunction,Soldermask,Bot*
G04 #@! TF.FilePolarity,Negative*
%FSLAX46Y46*%
G04 Gerber Fmt 4.6, Leading zero omitted, Abs format (unit mm)*
G04 Created by KiCad (PCBNEW (5.99.0-176-g31e38f2fd)) date 2019-12-28 01:19:51*
%MOMM*%
%LPD*%
G04 APERTURE LIST*
%ADD10C,0.010000*%
%ADD11C,0.100000*%
G04 APERTURE END LIST*
D10*
G36*
X149199682Y-83444810D02*
G01*
X149233048Y-83476119D01*
X149294096Y-83535173D01*
X149381411Y-83620566D01*
X149493577Y-83730892D01*
X149629178Y-83864745D01*
X149786800Y-84020720D01*
X149965026Y-84197410D01*
X150162441Y-84393409D01*
X150377630Y-84607313D01*
X150609175Y-84837714D01*
X150855663Y-85083208D01*
X151115678Y-85342388D01*
X151387803Y-85613848D01*
X151670624Y-85896184D01*
X151962724Y-86187988D01*
X152262689Y-86487855D01*
X155310573Y-89535794D01*
X154749836Y-90096830D01*
X154189100Y-90657866D01*
X151691308Y-88160141D01*
X149193517Y-85662416D01*
X144198333Y-90657734D01*
X143637414Y-90096814D01*
X143076494Y-89535895D01*
X146124428Y-86487906D01*
X146297575Y-86314790D01*
X146593198Y-86019379D01*
X146880145Y-85732838D01*
X147156999Y-85456573D01*
X147422345Y-85191991D01*
X147674767Y-84940496D01*
X147912850Y-84703495D01*
X148135177Y-84482394D01*
X148340335Y-84278598D01*
X148526906Y-84093513D01*
X148693475Y-83928544D01*
X148838627Y-83785099D01*
X148960946Y-83664582D01*
X149059017Y-83568400D01*
X149131424Y-83497957D01*
X149176751Y-83454661D01*
X149193583Y-83439917D01*
X149199682Y-83444810D01*
X149199682Y-83444810D01*
G37*
X149199682Y-83444810D02*
X149233048Y-83476119D01*
X149294096Y-83535173D01*
X149381411Y-83620566D01*
X149493577Y-83730892D01*
X149629178Y-83864745D01*
X149786800Y-84020720D01*
X149965026Y-84197410D01*
X150162441Y-84393409D01*
X150377630Y-84607313D01*
X150609175Y-84837714D01*
X150855663Y-85083208D01*
X151115678Y-85342388D01*
X151387803Y-85613848D01*
X151670624Y-85896184D01*
X151962724Y-86187988D01*
X152262689Y-86487855D01*
X155310573Y-89535794D01*
X154749836Y-90096830D01*
X154189100Y-90657866D01*
X151691308Y-88160141D01*
X149193517Y-85662416D01*
X144198333Y-90657734D01*
X143637414Y-90096814D01*
X143076494Y-89535895D01*
X146124428Y-86487906D01*
X146297575Y-86314790D01*
X146593198Y-86019379D01*
X146880145Y-85732838D01*
X147156999Y-85456573D01*
X147422345Y-85191991D01*
X147674767Y-84940496D01*
X147912850Y-84703495D01*
X148135177Y-84482394D01*
X148340335Y-84278598D01*
X148526906Y-84093513D01*
X148693475Y-83928544D01*
X148838627Y-83785099D01*
X148960946Y-83664582D01*
X149059017Y-83568400D01*
X149131424Y-83497957D01*
X149176751Y-83454661D01*
X149193583Y-83439917D01*
X149199682Y-83444810D01*
G36*
X149193552Y-97896734D02*
G01*
X152776020Y-94314313D01*
X156358488Y-90731893D01*
X157914195Y-92287600D01*
X153553902Y-96647931D01*
X149193609Y-101008263D01*
X140472959Y-92287613D01*
X142028695Y-90731877D01*
X149193552Y-97896734D01*
X149193552Y-97896734D01*
G37*
X149193552Y-97896734D02*
X152776020Y-94314313D01*
X156358488Y-90731893D01*
X157914195Y-92287600D01*
X153553902Y-96647931D01*
X149193609Y-101008263D01*
X140472959Y-92287613D01*
X142028695Y-90731877D01*
X149193552Y-97896734D01*
G36*
X161105075Y-92303509D02*
G01*
X161660686Y-92859120D01*
X155427144Y-99092689D01*
X149193601Y-105326259D01*
X142960088Y-99092745D01*
X136726574Y-92859231D01*
X137276676Y-92308824D01*
X137280528Y-92304970D01*
X137406093Y-92179929D01*
X137522587Y-92064996D01*
X137626554Y-91963500D01*
X137714542Y-91878767D01*
X137783095Y-91814123D01*
X137828760Y-91772898D01*
X137848083Y-91758417D01*
X137854455Y-91763853D01*
X137888390Y-91796263D01*
X137950587Y-91856966D01*
X138040012Y-91944932D01*
X138155631Y-92059130D01*
X138296408Y-92198530D01*
X138461311Y-92362102D01*
X138649304Y-92548815D01*
X138859354Y-92757638D01*
X139090425Y-92987542D01*
X139341485Y-93237496D01*
X139611498Y-93506470D01*
X139899431Y-93793433D01*
X140204248Y-94097354D01*
X140524917Y-94417204D01*
X140860401Y-94751952D01*
X141209668Y-95100567D01*
X141571683Y-95462020D01*
X141945412Y-95835279D01*
X142329820Y-96219315D01*
X142723873Y-96613097D01*
X143126537Y-97015594D01*
X143536777Y-97425777D01*
X149204167Y-103093137D01*
X154876816Y-97420518D01*
X160549465Y-91747898D01*
X161105075Y-92303509D01*
X161105075Y-92303509D01*
G37*
X161105075Y-92303509D02*
X161660686Y-92859120D01*
X155427144Y-99092689D01*
X149193601Y-105326259D01*
X142960088Y-99092745D01*
X136726574Y-92859231D01*
X137276676Y-92308824D01*
X137280528Y-92304970D01*
X137406093Y-92179929D01*
X137522587Y-92064996D01*
X137626554Y-91963500D01*
X137714542Y-91878767D01*
X137783095Y-91814123D01*
X137828760Y-91772898D01*
X137848083Y-91758417D01*
X137854455Y-91763853D01*
X137888390Y-91796263D01*
X137950587Y-91856966D01*
X138040012Y-91944932D01*
X138155631Y-92059130D01*
X138296408Y-92198530D01*
X138461311Y-92362102D01*
X138649304Y-92548815D01*
X138859354Y-92757638D01*
X139090425Y-92987542D01*
X139341485Y-93237496D01*
X139611498Y-93506470D01*
X139899431Y-93793433D01*
X140204248Y-94097354D01*
X140524917Y-94417204D01*
X140860401Y-94751952D01*
X141209668Y-95100567D01*
X141571683Y-95462020D01*
X141945412Y-95835279D01*
X142329820Y-96219315D01*
X142723873Y-96613097D01*
X143126537Y-97015594D01*
X143536777Y-97425777D01*
X149204167Y-103093137D01*
X154876816Y-97420518D01*
X160549465Y-91747898D01*
X161105075Y-92303509D01*
G36*
X149193552Y-107421734D02*
G01*
X152776020Y-103839313D01*
X156358488Y-100256893D01*
X157914195Y-101812600D01*
X153553902Y-106172931D01*
X149193609Y-110533263D01*
X140472959Y-101812613D01*
X142028695Y-100256877D01*
X149193552Y-107421734D01*
X149193552Y-107421734D01*
G37*
X149193552Y-107421734D02*
X152776020Y-103839313D01*
X156358488Y-100256893D01*
X157914195Y-101812600D01*
X153553902Y-106172931D01*
X149193609Y-110533263D01*
X140472959Y-101812613D01*
X142028695Y-100256877D01*
X149193552Y-107421734D01*
D11*
G36*
X244517742Y-137753252D02*
G01*
X244541523Y-137752505D01*
X244619921Y-137764082D01*
X244701500Y-137772728D01*
X244724247Y-137779487D01*
X244744783Y-137782520D01*
X244822754Y-137808760D01*
X244904275Y-137832985D01*
X244922713Y-137842400D01*
X244939517Y-137848055D01*
X245014255Y-137889144D01*
X245092674Y-137929186D01*
X245106693Y-137939963D01*
X245119561Y-137947037D01*
X245188190Y-138002611D01*
X245260387Y-138058110D01*
X245270176Y-138069001D01*
X245279238Y-138076339D01*
X245338939Y-138145504D01*
X245401797Y-138215437D01*
X245407859Y-138225349D01*
X245413493Y-138231876D01*
X245461568Y-138313166D01*
X245512168Y-138395900D01*
X245515236Y-138403913D01*
X245518084Y-138408729D01*
X245552154Y-138500339D01*
X245587804Y-138593455D01*
X245588808Y-138598900D01*
X245589700Y-138601298D01*
X245607616Y-138700872D01*
X245626173Y-138801485D01*
X245618823Y-139073116D01*
X245595018Y-139171888D01*
X245572214Y-139269114D01*
X245570798Y-139272387D01*
X245569260Y-139278767D01*
X245528954Y-139369084D01*
X245490613Y-139457686D01*
X245486958Y-139463187D01*
X245483051Y-139471942D01*
X245428631Y-139550976D01*
X245376911Y-139628820D01*
X245370240Y-139635776D01*
X245363082Y-139646172D01*
X245297260Y-139711879D01*
X245234704Y-139777112D01*
X245224451Y-139784561D01*
X245213371Y-139795622D01*
X245139116Y-139846561D01*
X245068480Y-139897881D01*
X245054343Y-139904715D01*
X245038932Y-139915287D01*
X244959362Y-139950631D01*
X244883493Y-139987307D01*
X244865450Y-139992345D01*
X244845606Y-140001159D01*
X244763862Y-140020708D01*
X244685602Y-140042559D01*
X244663931Y-140044607D01*
X244639869Y-140050362D01*
X244558921Y-140054534D01*
X244481054Y-140061894D01*
X244456349Y-140059819D01*
X244428610Y-140061249D01*
X244351221Y-140050992D01*
X244276308Y-140044701D01*
X244249436Y-140037501D01*
X244218905Y-140033454D01*
X244147551Y-140010201D01*
X244077843Y-139991523D01*
X244049930Y-139978388D01*
X244017777Y-139967910D01*
X243954502Y-139933483D01*
X243891937Y-139904042D01*
X243864322Y-139884417D01*
X243831961Y-139866810D01*
X243778361Y-139823328D01*
X243724459Y-139785022D01*
X243698637Y-139758654D01*
X243667681Y-139733541D01*
X243624857Y-139683312D01*
X243580705Y-139638225D01*
X243558260Y-139605198D01*
X243530438Y-139572565D01*
X243498987Y-139517980D01*
X243465216Y-139468288D01*
X243447746Y-139429050D01*
X243424828Y-139389275D01*
X243404854Y-139332714D01*
X243381647Y-139280590D01*
X243370680Y-139235940D01*
X243354389Y-139189808D01*
X243345526Y-139133533D01*
X243332636Y-139081054D01*
X243329560Y-139032153D01*
X243321479Y-138980845D01*
X243322939Y-138926907D01*
X243319736Y-138876002D01*
X243325714Y-138824335D01*
X243327201Y-138769383D01*
X243337837Y-138719558D01*
X243343352Y-138671894D01*
X243359258Y-138619210D01*
X243371363Y-138562505D01*
X243389741Y-138518245D01*
X243402736Y-138475205D01*
X243429092Y-138423479D01*
X243452486Y-138367140D01*
X243476979Y-138329496D01*
X243496016Y-138292134D01*
X243532938Y-138243490D01*
X243567853Y-138189829D01*
X243596712Y-138159471D01*
X243620237Y-138128478D01*
X243667415Y-138085096D01*
X243713601Y-138036511D01*
X243745068Y-138013691D01*
X243771482Y-137989402D01*
X243828149Y-137953440D01*
X243884848Y-137912321D01*
X243917207Y-137896921D01*
X243944956Y-137879311D01*
X244009906Y-137852805D01*
X244075859Y-137821418D01*
X244107560Y-137812953D01*
X244135192Y-137801677D01*
X244206773Y-137786462D01*
X244280238Y-137766846D01*
X244309933Y-137764535D01*
X244336162Y-137758960D01*
X244412337Y-137756566D01*
X244491139Y-137750433D01*
X244517742Y-137753252D01*
X244517742Y-137753252D01*
G37*
G36*
X54017742Y-137753252D02*
G01*
X54041523Y-137752505D01*
X54119921Y-137764082D01*
X54201500Y-137772728D01*
X54224247Y-137779487D01*
X54244783Y-137782520D01*
X54322754Y-137808760D01*
X54404275Y-137832985D01*
X54422713Y-137842400D01*
X54439517Y-137848055D01*
X54514255Y-137889144D01*
X54592674Y-137929186D01*
X54606693Y-137939963D01*
X54619561Y-137947037D01*
X54688190Y-138002611D01*
X54760387Y-138058110D01*
X54770176Y-138069001D01*
X54779238Y-138076339D01*
X54838939Y-138145504D01*
X54901797Y-138215437D01*
X54907859Y-138225349D01*
X54913493Y-138231876D01*
X54961568Y-138313166D01*
X55012168Y-138395900D01*
X55015236Y-138403913D01*
X55018084Y-138408729D01*
X55052154Y-138500339D01*
X55087804Y-138593455D01*
X55088808Y-138598900D01*
X55089700Y-138601298D01*
X55107616Y-138700872D01*
X55126173Y-138801485D01*
X55118823Y-139073116D01*
X55095018Y-139171888D01*
X55072214Y-139269114D01*
X55070798Y-139272387D01*
X55069260Y-139278767D01*
X55028954Y-139369084D01*
X54990613Y-139457686D01*
X54986958Y-139463187D01*
X54983051Y-139471942D01*
X54928631Y-139550976D01*
X54876911Y-139628820D01*
X54870240Y-139635776D01*
X54863082Y-139646172D01*
X54797260Y-139711879D01*
X54734704Y-139777112D01*
X54724451Y-139784561D01*
X54713371Y-139795622D01*
X54639116Y-139846561D01*
X54568480Y-139897881D01*
X54554343Y-139904715D01*
X54538932Y-139915287D01*
X54459362Y-139950631D01*
X54383493Y-139987307D01*
X54365450Y-139992345D01*
X54345606Y-140001159D01*
X54263862Y-140020708D01*
X54185602Y-140042559D01*
X54163931Y-140044607D01*
X54139869Y-140050362D01*
X54058921Y-140054534D01*
X53981054Y-140061894D01*
X53956349Y-140059819D01*
X53928610Y-140061249D01*
X53851221Y-140050992D01*
X53776308Y-140044701D01*
X53749436Y-140037501D01*
X53718905Y-140033454D01*
X53647551Y-140010201D01*
X53577843Y-139991523D01*
X53549930Y-139978388D01*
X53517777Y-139967910D01*
X53454502Y-139933483D01*
X53391937Y-139904042D01*
X53364322Y-139884417D01*
X53331961Y-139866810D01*
X53278361Y-139823328D01*
X53224459Y-139785022D01*
X53198637Y-139758654D01*
X53167681Y-139733541D01*
X53124857Y-139683312D01*
X53080705Y-139638225D01*
X53058260Y-139605198D01*
X53030438Y-139572565D01*
X52998987Y-139517980D01*
X52965216Y-139468288D01*
X52947746Y-139429050D01*
X52924828Y-139389275D01*
X52904854Y-139332714D01*
X52881647Y-139280590D01*
X52870680Y-139235940D01*
X52854389Y-139189808D01*
X52845526Y-139133533D01*
X52832636Y-139081054D01*
X52829560Y-139032153D01*
X52821479Y-138980845D01*
X52822939Y-138926907D01*
X52819736Y-138876002D01*
X52825714Y-138824335D01*
X52827201Y-138769383D01*
X52837837Y-138719558D01*
X52843352Y-138671894D01*
X52859258Y-138619210D01*
X52871363Y-138562505D01*
X52889741Y-138518245D01*
X52902736Y-138475205D01*
X52929092Y-138423479D01*
X52952486Y-138367140D01*
X52976979Y-138329496D01*
X52996016Y-138292134D01*
X53032938Y-138243490D01*
X53067853Y-138189829D01*
X53096712Y-138159471D01*
X53120237Y-138128478D01*
X53167415Y-138085096D01*
X53213601Y-138036511D01*
X53245068Y-138013691D01*
X53271482Y-137989402D01*
X53328149Y-137953440D01*
X53384848Y-137912321D01*
X53417207Y-137896921D01*
X53444956Y-137879311D01*
X53509906Y-137852805D01*
X53575859Y-137821418D01*
X53607560Y-137812953D01*
X53635192Y-137801677D01*
X53706773Y-137786462D01*
X53780238Y-137766846D01*
X53809933Y-137764535D01*
X53836162Y-137758960D01*
X53912337Y-137756566D01*
X53991139Y-137750433D01*
X54017742Y-137753252D01*
X54017742Y-137753252D01*
G37*
G36*
X149267742Y-118703252D02*
G01*
X149291523Y-118702505D01*
X149369921Y-118714082D01*
X149451500Y-118722728D01*
X149474247Y-118729487D01*
X149494783Y-118732520D01*
X149572754Y-118758760D01*
X149654275Y-118782985D01*
X149672713Y-118792400D01*
X149689517Y-118798055D01*
X149764255Y-118839144D01*
X149842674Y-118879186D01*
X149856693Y-118889963D01*
X149869561Y-118897037D01*
X149938190Y-118952611D01*
X150010387Y-119008110D01*
X150020176Y-119019001D01*
X150029238Y-119026339D01*
X150088939Y-119095504D01*
X150151797Y-119165437D01*
X150157859Y-119175349D01*
X150163493Y-119181876D01*
X150211568Y-119263166D01*
X150262168Y-119345900D01*
X150265236Y-119353913D01*
X150268084Y-119358729D01*
X150302154Y-119450339D01*
X150337804Y-119543455D01*
X150338808Y-119548900D01*
X150339700Y-119551298D01*
X150357616Y-119650872D01*
X150376173Y-119751485D01*
X150368823Y-120023116D01*
X150345018Y-120121888D01*
X150322214Y-120219114D01*
X150320798Y-120222387D01*
X150319260Y-120228767D01*
X150278954Y-120319084D01*
X150240613Y-120407686D01*
X150236958Y-120413187D01*
X150233051Y-120421942D01*
X150178631Y-120500976D01*
X150126911Y-120578820D01*
X150120240Y-120585776D01*
X150113082Y-120596172D01*
X150047260Y-120661879D01*
X149984704Y-120727112D01*
X149974451Y-120734561D01*
X149963371Y-120745622D01*
X149889116Y-120796561D01*
X149818480Y-120847881D01*
X149804343Y-120854715D01*
X149788932Y-120865287D01*
X149709362Y-120900631D01*
X149633493Y-120937307D01*
X149615450Y-120942345D01*
X149595606Y-120951159D01*
X149513862Y-120970708D01*
X149435602Y-120992559D01*
X149413931Y-120994607D01*
X149389869Y-121000362D01*
X149308921Y-121004534D01*
X149231054Y-121011894D01*
X149206349Y-121009819D01*
X149178610Y-121011249D01*
X149101221Y-121000992D01*
X149026308Y-120994701D01*
X148999436Y-120987501D01*
X148968905Y-120983454D01*
X148897551Y-120960201D01*
X148827843Y-120941523D01*
X148799930Y-120928388D01*
X148767777Y-120917910D01*
X148704502Y-120883483D01*
X148641937Y-120854042D01*
X148614322Y-120834417D01*
X148581961Y-120816810D01*
X148528361Y-120773328D01*
X148474459Y-120735022D01*
X148448637Y-120708654D01*
X148417681Y-120683541D01*
X148374857Y-120633312D01*
X148330705Y-120588225D01*
X148308260Y-120555198D01*
X148280438Y-120522565D01*
X148248987Y-120467980D01*
X148215216Y-120418288D01*
X148197746Y-120379050D01*
X148174828Y-120339275D01*
X148154854Y-120282714D01*
X148131647Y-120230590D01*
X148120680Y-120185940D01*
X148104389Y-120139808D01*
X148095526Y-120083533D01*
X148082636Y-120031054D01*
X148079560Y-119982153D01*
X148071479Y-119930845D01*
X148072939Y-119876907D01*
X148069736Y-119826002D01*
X148075714Y-119774335D01*
X148077201Y-119719383D01*
X148087837Y-119669558D01*
X148093352Y-119621894D01*
X148109258Y-119569210D01*
X148121363Y-119512505D01*
X148139741Y-119468245D01*
X148152736Y-119425205D01*
X148179092Y-119373479D01*
X148202486Y-119317140D01*
X148226979Y-119279496D01*
X148246016Y-119242134D01*
X148282938Y-119193490D01*
X148317853Y-119139829D01*
X148346712Y-119109471D01*
X148370237Y-119078478D01*
X148417415Y-119035096D01*
X148463601Y-118986511D01*
X148495068Y-118963691D01*
X148521482Y-118939402D01*
X148578149Y-118903440D01*
X148634848Y-118862321D01*
X148667207Y-118846921D01*
X148694956Y-118829311D01*
X148759906Y-118802805D01*
X148825859Y-118771418D01*
X148857560Y-118762953D01*
X148885192Y-118751677D01*
X148956773Y-118736462D01*
X149030238Y-118716846D01*
X149059933Y-118714535D01*
X149086162Y-118708960D01*
X149162337Y-118706566D01*
X149241139Y-118700433D01*
X149267742Y-118703252D01*
X149267742Y-118703252D01*
G37*
G36*
X54017742Y-80603252D02*
G01*
X54041523Y-80602505D01*
X54119921Y-80614082D01*
X54201500Y-80622728D01*
X54224247Y-80629487D01*
X54244783Y-80632520D01*
X54322754Y-80658760D01*
X54404275Y-80682985D01*
X54422713Y-80692400D01*
X54439517Y-80698055D01*
X54514255Y-80739144D01*
X54592674Y-80779186D01*
X54606693Y-80789963D01*
X54619561Y-80797037D01*
X54688190Y-80852611D01*
X54760387Y-80908110D01*
X54770176Y-80919001D01*
X54779238Y-80926339D01*
X54838939Y-80995504D01*
X54901797Y-81065437D01*
X54907859Y-81075349D01*
X54913493Y-81081876D01*
X54961568Y-81163166D01*
X55012168Y-81245900D01*
X55015236Y-81253913D01*
X55018084Y-81258729D01*
X55052154Y-81350339D01*
X55087804Y-81443455D01*
X55088808Y-81448900D01*
X55089700Y-81451298D01*
X55107616Y-81550872D01*
X55126173Y-81651485D01*
X55118823Y-81923116D01*
X55095018Y-82021888D01*
X55072214Y-82119114D01*
X55070798Y-82122387D01*
X55069260Y-82128767D01*
X55028954Y-82219084D01*
X54990613Y-82307686D01*
X54986958Y-82313187D01*
X54983051Y-82321942D01*
X54928631Y-82400976D01*
X54876911Y-82478820D01*
X54870240Y-82485776D01*
X54863082Y-82496172D01*
X54797260Y-82561879D01*
X54734704Y-82627112D01*
X54724451Y-82634561D01*
X54713371Y-82645622D01*
X54639116Y-82696561D01*
X54568480Y-82747881D01*
X54554343Y-82754715D01*
X54538932Y-82765287D01*
X54459362Y-82800631D01*
X54383493Y-82837307D01*
X54365450Y-82842345D01*
X54345606Y-82851159D01*
X54263862Y-82870708D01*
X54185602Y-82892559D01*
X54163931Y-82894607D01*
X54139869Y-82900362D01*
X54058921Y-82904534D01*
X53981054Y-82911894D01*
X53956349Y-82909819D01*
X53928610Y-82911249D01*
X53851221Y-82900992D01*
X53776308Y-82894701D01*
X53749436Y-82887501D01*
X53718905Y-82883454D01*
X53647551Y-82860201D01*
X53577843Y-82841523D01*
X53549930Y-82828388D01*
X53517777Y-82817910D01*
X53454502Y-82783483D01*
X53391937Y-82754042D01*
X53364322Y-82734417D01*
X53331961Y-82716810D01*
X53278361Y-82673328D01*
X53224459Y-82635022D01*
X53198637Y-82608654D01*
X53167681Y-82583541D01*
X53124857Y-82533312D01*
X53080705Y-82488225D01*
X53058260Y-82455198D01*
X53030438Y-82422565D01*
X52998987Y-82367980D01*
X52965216Y-82318288D01*
X52947746Y-82279050D01*
X52924828Y-82239275D01*
X52904854Y-82182714D01*
X52881647Y-82130590D01*
X52870680Y-82085940D01*
X52854389Y-82039808D01*
X52845526Y-81983533D01*
X52832636Y-81931054D01*
X52829560Y-81882153D01*
X52821479Y-81830845D01*
X52822939Y-81776907D01*
X52819736Y-81726002D01*
X52825714Y-81674335D01*
X52827201Y-81619383D01*
X52837837Y-81569558D01*
X52843352Y-81521894D01*
X52859258Y-81469210D01*
X52871363Y-81412505D01*
X52889741Y-81368245D01*
X52902736Y-81325205D01*
X52929092Y-81273479D01*
X52952486Y-81217140D01*
X52976979Y-81179496D01*
X52996016Y-81142134D01*
X53032938Y-81093490D01*
X53067853Y-81039829D01*
X53096712Y-81009471D01*
X53120237Y-80978478D01*
X53167415Y-80935096D01*
X53213601Y-80886511D01*
X53245068Y-80863691D01*
X53271482Y-80839402D01*
X53328149Y-80803440D01*
X53384848Y-80762321D01*
X53417207Y-80746921D01*
X53444956Y-80729311D01*
X53509906Y-80702805D01*
X53575859Y-80671418D01*
X53607560Y-80662953D01*
X53635192Y-80651677D01*
X53706773Y-80636462D01*
X53780238Y-80616846D01*
X53809933Y-80614535D01*
X53836162Y-80608960D01*
X53912337Y-80606566D01*
X53991139Y-80600433D01*
X54017742Y-80603252D01*
X54017742Y-80603252D01*
G37*
G36*
X244517742Y-80603252D02*
G01*
X244541523Y-80602505D01*
X244619921Y-80614082D01*
X244701500Y-80622728D01*
X244724247Y-80629487D01*
X244744783Y-80632520D01*
X244822754Y-80658760D01*
X244904275Y-80682985D01*
X244922713Y-80692400D01*
X244939517Y-80698055D01*
X245014255Y-80739144D01*
X245092674Y-80779186D01*
X245106693Y-80789963D01*
X245119561Y-80797037D01*
X245188190Y-80852611D01*
X245260387Y-80908110D01*
X245270176Y-80919001D01*
X245279238Y-80926339D01*
X245338939Y-80995504D01*
X245401797Y-81065437D01*
X245407859Y-81075349D01*
X245413493Y-81081876D01*
X245461568Y-81163166D01*
X245512168Y-81245900D01*
X245515236Y-81253913D01*
X245518084Y-81258729D01*
X245552154Y-81350339D01*
X245587804Y-81443455D01*
X245588808Y-81448900D01*
X245589700Y-81451298D01*
X245607616Y-81550872D01*
X245626173Y-81651485D01*
X245618823Y-81923116D01*
X245595018Y-82021888D01*
X245572214Y-82119114D01*
X245570798Y-82122387D01*
X245569260Y-82128767D01*
X245528954Y-82219084D01*
X245490613Y-82307686D01*
X245486958Y-82313187D01*
X245483051Y-82321942D01*
X245428631Y-82400976D01*
X245376911Y-82478820D01*
X245370240Y-82485776D01*
X245363082Y-82496172D01*
X245297260Y-82561879D01*
X245234704Y-82627112D01*
X245224451Y-82634561D01*
X245213371Y-82645622D01*
X245139116Y-82696561D01*
X245068480Y-82747881D01*
X245054343Y-82754715D01*
X245038932Y-82765287D01*
X244959362Y-82800631D01*
X244883493Y-82837307D01*
X244865450Y-82842345D01*
X244845606Y-82851159D01*
X244763862Y-82870708D01*
X244685602Y-82892559D01*
X244663931Y-82894607D01*
X244639869Y-82900362D01*
X244558921Y-82904534D01*
X244481054Y-82911894D01*
X244456349Y-82909819D01*
X244428610Y-82911249D01*
X244351221Y-82900992D01*
X244276308Y-82894701D01*
X244249436Y-82887501D01*
X244218905Y-82883454D01*
X244147551Y-82860201D01*
X244077843Y-82841523D01*
X244049930Y-82828388D01*
X244017777Y-82817910D01*
X243954502Y-82783483D01*
X243891937Y-82754042D01*
X243864322Y-82734417D01*
X243831961Y-82716810D01*
X243778361Y-82673328D01*
X243724459Y-82635022D01*
X243698637Y-82608654D01*
X243667681Y-82583541D01*
X243624857Y-82533312D01*
X243580705Y-82488225D01*
X243558260Y-82455198D01*
X243530438Y-82422565D01*
X243498987Y-82367980D01*
X243465216Y-82318288D01*
X243447746Y-82279050D01*
X243424828Y-82239275D01*
X243404854Y-82182714D01*
X243381647Y-82130590D01*
X243370680Y-82085940D01*
X243354389Y-82039808D01*
X243345526Y-81983533D01*
X243332636Y-81931054D01*
X243329560Y-81882153D01*
X243321479Y-81830845D01*
X243322939Y-81776907D01*
X243319736Y-81726002D01*
X243325714Y-81674335D01*
X243327201Y-81619383D01*
X243337837Y-81569558D01*
X243343352Y-81521894D01*
X243359258Y-81469210D01*
X243371363Y-81412505D01*
X243389741Y-81368245D01*
X243402736Y-81325205D01*
X243429092Y-81273479D01*
X243452486Y-81217140D01*
X243476979Y-81179496D01*
X243496016Y-81142134D01*
X243532938Y-81093490D01*
X243567853Y-81039829D01*
X243596712Y-81009471D01*
X243620237Y-80978478D01*
X243667415Y-80935096D01*
X243713601Y-80886511D01*
X243745068Y-80863691D01*
X243771482Y-80839402D01*
X243828149Y-80803440D01*
X243884848Y-80762321D01*
X243917207Y-80746921D01*
X243944956Y-80729311D01*
X244009906Y-80702805D01*
X244075859Y-80671418D01*
X244107560Y-80662953D01*
X244135192Y-80651677D01*
X244206773Y-80636462D01*
X244280238Y-80616846D01*
X244309933Y-80614535D01*
X244336162Y-80608960D01*
X244412337Y-80606566D01*
X244491139Y-80600433D01*
X244517742Y-80603252D01*
X244517742Y-80603252D01*
G37*
G36*
X149267742Y-80603252D02*
G01*
X149291523Y-80602505D01*
X149369921Y-80614082D01*
X149451500Y-80622728D01*
X149474247Y-80629487D01*
X149494783Y-80632520D01*
X149572754Y-80658760D01*
X149654275Y-80682985D01*
X149672713Y-80692400D01*
X149689517Y-80698055D01*
X149764255Y-80739144D01*
X149842674Y-80779186D01*
X149856693Y-80789963D01*
X149869561Y-80797037D01*
X149938190Y-80852611D01*
X150010387Y-80908110D01*
X150020176Y-80919001D01*
X150029238Y-80926339D01*
X150088939Y-80995504D01*
X150151797Y-81065437D01*
X150157859Y-81075349D01*
X150163493Y-81081876D01*
X150211568Y-81163166D01*
X150262168Y-81245900D01*
X150265236Y-81253913D01*
X150268084Y-81258729D01*
X150302154Y-81350339D01*
X150337804Y-81443455D01*
X150338808Y-81448900D01*
X150339700Y-81451298D01*
X150357616Y-81550872D01*
X150376173Y-81651485D01*
X150368823Y-81923116D01*
X150345018Y-82021888D01*
X150322214Y-82119114D01*
X150320798Y-82122387D01*
X150319260Y-82128767D01*
X150278954Y-82219084D01*
X150240613Y-82307686D01*
X150236958Y-82313187D01*
X150233051Y-82321942D01*
X150178631Y-82400976D01*
X150126911Y-82478820D01*
X150120240Y-82485776D01*
X150113082Y-82496172D01*
X150047260Y-82561879D01*
X149984704Y-82627112D01*
X149974451Y-82634561D01*
X149963371Y-82645622D01*
X149889116Y-82696561D01*
X149818480Y-82747881D01*
X149804343Y-82754715D01*
X149788932Y-82765287D01*
X149709362Y-82800631D01*
X149633493Y-82837307D01*
X149615450Y-82842345D01*
X149595606Y-82851159D01*
X149513862Y-82870708D01*
X149435602Y-82892559D01*
X149413931Y-82894607D01*
X149389869Y-82900362D01*
X149308921Y-82904534D01*
X149231054Y-82911894D01*
X149206349Y-82909819D01*
X149178610Y-82911249D01*
X149101221Y-82900992D01*
X149026308Y-82894701D01*
X148999436Y-82887501D01*
X148968905Y-82883454D01*
X148897551Y-82860201D01*
X148827843Y-82841523D01*
X148799930Y-82828388D01*
X148767777Y-82817910D01*
X148704502Y-82783483D01*
X148641937Y-82754042D01*
X148614322Y-82734417D01*
X148581961Y-82716810D01*
X148528361Y-82673328D01*
X148474459Y-82635022D01*
X148448637Y-82608654D01*
X148417681Y-82583541D01*
X148374857Y-82533312D01*
X148330705Y-82488225D01*
X148308260Y-82455198D01*
X148280438Y-82422565D01*
X148248987Y-82367980D01*
X148215216Y-82318288D01*
X148197746Y-82279050D01*
X148174828Y-82239275D01*
X148154854Y-82182714D01*
X148131647Y-82130590D01*
X148120680Y-82085940D01*
X148104389Y-82039808D01*
X148095526Y-81983533D01*
X148082636Y-81931054D01*
X148079560Y-81882153D01*
X148071479Y-81830845D01*
X148072939Y-81776907D01*
X148069736Y-81726002D01*
X148075714Y-81674335D01*
X148077201Y-81619383D01*
X148087837Y-81569558D01*
X148093352Y-81521894D01*
X148109258Y-81469210D01*
X148121363Y-81412505D01*
X148139741Y-81368245D01*
X148152736Y-81325205D01*
X148179092Y-81273479D01*
X148202486Y-81217140D01*
X148226979Y-81179496D01*
X148246016Y-81142134D01*
X148282938Y-81093490D01*
X148317853Y-81039829D01*
X148346712Y-81009471D01*
X148370237Y-80978478D01*
X148417415Y-80935096D01*
X148463601Y-80886511D01*
X148495068Y-80863691D01*
X148521482Y-80839402D01*
X148578149Y-80803440D01*
X148634848Y-80762321D01*
X148667207Y-80746921D01*
X148694956Y-80729311D01*
X148759906Y-80702805D01*
X148825859Y-80671418D01*
X148857560Y-80662953D01*
X148885192Y-80651677D01*
X148956773Y-80636462D01*
X149030238Y-80616846D01*
X149059933Y-80614535D01*
X149086162Y-80608960D01*
X149162337Y-80606566D01*
X149241139Y-80600433D01*
X149267742Y-80603252D01*
X149267742Y-80603252D01*
G37*
G36*
X19267742Y-56803252D02*
G01*
X19291523Y-56802505D01*
X19369921Y-56814082D01*
X19451500Y-56822728D01*
X19474247Y-56829487D01*
X19494783Y-56832520D01*
X19572754Y-56858760D01*
X19654275Y-56882985D01*
X19672713Y-56892400D01*
X19689517Y-56898055D01*
X19764255Y-56939144D01*
X19842674Y-56979186D01*
X19856693Y-56989963D01*
X19869561Y-56997037D01*
X19938190Y-57052611D01*
X20010387Y-57108110D01*
X20020176Y-57119001D01*
X20029238Y-57126339D01*
X20088939Y-57195504D01*
X20151797Y-57265437D01*
X20157859Y-57275349D01*
X20163493Y-57281876D01*
X20211568Y-57363166D01*
X20262168Y-57445900D01*
X20265236Y-57453913D01*
X20268084Y-57458729D01*
X20302154Y-57550339D01*
X20337804Y-57643455D01*
X20338808Y-57648900D01*
X20339700Y-57651298D01*
X20357616Y-57750872D01*
X20376173Y-57851485D01*
X20368823Y-58123116D01*
X20345018Y-58221888D01*
X20322214Y-58319114D01*
X20320798Y-58322387D01*
X20319260Y-58328767D01*
X20278954Y-58419084D01*
X20240613Y-58507686D01*
X20236958Y-58513187D01*
X20233051Y-58521942D01*
X20178631Y-58600976D01*
X20126911Y-58678820D01*
X20120240Y-58685776D01*
X20113082Y-58696172D01*
X20047260Y-58761879D01*
X19984704Y-58827112D01*
X19974451Y-58834561D01*
X19963371Y-58845622D01*
X19889116Y-58896561D01*
X19818480Y-58947881D01*
X19804343Y-58954715D01*
X19788932Y-58965287D01*
X19709362Y-59000631D01*
X19633493Y-59037307D01*
X19615450Y-59042345D01*
X19595606Y-59051159D01*
X19513862Y-59070708D01*
X19435602Y-59092559D01*
X19413931Y-59094607D01*
X19389869Y-59100362D01*
X19308921Y-59104534D01*
X19231054Y-59111894D01*
X19206349Y-59109819D01*
X19178610Y-59111249D01*
X19101221Y-59100992D01*
X19026308Y-59094701D01*
X18999436Y-59087501D01*
X18968905Y-59083454D01*
X18897551Y-59060201D01*
X18827843Y-59041523D01*
X18799930Y-59028388D01*
X18767777Y-59017910D01*
X18704502Y-58983483D01*
X18641937Y-58954042D01*
X18614322Y-58934417D01*
X18581961Y-58916810D01*
X18528361Y-58873328D01*
X18474459Y-58835022D01*
X18448637Y-58808654D01*
X18417681Y-58783541D01*
X18374857Y-58733312D01*
X18330705Y-58688225D01*
X18308260Y-58655198D01*
X18280438Y-58622565D01*
X18248987Y-58567980D01*
X18215216Y-58518288D01*
X18197746Y-58479050D01*
X18174828Y-58439275D01*
X18154854Y-58382714D01*
X18131647Y-58330590D01*
X18120680Y-58285940D01*
X18104389Y-58239808D01*
X18095526Y-58183533D01*
X18082636Y-58131054D01*
X18079560Y-58082153D01*
X18071479Y-58030845D01*
X18072939Y-57976907D01*
X18069736Y-57926002D01*
X18075714Y-57874335D01*
X18077201Y-57819383D01*
X18087837Y-57769558D01*
X18093352Y-57721894D01*
X18109258Y-57669210D01*
X18121363Y-57612505D01*
X18139741Y-57568245D01*
X18152736Y-57525205D01*
X18179092Y-57473479D01*
X18202486Y-57417140D01*
X18226979Y-57379496D01*
X18246016Y-57342134D01*
X18282938Y-57293490D01*
X18317853Y-57239829D01*
X18346712Y-57209471D01*
X18370237Y-57178478D01*
X18417415Y-57135096D01*
X18463601Y-57086511D01*
X18495068Y-57063691D01*
X18521482Y-57039402D01*
X18578149Y-57003440D01*
X18634848Y-56962321D01*
X18667207Y-56946921D01*
X18694956Y-56929311D01*
X18759906Y-56902805D01*
X18825859Y-56871418D01*
X18857560Y-56862953D01*
X18885192Y-56851677D01*
X18956773Y-56836462D01*
X19030238Y-56816846D01*
X19059933Y-56814535D01*
X19086162Y-56808960D01*
X19162337Y-56806566D01*
X19241139Y-56800433D01*
X19267742Y-56803252D01*
X19267742Y-56803252D01*
G37*
G36*
X279267742Y-56803252D02*
G01*
X279291523Y-56802505D01*
X279369921Y-56814082D01*
X279451500Y-56822728D01*
X279474247Y-56829487D01*
X279494783Y-56832520D01*
X279572754Y-56858760D01*
X279654275Y-56882985D01*
X279672713Y-56892400D01*
X279689517Y-56898055D01*
X279764255Y-56939144D01*
X279842674Y-56979186D01*
X279856693Y-56989963D01*
X279869561Y-56997037D01*
X279938190Y-57052611D01*
X280010387Y-57108110D01*
X280020176Y-57119001D01*
X280029238Y-57126339D01*
X280088939Y-57195504D01*
X280151797Y-57265437D01*
X280157859Y-57275349D01*
X280163493Y-57281876D01*
X280211568Y-57363166D01*
X280262168Y-57445900D01*
X280265236Y-57453913D01*
X280268084Y-57458729D01*
X280302154Y-57550339D01*
X280337804Y-57643455D01*
X280338808Y-57648900D01*
X280339700Y-57651298D01*
X280357616Y-57750872D01*
X280376173Y-57851485D01*
X280368823Y-58123116D01*
X280345018Y-58221888D01*
X280322214Y-58319114D01*
X280320798Y-58322387D01*
X280319260Y-58328767D01*
X280278954Y-58419084D01*
X280240613Y-58507686D01*
X280236958Y-58513187D01*
X280233051Y-58521942D01*
X280178631Y-58600976D01*
X280126911Y-58678820D01*
X280120240Y-58685776D01*
X280113082Y-58696172D01*
X280047260Y-58761879D01*
X279984704Y-58827112D01*
X279974451Y-58834561D01*
X279963371Y-58845622D01*
X279889116Y-58896561D01*
X279818480Y-58947881D01*
X279804343Y-58954715D01*
X279788932Y-58965287D01*
X279709362Y-59000631D01*
X279633493Y-59037307D01*
X279615450Y-59042345D01*
X279595606Y-59051159D01*
X279513862Y-59070708D01*
X279435602Y-59092559D01*
X279413931Y-59094607D01*
X279389869Y-59100362D01*
X279308921Y-59104534D01*
X279231054Y-59111894D01*
X279206349Y-59109819D01*
X279178610Y-59111249D01*
X279101221Y-59100992D01*
X279026308Y-59094701D01*
X278999436Y-59087501D01*
X278968905Y-59083454D01*
X278897551Y-59060201D01*
X278827843Y-59041523D01*
X278799930Y-59028388D01*
X278767777Y-59017910D01*
X278704502Y-58983483D01*
X278641937Y-58954042D01*
X278614322Y-58934417D01*
X278581961Y-58916810D01*
X278528361Y-58873328D01*
X278474459Y-58835022D01*
X278448637Y-58808654D01*
X278417681Y-58783541D01*
X278374857Y-58733312D01*
X278330705Y-58688225D01*
X278308260Y-58655198D01*
X278280438Y-58622565D01*
X278248987Y-58567980D01*
X278215216Y-58518288D01*
X278197746Y-58479050D01*
X278174828Y-58439275D01*
X278154854Y-58382714D01*
X278131647Y-58330590D01*
X278120680Y-58285940D01*
X278104389Y-58239808D01*
X278095526Y-58183533D01*
X278082636Y-58131054D01*
X278079560Y-58082153D01*
X278071479Y-58030845D01*
X278072939Y-57976907D01*
X278069736Y-57926002D01*
X278075714Y-57874335D01*
X278077201Y-57819383D01*
X278087837Y-57769558D01*
X278093352Y-57721894D01*
X278109258Y-57669210D01*
X278121363Y-57612505D01*
X278139741Y-57568245D01*
X278152736Y-57525205D01*
X278179092Y-57473479D01*
X278202486Y-57417140D01*
X278226979Y-57379496D01*
X278246016Y-57342134D01*
X278282938Y-57293490D01*
X278317853Y-57239829D01*
X278346712Y-57209471D01*
X278370237Y-57178478D01*
X278417415Y-57135096D01*
X278463601Y-57086511D01*
X278495068Y-57063691D01*
X278521482Y-57039402D01*
X278578149Y-57003440D01*
X278634848Y-56962321D01*
X278667207Y-56946921D01*
X278694956Y-56929311D01*
X278759906Y-56902805D01*
X278825859Y-56871418D01*
X278857560Y-56862953D01*
X278885192Y-56851677D01*
X278956773Y-56836462D01*
X279030238Y-56816846D01*
X279059933Y-56814535D01*
X279086162Y-56808960D01*
X279162337Y-56806566D01*
X279241139Y-56800433D01*
X279267742Y-56803252D01*
X279267742Y-56803252D01*
G37*
G36*
X279267742Y-37803252D02*
G01*
X279291523Y-37802505D01*
X279369921Y-37814082D01*
X279451500Y-37822728D01*
X279474247Y-37829487D01*
X279494783Y-37832520D01*
X279572754Y-37858760D01*
X279654275Y-37882985D01*
X279672713Y-37892400D01*
X279689517Y-37898055D01*
X279764255Y-37939144D01*
X279842674Y-37979186D01*
X279856693Y-37989963D01*
X279869561Y-37997037D01*
X279938190Y-38052611D01*
X280010387Y-38108110D01*
X280020176Y-38119001D01*
X280029238Y-38126339D01*
X280088939Y-38195504D01*
X280151797Y-38265437D01*
X280157859Y-38275349D01*
X280163493Y-38281876D01*
X280211568Y-38363166D01*
X280262168Y-38445900D01*
X280265236Y-38453913D01*
X280268084Y-38458729D01*
X280302154Y-38550339D01*
X280337804Y-38643455D01*
X280338808Y-38648900D01*
X280339700Y-38651298D01*
X280357616Y-38750872D01*
X280376173Y-38851485D01*
X280368823Y-39123116D01*
X280345018Y-39221888D01*
X280322214Y-39319114D01*
X280320798Y-39322387D01*
X280319260Y-39328767D01*
X280278954Y-39419084D01*
X280240613Y-39507686D01*
X280236958Y-39513187D01*
X280233051Y-39521942D01*
X280178631Y-39600976D01*
X280126911Y-39678820D01*
X280120240Y-39685776D01*
X280113082Y-39696172D01*
X280047260Y-39761879D01*
X279984704Y-39827112D01*
X279974451Y-39834561D01*
X279963371Y-39845622D01*
X279889116Y-39896561D01*
X279818480Y-39947881D01*
X279804343Y-39954715D01*
X279788932Y-39965287D01*
X279709362Y-40000631D01*
X279633493Y-40037307D01*
X279615450Y-40042345D01*
X279595606Y-40051159D01*
X279513862Y-40070708D01*
X279435602Y-40092559D01*
X279413931Y-40094607D01*
X279389869Y-40100362D01*
X279308921Y-40104534D01*
X279231054Y-40111894D01*
X279206349Y-40109819D01*
X279178610Y-40111249D01*
X279101221Y-40100992D01*
X279026308Y-40094701D01*
X278999436Y-40087501D01*
X278968905Y-40083454D01*
X278897551Y-40060201D01*
X278827843Y-40041523D01*
X278799930Y-40028388D01*
X278767777Y-40017910D01*
X278704502Y-39983483D01*
X278641937Y-39954042D01*
X278614322Y-39934417D01*
X278581961Y-39916810D01*
X278528361Y-39873328D01*
X278474459Y-39835022D01*
X278448637Y-39808654D01*
X278417681Y-39783541D01*
X278374857Y-39733312D01*
X278330705Y-39688225D01*
X278308260Y-39655198D01*
X278280438Y-39622565D01*
X278248987Y-39567980D01*
X278215216Y-39518288D01*
X278197746Y-39479050D01*
X278174828Y-39439275D01*
X278154854Y-39382714D01*
X278131647Y-39330590D01*
X278120680Y-39285940D01*
X278104389Y-39239808D01*
X278095526Y-39183533D01*
X278082636Y-39131054D01*
X278079560Y-39082153D01*
X278071479Y-39030845D01*
X278072939Y-38976907D01*
X278069736Y-38926002D01*
X278075714Y-38874335D01*
X278077201Y-38819383D01*
X278087837Y-38769558D01*
X278093352Y-38721894D01*
X278109258Y-38669210D01*
X278121363Y-38612505D01*
X278139741Y-38568245D01*
X278152736Y-38525205D01*
X278179092Y-38473479D01*
X278202486Y-38417140D01*
X278226979Y-38379496D01*
X278246016Y-38342134D01*
X278282938Y-38293490D01*
X278317853Y-38239829D01*
X278346712Y-38209471D01*
X278370237Y-38178478D01*
X278417415Y-38135096D01*
X278463601Y-38086511D01*
X278495068Y-38063691D01*
X278521482Y-38039402D01*
X278578149Y-38003440D01*
X278634848Y-37962321D01*
X278667207Y-37946921D01*
X278694956Y-37929311D01*
X278759906Y-37902805D01*
X278825859Y-37871418D01*
X278857560Y-37862953D01*
X278885192Y-37851677D01*
X278956773Y-37836462D01*
X279030238Y-37816846D01*
X279059933Y-37814535D01*
X279086162Y-37808960D01*
X279162337Y-37806566D01*
X279241139Y-37800433D01*
X279267742Y-37803252D01*
X279267742Y-37803252D01*
G37*
G36*
X19267742Y-37803252D02*
G01*
X19291523Y-37802505D01*
X19369921Y-37814082D01*
X19451500Y-37822728D01*
X19474247Y-37829487D01*
X19494783Y-37832520D01*
X19572754Y-37858760D01*
X19654275Y-37882985D01*
X19672713Y-37892400D01*
X19689517Y-37898055D01*
X19764255Y-37939144D01*
X19842674Y-37979186D01*
X19856693Y-37989963D01*
X19869561Y-37997037D01*
X19938190Y-38052611D01*
X20010387Y-38108110D01*
X20020176Y-38119001D01*
X20029238Y-38126339D01*
X20088939Y-38195504D01*
X20151797Y-38265437D01*
X20157859Y-38275349D01*
X20163493Y-38281876D01*
X20211568Y-38363166D01*
X20262168Y-38445900D01*
X20265236Y-38453913D01*
X20268084Y-38458729D01*
X20302154Y-38550339D01*
X20337804Y-38643455D01*
X20338808Y-38648900D01*
X20339700Y-38651298D01*
X20357616Y-38750872D01*
X20376173Y-38851485D01*
X20368823Y-39123116D01*
X20345018Y-39221888D01*
X20322214Y-39319114D01*
X20320798Y-39322387D01*
X20319260Y-39328767D01*
X20278954Y-39419084D01*
X20240613Y-39507686D01*
X20236958Y-39513187D01*
X20233051Y-39521942D01*
X20178631Y-39600976D01*
X20126911Y-39678820D01*
X20120240Y-39685776D01*
X20113082Y-39696172D01*
X20047260Y-39761879D01*
X19984704Y-39827112D01*
X19974451Y-39834561D01*
X19963371Y-39845622D01*
X19889116Y-39896561D01*
X19818480Y-39947881D01*
X19804343Y-39954715D01*
X19788932Y-39965287D01*
X19709362Y-40000631D01*
X19633493Y-40037307D01*
X19615450Y-40042345D01*
X19595606Y-40051159D01*
X19513862Y-40070708D01*
X19435602Y-40092559D01*
X19413931Y-40094607D01*
X19389869Y-40100362D01*
X19308921Y-40104534D01*
X19231054Y-40111894D01*
X19206349Y-40109819D01*
X19178610Y-40111249D01*
X19101221Y-40100992D01*
X19026308Y-40094701D01*
X18999436Y-40087501D01*
X18968905Y-40083454D01*
X18897551Y-40060201D01*
X18827843Y-40041523D01*
X18799930Y-40028388D01*
X18767777Y-40017910D01*
X18704502Y-39983483D01*
X18641937Y-39954042D01*
X18614322Y-39934417D01*
X18581961Y-39916810D01*
X18528361Y-39873328D01*
X18474459Y-39835022D01*
X18448637Y-39808654D01*
X18417681Y-39783541D01*
X18374857Y-39733312D01*
X18330705Y-39688225D01*
X18308260Y-39655198D01*
X18280438Y-39622565D01*
X18248987Y-39567980D01*
X18215216Y-39518288D01*
X18197746Y-39479050D01*
X18174828Y-39439275D01*
X18154854Y-39382714D01*
X18131647Y-39330590D01*
X18120680Y-39285940D01*
X18104389Y-39239808D01*
X18095526Y-39183533D01*
X18082636Y-39131054D01*
X18079560Y-39082153D01*
X18071479Y-39030845D01*
X18072939Y-38976907D01*
X18069736Y-38926002D01*
X18075714Y-38874335D01*
X18077201Y-38819383D01*
X18087837Y-38769558D01*
X18093352Y-38721894D01*
X18109258Y-38669210D01*
X18121363Y-38612505D01*
X18139741Y-38568245D01*
X18152736Y-38525205D01*
X18179092Y-38473479D01*
X18202486Y-38417140D01*
X18226979Y-38379496D01*
X18246016Y-38342134D01*
X18282938Y-38293490D01*
X18317853Y-38239829D01*
X18346712Y-38209471D01*
X18370237Y-38178478D01*
X18417415Y-38135096D01*
X18463601Y-38086511D01*
X18495068Y-38063691D01*
X18521482Y-38039402D01*
X18578149Y-38003440D01*
X18634848Y-37962321D01*
X18667207Y-37946921D01*
X18694956Y-37929311D01*
X18759906Y-37902805D01*
X18825859Y-37871418D01*
X18857560Y-37862953D01*
X18885192Y-37851677D01*
X18956773Y-37836462D01*
X19030238Y-37816846D01*
X19059933Y-37814535D01*
X19086162Y-37808960D01*
X19162337Y-37806566D01*
X19241139Y-37800433D01*
X19267742Y-37803252D01*
X19267742Y-37803252D01*
G37*
M02*
