G04 #@! TF.GenerationSoftware,KiCad,Pcbnew,(5.99.0-176-g31e38f2fd)*
G04 #@! TF.CreationDate,2019-12-28T01:19:50+01:00*
G04 #@! TF.ProjectId,5x14_ortho_keyboard_elite-c_backplate,35783134-5f6f-4727-9468-6f5f6b657962,rev?*
G04 #@! TF.SameCoordinates,Original*
G04 #@! TF.FileFunction,Copper,L1,Top*
G04 #@! TF.FilePolarity,Positive*
%FSLAX46Y46*%
G04 Gerber Fmt 4.6, Leading zero omitted, Abs format (unit mm)*
G04 Created by KiCad (PCBNEW (5.99.0-176-g31e38f2fd)) date 2019-12-28 01:19:50*
%MOMM*%
%LPD*%
G04 APERTURE LIST*
%ADD10C,0.200000*%
G04 APERTURE END LIST*
D10*
G36*
X280694893Y-34809000D02*
G01*
X281029068Y-34828268D01*
X281329113Y-34880635D01*
X281621138Y-34967137D01*
X281901285Y-35086630D01*
X282165850Y-35237535D01*
X282411312Y-35417844D01*
X282634429Y-35625176D01*
X282832228Y-35856770D01*
X283002106Y-36109576D01*
X283141797Y-36380222D01*
X283249459Y-36665141D01*
X283323655Y-36960527D01*
X283363894Y-37266181D01*
X283371697Y-37478964D01*
X283376000Y-37497097D01*
X283376001Y-155911692D01*
X283372250Y-155926143D01*
X283352982Y-156260318D01*
X283300617Y-156560355D01*
X283214114Y-156852385D01*
X283094620Y-157132535D01*
X282943714Y-157397101D01*
X282763402Y-157642567D01*
X282556070Y-157865683D01*
X282324481Y-158063478D01*
X282071674Y-158233356D01*
X281801028Y-158373047D01*
X281516109Y-158480709D01*
X281220723Y-158554905D01*
X280915081Y-158595143D01*
X280702286Y-158602947D01*
X280684153Y-158607250D01*
X17769554Y-158607250D01*
X17755107Y-158603500D01*
X17420932Y-158584232D01*
X17120895Y-158531867D01*
X16828865Y-158445364D01*
X16548715Y-158325870D01*
X16284149Y-158174964D01*
X16038683Y-157994652D01*
X15815567Y-157787320D01*
X15617772Y-157555731D01*
X15447894Y-157302924D01*
X15308203Y-157032278D01*
X15200541Y-156747359D01*
X15126345Y-156451973D01*
X15086107Y-156146331D01*
X15078303Y-155933536D01*
X15074000Y-155915403D01*
X15074000Y-138779479D01*
X52526001Y-138779479D01*
X52526001Y-139033021D01*
X52570028Y-139282711D01*
X52656745Y-139520963D01*
X52783515Y-139740537D01*
X52946489Y-139934761D01*
X53140713Y-140097735D01*
X53360287Y-140224505D01*
X53598539Y-140311222D01*
X53848229Y-140355249D01*
X54101771Y-140355249D01*
X54351461Y-140311222D01*
X54589713Y-140224505D01*
X54809287Y-140097735D01*
X55003511Y-139934761D01*
X55166485Y-139740537D01*
X55293255Y-139520963D01*
X55379972Y-139282711D01*
X55423999Y-139033021D01*
X55423999Y-138779479D01*
X243026001Y-138779479D01*
X243026001Y-139033021D01*
X243070028Y-139282711D01*
X243156745Y-139520963D01*
X243283515Y-139740537D01*
X243446489Y-139934761D01*
X243640713Y-140097735D01*
X243860287Y-140224505D01*
X244098539Y-140311222D01*
X244348229Y-140355249D01*
X244601771Y-140355249D01*
X244851461Y-140311222D01*
X245089713Y-140224505D01*
X245309287Y-140097735D01*
X245503511Y-139934761D01*
X245666485Y-139740537D01*
X245793255Y-139520963D01*
X245879972Y-139282711D01*
X245923999Y-139033021D01*
X245923999Y-138779479D01*
X245879972Y-138529789D01*
X245793255Y-138291537D01*
X245666485Y-138071963D01*
X245503511Y-137877739D01*
X245309287Y-137714765D01*
X245089713Y-137587995D01*
X244851461Y-137501278D01*
X244601771Y-137457251D01*
X244348229Y-137457251D01*
X244098539Y-137501278D01*
X243860287Y-137587995D01*
X243640713Y-137714765D01*
X243446489Y-137877739D01*
X243283515Y-138071963D01*
X243156745Y-138291537D01*
X243070028Y-138529789D01*
X243026001Y-138779479D01*
X55423999Y-138779479D01*
X55379972Y-138529789D01*
X55293255Y-138291537D01*
X55166485Y-138071963D01*
X55003511Y-137877739D01*
X54809287Y-137714765D01*
X54589713Y-137587995D01*
X54351461Y-137501278D01*
X54101771Y-137457251D01*
X53848229Y-137457251D01*
X53598539Y-137501278D01*
X53360287Y-137587995D01*
X53140713Y-137714765D01*
X52946489Y-137877739D01*
X52783515Y-138071963D01*
X52656745Y-138291537D01*
X52570028Y-138529789D01*
X52526001Y-138779479D01*
X15074000Y-138779479D01*
X15074000Y-119729479D01*
X147776001Y-119729479D01*
X147776001Y-119983021D01*
X147820028Y-120232711D01*
X147906745Y-120470963D01*
X148033515Y-120690537D01*
X148196489Y-120884761D01*
X148390713Y-121047735D01*
X148610287Y-121174505D01*
X148848539Y-121261222D01*
X149098229Y-121305249D01*
X149351771Y-121305249D01*
X149601461Y-121261222D01*
X149839713Y-121174505D01*
X150059287Y-121047735D01*
X150253511Y-120884761D01*
X150416485Y-120690537D01*
X150543255Y-120470963D01*
X150629972Y-120232711D01*
X150673999Y-119983021D01*
X150673999Y-119729479D01*
X150629972Y-119479789D01*
X150543255Y-119241537D01*
X150416485Y-119021963D01*
X150253511Y-118827739D01*
X150059287Y-118664765D01*
X149839713Y-118537995D01*
X149601461Y-118451278D01*
X149351771Y-118407251D01*
X149098229Y-118407251D01*
X148848539Y-118451278D01*
X148610287Y-118537995D01*
X148390713Y-118664765D01*
X148196489Y-118827739D01*
X148033515Y-119021963D01*
X147906745Y-119241537D01*
X147820028Y-119479789D01*
X147776001Y-119729479D01*
X15074000Y-119729479D01*
X15074000Y-81629479D01*
X52526001Y-81629479D01*
X52526001Y-81883021D01*
X52570028Y-82132711D01*
X52656745Y-82370963D01*
X52783515Y-82590537D01*
X52946489Y-82784761D01*
X53140713Y-82947735D01*
X53360287Y-83074505D01*
X53598539Y-83161222D01*
X53848229Y-83205249D01*
X54101771Y-83205249D01*
X54351461Y-83161222D01*
X54589713Y-83074505D01*
X54809287Y-82947735D01*
X55003511Y-82784761D01*
X55166485Y-82590537D01*
X55293255Y-82370963D01*
X55379972Y-82132711D01*
X55423999Y-81883021D01*
X55423999Y-81629479D01*
X147776001Y-81629479D01*
X147776001Y-81883021D01*
X147820028Y-82132711D01*
X147906745Y-82370963D01*
X148033515Y-82590537D01*
X148196489Y-82784761D01*
X148390713Y-82947735D01*
X148610287Y-83074505D01*
X148848539Y-83161222D01*
X149098229Y-83205249D01*
X149351771Y-83205249D01*
X149601461Y-83161222D01*
X149839713Y-83074505D01*
X150059287Y-82947735D01*
X150253511Y-82784761D01*
X150416485Y-82590537D01*
X150543255Y-82370963D01*
X150629972Y-82132711D01*
X150673999Y-81883021D01*
X150673999Y-81629479D01*
X243026001Y-81629479D01*
X243026001Y-81883021D01*
X243070028Y-82132711D01*
X243156745Y-82370963D01*
X243283515Y-82590537D01*
X243446489Y-82784761D01*
X243640713Y-82947735D01*
X243860287Y-83074505D01*
X244098539Y-83161222D01*
X244348229Y-83205249D01*
X244601771Y-83205249D01*
X244851461Y-83161222D01*
X245089713Y-83074505D01*
X245309287Y-82947735D01*
X245503511Y-82784761D01*
X245666485Y-82590537D01*
X245793255Y-82370963D01*
X245879972Y-82132711D01*
X245923999Y-81883021D01*
X245923999Y-81629479D01*
X245879972Y-81379789D01*
X245793255Y-81141537D01*
X245666485Y-80921963D01*
X245503511Y-80727739D01*
X245309287Y-80564765D01*
X245089713Y-80437995D01*
X244851461Y-80351278D01*
X244601771Y-80307251D01*
X244348229Y-80307251D01*
X244098539Y-80351278D01*
X243860287Y-80437995D01*
X243640713Y-80564765D01*
X243446489Y-80727739D01*
X243283515Y-80921963D01*
X243156745Y-81141537D01*
X243070028Y-81379789D01*
X243026001Y-81629479D01*
X150673999Y-81629479D01*
X150629972Y-81379789D01*
X150543255Y-81141537D01*
X150416485Y-80921963D01*
X150253511Y-80727739D01*
X150059287Y-80564765D01*
X149839713Y-80437995D01*
X149601461Y-80351278D01*
X149351771Y-80307251D01*
X149098229Y-80307251D01*
X148848539Y-80351278D01*
X148610287Y-80437995D01*
X148390713Y-80564765D01*
X148196489Y-80727739D01*
X148033515Y-80921963D01*
X147906745Y-81141537D01*
X147820028Y-81379789D01*
X147776001Y-81629479D01*
X55423999Y-81629479D01*
X55379972Y-81379789D01*
X55293255Y-81141537D01*
X55166485Y-80921963D01*
X55003511Y-80727739D01*
X54809287Y-80564765D01*
X54589713Y-80437995D01*
X54351461Y-80351278D01*
X54101771Y-80307251D01*
X53848229Y-80307251D01*
X53598539Y-80351278D01*
X53360287Y-80437995D01*
X53140713Y-80564765D01*
X52946489Y-80727739D01*
X52783515Y-80921963D01*
X52656745Y-81141537D01*
X52570028Y-81379789D01*
X52526001Y-81629479D01*
X15074000Y-81629479D01*
X15074000Y-57829479D01*
X17776001Y-57829479D01*
X17776001Y-58083021D01*
X17820028Y-58332711D01*
X17906745Y-58570963D01*
X18033515Y-58790537D01*
X18196489Y-58984761D01*
X18390713Y-59147735D01*
X18610287Y-59274505D01*
X18848539Y-59361222D01*
X19098229Y-59405249D01*
X19351771Y-59405249D01*
X19601461Y-59361222D01*
X19839713Y-59274505D01*
X20059287Y-59147735D01*
X20253511Y-58984761D01*
X20416485Y-58790537D01*
X20543255Y-58570963D01*
X20629972Y-58332711D01*
X20673999Y-58083021D01*
X20673999Y-57829479D01*
X277776001Y-57829479D01*
X277776001Y-58083021D01*
X277820028Y-58332711D01*
X277906745Y-58570963D01*
X278033515Y-58790537D01*
X278196489Y-58984761D01*
X278390713Y-59147735D01*
X278610287Y-59274505D01*
X278848539Y-59361222D01*
X279098229Y-59405249D01*
X279351771Y-59405249D01*
X279601461Y-59361222D01*
X279839713Y-59274505D01*
X280059287Y-59147735D01*
X280253511Y-58984761D01*
X280416485Y-58790537D01*
X280543255Y-58570963D01*
X280629972Y-58332711D01*
X280673999Y-58083021D01*
X280673999Y-57829479D01*
X280629972Y-57579789D01*
X280543255Y-57341537D01*
X280416485Y-57121963D01*
X280253511Y-56927739D01*
X280059287Y-56764765D01*
X279839713Y-56637995D01*
X279601461Y-56551278D01*
X279351771Y-56507251D01*
X279098229Y-56507251D01*
X278848539Y-56551278D01*
X278610287Y-56637995D01*
X278390713Y-56764765D01*
X278196489Y-56927739D01*
X278033515Y-57121963D01*
X277906745Y-57341537D01*
X277820028Y-57579789D01*
X277776001Y-57829479D01*
X20673999Y-57829479D01*
X20629972Y-57579789D01*
X20543255Y-57341537D01*
X20416485Y-57121963D01*
X20253511Y-56927739D01*
X20059287Y-56764765D01*
X19839713Y-56637995D01*
X19601461Y-56551278D01*
X19351771Y-56507251D01*
X19098229Y-56507251D01*
X18848539Y-56551278D01*
X18610287Y-56637995D01*
X18390713Y-56764765D01*
X18196489Y-56927739D01*
X18033515Y-57121963D01*
X17906745Y-57341537D01*
X17820028Y-57579789D01*
X17776001Y-57829479D01*
X15074000Y-57829479D01*
X15074000Y-38829479D01*
X17776001Y-38829479D01*
X17776001Y-39083021D01*
X17820028Y-39332711D01*
X17906745Y-39570963D01*
X18033515Y-39790537D01*
X18196489Y-39984761D01*
X18390713Y-40147735D01*
X18610287Y-40274505D01*
X18848539Y-40361222D01*
X19098229Y-40405249D01*
X19351771Y-40405249D01*
X19601461Y-40361222D01*
X19839713Y-40274505D01*
X20059287Y-40147735D01*
X20253511Y-39984761D01*
X20416485Y-39790537D01*
X20543255Y-39570963D01*
X20629972Y-39332711D01*
X20673999Y-39083021D01*
X20673999Y-38829479D01*
X277776001Y-38829479D01*
X277776001Y-39083021D01*
X277820028Y-39332711D01*
X277906745Y-39570963D01*
X278033515Y-39790537D01*
X278196489Y-39984761D01*
X278390713Y-40147735D01*
X278610287Y-40274505D01*
X278848539Y-40361222D01*
X279098229Y-40405249D01*
X279351771Y-40405249D01*
X279601461Y-40361222D01*
X279839713Y-40274505D01*
X280059287Y-40147735D01*
X280253511Y-39984761D01*
X280416485Y-39790537D01*
X280543255Y-39570963D01*
X280629972Y-39332711D01*
X280673999Y-39083021D01*
X280673999Y-38829479D01*
X280629972Y-38579789D01*
X280543255Y-38341537D01*
X280416485Y-38121963D01*
X280253511Y-37927739D01*
X280059287Y-37764765D01*
X279839713Y-37637995D01*
X279601461Y-37551278D01*
X279351771Y-37507251D01*
X279098229Y-37507251D01*
X278848539Y-37551278D01*
X278610287Y-37637995D01*
X278390713Y-37764765D01*
X278196489Y-37927739D01*
X278033515Y-38121963D01*
X277906745Y-38341537D01*
X277820028Y-38579789D01*
X277776001Y-38829479D01*
X20673999Y-38829479D01*
X20629972Y-38579789D01*
X20543255Y-38341537D01*
X20416485Y-38121963D01*
X20253511Y-37927739D01*
X20059287Y-37764765D01*
X19839713Y-37637995D01*
X19601461Y-37551278D01*
X19351771Y-37507251D01*
X19098229Y-37507251D01*
X18848539Y-37551278D01*
X18610287Y-37637995D01*
X18390713Y-37764765D01*
X18196489Y-37927739D01*
X18033515Y-38121963D01*
X17906745Y-38341537D01*
X17820028Y-38579789D01*
X17776001Y-38829479D01*
X15074000Y-38829479D01*
X15074000Y-37500804D01*
X15077750Y-37486357D01*
X15097018Y-37152182D01*
X15149385Y-36852137D01*
X15235887Y-36560112D01*
X15355380Y-36279965D01*
X15506285Y-36015400D01*
X15686594Y-35769938D01*
X15893926Y-35546821D01*
X16125520Y-35349022D01*
X16378326Y-35179144D01*
X16648972Y-35039453D01*
X16933891Y-34931791D01*
X17229277Y-34857595D01*
X17534931Y-34817356D01*
X17747714Y-34809553D01*
X17765847Y-34805250D01*
X280680446Y-34805250D01*
X280694893Y-34809000D01*
X280694893Y-34809000D01*
G37*
X280694893Y-34809000D02*
X281029068Y-34828268D01*
X281329113Y-34880635D01*
X281621138Y-34967137D01*
X281901285Y-35086630D01*
X282165850Y-35237535D01*
X282411312Y-35417844D01*
X282634429Y-35625176D01*
X282832228Y-35856770D01*
X283002106Y-36109576D01*
X283141797Y-36380222D01*
X283249459Y-36665141D01*
X283323655Y-36960527D01*
X283363894Y-37266181D01*
X283371697Y-37478964D01*
X283376000Y-37497097D01*
X283376001Y-155911692D01*
X283372250Y-155926143D01*
X283352982Y-156260318D01*
X283300617Y-156560355D01*
X283214114Y-156852385D01*
X283094620Y-157132535D01*
X282943714Y-157397101D01*
X282763402Y-157642567D01*
X282556070Y-157865683D01*
X282324481Y-158063478D01*
X282071674Y-158233356D01*
X281801028Y-158373047D01*
X281516109Y-158480709D01*
X281220723Y-158554905D01*
X280915081Y-158595143D01*
X280702286Y-158602947D01*
X280684153Y-158607250D01*
X17769554Y-158607250D01*
X17755107Y-158603500D01*
X17420932Y-158584232D01*
X17120895Y-158531867D01*
X16828865Y-158445364D01*
X16548715Y-158325870D01*
X16284149Y-158174964D01*
X16038683Y-157994652D01*
X15815567Y-157787320D01*
X15617772Y-157555731D01*
X15447894Y-157302924D01*
X15308203Y-157032278D01*
X15200541Y-156747359D01*
X15126345Y-156451973D01*
X15086107Y-156146331D01*
X15078303Y-155933536D01*
X15074000Y-155915403D01*
X15074000Y-138779479D01*
X52526001Y-138779479D01*
X52526001Y-139033021D01*
X52570028Y-139282711D01*
X52656745Y-139520963D01*
X52783515Y-139740537D01*
X52946489Y-139934761D01*
X53140713Y-140097735D01*
X53360287Y-140224505D01*
X53598539Y-140311222D01*
X53848229Y-140355249D01*
X54101771Y-140355249D01*
X54351461Y-140311222D01*
X54589713Y-140224505D01*
X54809287Y-140097735D01*
X55003511Y-139934761D01*
X55166485Y-139740537D01*
X55293255Y-139520963D01*
X55379972Y-139282711D01*
X55423999Y-139033021D01*
X55423999Y-138779479D01*
X243026001Y-138779479D01*
X243026001Y-139033021D01*
X243070028Y-139282711D01*
X243156745Y-139520963D01*
X243283515Y-139740537D01*
X243446489Y-139934761D01*
X243640713Y-140097735D01*
X243860287Y-140224505D01*
X244098539Y-140311222D01*
X244348229Y-140355249D01*
X244601771Y-140355249D01*
X244851461Y-140311222D01*
X245089713Y-140224505D01*
X245309287Y-140097735D01*
X245503511Y-139934761D01*
X245666485Y-139740537D01*
X245793255Y-139520963D01*
X245879972Y-139282711D01*
X245923999Y-139033021D01*
X245923999Y-138779479D01*
X245879972Y-138529789D01*
X245793255Y-138291537D01*
X245666485Y-138071963D01*
X245503511Y-137877739D01*
X245309287Y-137714765D01*
X245089713Y-137587995D01*
X244851461Y-137501278D01*
X244601771Y-137457251D01*
X244348229Y-137457251D01*
X244098539Y-137501278D01*
X243860287Y-137587995D01*
X243640713Y-137714765D01*
X243446489Y-137877739D01*
X243283515Y-138071963D01*
X243156745Y-138291537D01*
X243070028Y-138529789D01*
X243026001Y-138779479D01*
X55423999Y-138779479D01*
X55379972Y-138529789D01*
X55293255Y-138291537D01*
X55166485Y-138071963D01*
X55003511Y-137877739D01*
X54809287Y-137714765D01*
X54589713Y-137587995D01*
X54351461Y-137501278D01*
X54101771Y-137457251D01*
X53848229Y-137457251D01*
X53598539Y-137501278D01*
X53360287Y-137587995D01*
X53140713Y-137714765D01*
X52946489Y-137877739D01*
X52783515Y-138071963D01*
X52656745Y-138291537D01*
X52570028Y-138529789D01*
X52526001Y-138779479D01*
X15074000Y-138779479D01*
X15074000Y-119729479D01*
X147776001Y-119729479D01*
X147776001Y-119983021D01*
X147820028Y-120232711D01*
X147906745Y-120470963D01*
X148033515Y-120690537D01*
X148196489Y-120884761D01*
X148390713Y-121047735D01*
X148610287Y-121174505D01*
X148848539Y-121261222D01*
X149098229Y-121305249D01*
X149351771Y-121305249D01*
X149601461Y-121261222D01*
X149839713Y-121174505D01*
X150059287Y-121047735D01*
X150253511Y-120884761D01*
X150416485Y-120690537D01*
X150543255Y-120470963D01*
X150629972Y-120232711D01*
X150673999Y-119983021D01*
X150673999Y-119729479D01*
X150629972Y-119479789D01*
X150543255Y-119241537D01*
X150416485Y-119021963D01*
X150253511Y-118827739D01*
X150059287Y-118664765D01*
X149839713Y-118537995D01*
X149601461Y-118451278D01*
X149351771Y-118407251D01*
X149098229Y-118407251D01*
X148848539Y-118451278D01*
X148610287Y-118537995D01*
X148390713Y-118664765D01*
X148196489Y-118827739D01*
X148033515Y-119021963D01*
X147906745Y-119241537D01*
X147820028Y-119479789D01*
X147776001Y-119729479D01*
X15074000Y-119729479D01*
X15074000Y-81629479D01*
X52526001Y-81629479D01*
X52526001Y-81883021D01*
X52570028Y-82132711D01*
X52656745Y-82370963D01*
X52783515Y-82590537D01*
X52946489Y-82784761D01*
X53140713Y-82947735D01*
X53360287Y-83074505D01*
X53598539Y-83161222D01*
X53848229Y-83205249D01*
X54101771Y-83205249D01*
X54351461Y-83161222D01*
X54589713Y-83074505D01*
X54809287Y-82947735D01*
X55003511Y-82784761D01*
X55166485Y-82590537D01*
X55293255Y-82370963D01*
X55379972Y-82132711D01*
X55423999Y-81883021D01*
X55423999Y-81629479D01*
X147776001Y-81629479D01*
X147776001Y-81883021D01*
X147820028Y-82132711D01*
X147906745Y-82370963D01*
X148033515Y-82590537D01*
X148196489Y-82784761D01*
X148390713Y-82947735D01*
X148610287Y-83074505D01*
X148848539Y-83161222D01*
X149098229Y-83205249D01*
X149351771Y-83205249D01*
X149601461Y-83161222D01*
X149839713Y-83074505D01*
X150059287Y-82947735D01*
X150253511Y-82784761D01*
X150416485Y-82590537D01*
X150543255Y-82370963D01*
X150629972Y-82132711D01*
X150673999Y-81883021D01*
X150673999Y-81629479D01*
X243026001Y-81629479D01*
X243026001Y-81883021D01*
X243070028Y-82132711D01*
X243156745Y-82370963D01*
X243283515Y-82590537D01*
X243446489Y-82784761D01*
X243640713Y-82947735D01*
X243860287Y-83074505D01*
X244098539Y-83161222D01*
X244348229Y-83205249D01*
X244601771Y-83205249D01*
X244851461Y-83161222D01*
X245089713Y-83074505D01*
X245309287Y-82947735D01*
X245503511Y-82784761D01*
X245666485Y-82590537D01*
X245793255Y-82370963D01*
X245879972Y-82132711D01*
X245923999Y-81883021D01*
X245923999Y-81629479D01*
X245879972Y-81379789D01*
X245793255Y-81141537D01*
X245666485Y-80921963D01*
X245503511Y-80727739D01*
X245309287Y-80564765D01*
X245089713Y-80437995D01*
X244851461Y-80351278D01*
X244601771Y-80307251D01*
X244348229Y-80307251D01*
X244098539Y-80351278D01*
X243860287Y-80437995D01*
X243640713Y-80564765D01*
X243446489Y-80727739D01*
X243283515Y-80921963D01*
X243156745Y-81141537D01*
X243070028Y-81379789D01*
X243026001Y-81629479D01*
X150673999Y-81629479D01*
X150629972Y-81379789D01*
X150543255Y-81141537D01*
X150416485Y-80921963D01*
X150253511Y-80727739D01*
X150059287Y-80564765D01*
X149839713Y-80437995D01*
X149601461Y-80351278D01*
X149351771Y-80307251D01*
X149098229Y-80307251D01*
X148848539Y-80351278D01*
X148610287Y-80437995D01*
X148390713Y-80564765D01*
X148196489Y-80727739D01*
X148033515Y-80921963D01*
X147906745Y-81141537D01*
X147820028Y-81379789D01*
X147776001Y-81629479D01*
X55423999Y-81629479D01*
X55379972Y-81379789D01*
X55293255Y-81141537D01*
X55166485Y-80921963D01*
X55003511Y-80727739D01*
X54809287Y-80564765D01*
X54589713Y-80437995D01*
X54351461Y-80351278D01*
X54101771Y-80307251D01*
X53848229Y-80307251D01*
X53598539Y-80351278D01*
X53360287Y-80437995D01*
X53140713Y-80564765D01*
X52946489Y-80727739D01*
X52783515Y-80921963D01*
X52656745Y-81141537D01*
X52570028Y-81379789D01*
X52526001Y-81629479D01*
X15074000Y-81629479D01*
X15074000Y-57829479D01*
X17776001Y-57829479D01*
X17776001Y-58083021D01*
X17820028Y-58332711D01*
X17906745Y-58570963D01*
X18033515Y-58790537D01*
X18196489Y-58984761D01*
X18390713Y-59147735D01*
X18610287Y-59274505D01*
X18848539Y-59361222D01*
X19098229Y-59405249D01*
X19351771Y-59405249D01*
X19601461Y-59361222D01*
X19839713Y-59274505D01*
X20059287Y-59147735D01*
X20253511Y-58984761D01*
X20416485Y-58790537D01*
X20543255Y-58570963D01*
X20629972Y-58332711D01*
X20673999Y-58083021D01*
X20673999Y-57829479D01*
X277776001Y-57829479D01*
X277776001Y-58083021D01*
X277820028Y-58332711D01*
X277906745Y-58570963D01*
X278033515Y-58790537D01*
X278196489Y-58984761D01*
X278390713Y-59147735D01*
X278610287Y-59274505D01*
X278848539Y-59361222D01*
X279098229Y-59405249D01*
X279351771Y-59405249D01*
X279601461Y-59361222D01*
X279839713Y-59274505D01*
X280059287Y-59147735D01*
X280253511Y-58984761D01*
X280416485Y-58790537D01*
X280543255Y-58570963D01*
X280629972Y-58332711D01*
X280673999Y-58083021D01*
X280673999Y-57829479D01*
X280629972Y-57579789D01*
X280543255Y-57341537D01*
X280416485Y-57121963D01*
X280253511Y-56927739D01*
X280059287Y-56764765D01*
X279839713Y-56637995D01*
X279601461Y-56551278D01*
X279351771Y-56507251D01*
X279098229Y-56507251D01*
X278848539Y-56551278D01*
X278610287Y-56637995D01*
X278390713Y-56764765D01*
X278196489Y-56927739D01*
X278033515Y-57121963D01*
X277906745Y-57341537D01*
X277820028Y-57579789D01*
X277776001Y-57829479D01*
X20673999Y-57829479D01*
X20629972Y-57579789D01*
X20543255Y-57341537D01*
X20416485Y-57121963D01*
X20253511Y-56927739D01*
X20059287Y-56764765D01*
X19839713Y-56637995D01*
X19601461Y-56551278D01*
X19351771Y-56507251D01*
X19098229Y-56507251D01*
X18848539Y-56551278D01*
X18610287Y-56637995D01*
X18390713Y-56764765D01*
X18196489Y-56927739D01*
X18033515Y-57121963D01*
X17906745Y-57341537D01*
X17820028Y-57579789D01*
X17776001Y-57829479D01*
X15074000Y-57829479D01*
X15074000Y-38829479D01*
X17776001Y-38829479D01*
X17776001Y-39083021D01*
X17820028Y-39332711D01*
X17906745Y-39570963D01*
X18033515Y-39790537D01*
X18196489Y-39984761D01*
X18390713Y-40147735D01*
X18610287Y-40274505D01*
X18848539Y-40361222D01*
X19098229Y-40405249D01*
X19351771Y-40405249D01*
X19601461Y-40361222D01*
X19839713Y-40274505D01*
X20059287Y-40147735D01*
X20253511Y-39984761D01*
X20416485Y-39790537D01*
X20543255Y-39570963D01*
X20629972Y-39332711D01*
X20673999Y-39083021D01*
X20673999Y-38829479D01*
X277776001Y-38829479D01*
X277776001Y-39083021D01*
X277820028Y-39332711D01*
X277906745Y-39570963D01*
X278033515Y-39790537D01*
X278196489Y-39984761D01*
X278390713Y-40147735D01*
X278610287Y-40274505D01*
X278848539Y-40361222D01*
X279098229Y-40405249D01*
X279351771Y-40405249D01*
X279601461Y-40361222D01*
X279839713Y-40274505D01*
X280059287Y-40147735D01*
X280253511Y-39984761D01*
X280416485Y-39790537D01*
X280543255Y-39570963D01*
X280629972Y-39332711D01*
X280673999Y-39083021D01*
X280673999Y-38829479D01*
X280629972Y-38579789D01*
X280543255Y-38341537D01*
X280416485Y-38121963D01*
X280253511Y-37927739D01*
X280059287Y-37764765D01*
X279839713Y-37637995D01*
X279601461Y-37551278D01*
X279351771Y-37507251D01*
X279098229Y-37507251D01*
X278848539Y-37551278D01*
X278610287Y-37637995D01*
X278390713Y-37764765D01*
X278196489Y-37927739D01*
X278033515Y-38121963D01*
X277906745Y-38341537D01*
X277820028Y-38579789D01*
X277776001Y-38829479D01*
X20673999Y-38829479D01*
X20629972Y-38579789D01*
X20543255Y-38341537D01*
X20416485Y-38121963D01*
X20253511Y-37927739D01*
X20059287Y-37764765D01*
X19839713Y-37637995D01*
X19601461Y-37551278D01*
X19351771Y-37507251D01*
X19098229Y-37507251D01*
X18848539Y-37551278D01*
X18610287Y-37637995D01*
X18390713Y-37764765D01*
X18196489Y-37927739D01*
X18033515Y-38121963D01*
X17906745Y-38341537D01*
X17820028Y-38579789D01*
X17776001Y-38829479D01*
X15074000Y-38829479D01*
X15074000Y-37500804D01*
X15077750Y-37486357D01*
X15097018Y-37152182D01*
X15149385Y-36852137D01*
X15235887Y-36560112D01*
X15355380Y-36279965D01*
X15506285Y-36015400D01*
X15686594Y-35769938D01*
X15893926Y-35546821D01*
X16125520Y-35349022D01*
X16378326Y-35179144D01*
X16648972Y-35039453D01*
X16933891Y-34931791D01*
X17229277Y-34857595D01*
X17534931Y-34817356D01*
X17747714Y-34809553D01*
X17765847Y-34805250D01*
X280680446Y-34805250D01*
X280694893Y-34809000D01*
M02*
